M48
;Layer_Color=9474304
;FILE_FORMAT=4:4
METRIC,LZ
;TYPE=PLATED
T1F00S00C0.3000
T2F00S00C0.5000
T3F00S00C0.6000
T4F00S00C0.7240
T5F00S00C1.0000
T6F00S00C1.2000
T8F00S00C2.5000
T9F00S00C3.1800
%
T01
X00569Y00279
X005305Y003105
X0049775Y00425
X0039585Y0040015
X0035Y003875
X0035065Y0034935
X0035065Y0033665
X003025Y003745
X00308Y003855
X00301Y003995
X0029785Y0041285
X0025Y004525
X002575Y00463
X002235Y0044
X001455Y004485
X00214Y003385
X002365Y002115
X00237Y00201
X0035Y0045095
X00349Y00463
X0009375Y004485
X001005Y00240499
X0011725Y0019275
X001Y0055
X0014
X00114Y00601
X0008965Y0061415
X0007675Y00614
X00124Y00652
X00095Y00717
X00096Y00736
X000935Y00783
X001155
X001045Y00815
X001365Y008155
X00128Y00834
X000835
X0006Y008345
X000475Y0083425
X000715Y00783
X00052Y007
X0016Y007065
Y0071775
Y00729
X00265Y0072
X00298Y007195
X00299Y007095
X00316Y00714
X003165Y00703
X003465Y007065
X00355Y006945
X00334999Y00719999
X003715Y0081625
X0035875Y008305
X00365Y009
X003715Y00921
X003925Y009225
X00448Y00916
X004775Y00932
X00539Y00906
X00449Y00867
X00268Y00647
X00229Y0063
X005505Y00837
X00556Y00977
X00548Y009825
X00409Y009855
X004085Y009455
X00193Y009495
X00102Y009715
X000685Y0097
T02
X00569Y001395
Y00152
Y001645
Y00177
Y001895
Y00202
T03
X00492Y00048
Y00078
T04
X00187769Y00048941
X00196749Y0003996
X0020573Y0003098
X0021471Y00022
X0038527
X0039425Y0003098
X00403231Y0003996
X00412211Y00048941
Y00219269
X00403231Y00228249
X0039425Y0023723
X0038527Y0024621
X0021471Y0024621
X0020573Y0023723
X00196749Y0022825
X00187769Y0021927
T05
X00275Y00059
X003
X00325
Y00204
X00275
X002725Y009308
X002535Y00919
X003275Y009308
Y009562
X002725
T06
X000358Y003515
Y004785
T08
X003Y009245
Y009625
T09
X003Y00288
Y00862
M30
