G04 Layer_Color=8388736*
%FSLAX44Y44*%
%MOMM*%
G71*
G01*
G75*
G04:AMPARAMS|DCode=54|XSize=1.2032mm|YSize=1.1032mm|CornerRadius=0.2141mm|HoleSize=0mm|Usage=FLASHONLY|Rotation=270.000|XOffset=0mm|YOffset=0mm|HoleType=Round|Shape=RoundedRectangle|*
%AMROUNDEDRECTD54*
21,1,1.2032,0.6750,0,0,270.0*
21,1,0.7750,1.1032,0,0,270.0*
1,1,0.4282,-0.3375,-0.3875*
1,1,0.4282,-0.3375,0.3875*
1,1,0.4282,0.3375,0.3875*
1,1,0.4282,0.3375,-0.3875*
%
%ADD54ROUNDEDRECTD54*%
%ADD55R,0.9032X1.4032*%
%ADD56R,0.8000X1.3000*%
%ADD57R,1.2032X1.4032*%
%ADD58R,1.2032X1.0032*%
%ADD59R,1.2032X3.0032*%
%ADD60R,1.5032X2.1032*%
%ADD61R,1.3462X2.4892*%
%ADD62R,0.5032X1.5032*%
%ADD63R,2.0032X2.4032*%
%ADD64R,3.2532X1.7232*%
G04:AMPARAMS|DCode=65|XSize=2.6532mm|YSize=2.7532mm|CornerRadius=0.3466mm|HoleSize=0mm|Usage=FLASHONLY|Rotation=90.000|XOffset=0mm|YOffset=0mm|HoleType=Round|Shape=RoundedRectangle|*
%AMROUNDEDRECTD65*
21,1,2.6532,2.0600,0,0,90.0*
21,1,1.9600,2.7532,0,0,90.0*
1,1,0.6932,1.0300,0.9800*
1,1,0.6932,1.0300,-0.9800*
1,1,0.6932,-1.0300,-0.9800*
1,1,0.6932,-1.0300,0.9800*
%
%ADD65ROUNDEDRECTD65*%
G04:AMPARAMS|DCode=66|XSize=2.0032mm|YSize=1.4032mm|CornerRadius=0.2516mm|HoleSize=0mm|Usage=FLASHONLY|Rotation=180.000|XOffset=0mm|YOffset=0mm|HoleType=Round|Shape=RoundedRectangle|*
%AMROUNDEDRECTD66*
21,1,2.0032,0.9000,0,0,180.0*
21,1,1.5000,1.4032,0,0,180.0*
1,1,0.5032,-0.7500,0.4500*
1,1,0.5032,0.7500,0.4500*
1,1,0.5032,0.7500,-0.4500*
1,1,0.5032,-0.7500,-0.4500*
%
%ADD66ROUNDEDRECTD66*%
%ADD67R,1.7532X2.8032*%
G04:AMPARAMS|DCode=68|XSize=1.6032mm|YSize=1.2032mm|CornerRadius=0.2266mm|HoleSize=0mm|Usage=FLASHONLY|Rotation=270.000|XOffset=0mm|YOffset=0mm|HoleType=Round|Shape=RoundedRectangle|*
%AMROUNDEDRECTD68*
21,1,1.6032,0.7500,0,0,270.0*
21,1,1.1500,1.2032,0,0,270.0*
1,1,0.4532,-0.3750,-0.5750*
1,1,0.4532,-0.3750,0.5750*
1,1,0.4532,0.3750,0.5750*
1,1,0.4532,0.3750,-0.5750*
%
%ADD68ROUNDEDRECTD68*%
G04:AMPARAMS|DCode=69|XSize=1.2032mm|YSize=1.1032mm|CornerRadius=0.2141mm|HoleSize=0mm|Usage=FLASHONLY|Rotation=0.000|XOffset=0mm|YOffset=0mm|HoleType=Round|Shape=RoundedRectangle|*
%AMROUNDEDRECTD69*
21,1,1.2032,0.6750,0,0,0.0*
21,1,0.7750,1.1032,0,0,0.0*
1,1,0.4282,0.3875,-0.3375*
1,1,0.4282,-0.3875,-0.3375*
1,1,0.4282,-0.3875,0.3375*
1,1,0.4282,0.3875,0.3375*
%
%ADD69ROUNDEDRECTD69*%
%ADD70R,1.2032X1.7032*%
%ADD71R,2.4532X1.2032*%
G04:AMPARAMS|DCode=72|XSize=0.8032mm|YSize=1.3032mm|CornerRadius=0.1766mm|HoleSize=0mm|Usage=FLASHONLY|Rotation=180.000|XOffset=0mm|YOffset=0mm|HoleType=Round|Shape=RoundedRectangle|*
%AMROUNDEDRECTD72*
21,1,0.8032,0.9500,0,0,180.0*
21,1,0.4500,1.3032,0,0,180.0*
1,1,0.3532,-0.2250,0.4750*
1,1,0.3532,0.2250,0.4750*
1,1,0.3532,0.2250,-0.4750*
1,1,0.3532,-0.2250,-0.4750*
%
%ADD72ROUNDEDRECTD72*%
G04:AMPARAMS|DCode=73|XSize=0.8032mm|YSize=1.2032mm|CornerRadius=0.1766mm|HoleSize=0mm|Usage=FLASHONLY|Rotation=270.000|XOffset=0mm|YOffset=0mm|HoleType=Round|Shape=RoundedRectangle|*
%AMROUNDEDRECTD73*
21,1,0.8032,0.8500,0,0,270.0*
21,1,0.4500,1.2032,0,0,270.0*
1,1,0.3532,-0.4250,-0.2250*
1,1,0.3532,-0.4250,0.2250*
1,1,0.3532,0.4250,0.2250*
1,1,0.3532,0.4250,-0.2250*
%
%ADD73ROUNDEDRECTD73*%
G04:AMPARAMS|DCode=74|XSize=0.8032mm|YSize=1.2032mm|CornerRadius=0.1766mm|HoleSize=0mm|Usage=FLASHONLY|Rotation=0.000|XOffset=0mm|YOffset=0mm|HoleType=Round|Shape=RoundedRectangle|*
%AMROUNDEDRECTD74*
21,1,0.8032,0.8500,0,0,0.0*
21,1,0.4500,1.2032,0,0,0.0*
1,1,0.3532,0.2250,-0.4250*
1,1,0.3532,-0.2250,-0.4250*
1,1,0.3532,-0.2250,0.4250*
1,1,0.3532,0.2250,0.4250*
%
%ADD74ROUNDEDRECTD74*%
%ADD75O,2.8032X0.9032*%
%ADD76O,0.8032X2.4032*%
%ADD77O,0.8032X1.8032*%
G04:AMPARAMS|DCode=78|XSize=1.0032mm|YSize=1.2032mm|CornerRadius=0.2016mm|HoleSize=0mm|Usage=FLASHONLY|Rotation=180.000|XOffset=0mm|YOffset=0mm|HoleType=Round|Shape=RoundedRectangle|*
%AMROUNDEDRECTD78*
21,1,1.0032,0.8000,0,0,180.0*
21,1,0.6000,1.2032,0,0,180.0*
1,1,0.4032,-0.3000,0.4000*
1,1,0.4032,0.3000,0.4000*
1,1,0.4032,0.3000,-0.4000*
1,1,0.4032,-0.3000,-0.4000*
%
%ADD78ROUNDEDRECTD78*%
%ADD79R,2.2032X5.7032*%
%ADD80O,1.7032X1.1032*%
%ADD81C,2.2032*%
%ADD82R,0.2032X0.2032*%
%ADD83C,0.2032*%
%ADD84C,1.7272*%
G04:AMPARAMS|DCode=85|XSize=1.1mm|YSize=1.8mm|CornerRadius=0mm|HoleSize=0mm|Usage=FLASHONLY|Rotation=225.000|XOffset=0mm|YOffset=0mm|HoleType=Round|Shape=Round|*
%AMOVALD85*
21,1,0.7000,1.1000,0.0000,0.0000,315.0*
1,1,1.1000,-0.2475,0.2475*
1,1,1.1000,0.2475,-0.2475*
%
%ADD85OVALD85*%

G04:AMPARAMS|DCode=86|XSize=1.1mm|YSize=1.8mm|CornerRadius=0mm|HoleSize=0mm|Usage=FLASHONLY|Rotation=225.000|XOffset=0mm|YOffset=0mm|HoleType=Round|Shape=Rectangle|*
%AMROTATEDRECTD86*
4,1,4,-0.2475,1.0253,1.0253,-0.2475,0.2475,-1.0253,-1.0253,0.2475,-0.2475,1.0253,0.0*
%
%ADD86ROTATEDRECTD86*%

G04:AMPARAMS|DCode=87|XSize=1.1mm|YSize=1.8mm|CornerRadius=0mm|HoleSize=0mm|Usage=FLASHONLY|Rotation=135.000|XOffset=0mm|YOffset=0mm|HoleType=Round|Shape=Round|*
%AMOVALD87*
21,1,0.7000,1.1000,0.0000,0.0000,225.0*
1,1,1.1000,0.2475,0.2475*
1,1,1.1000,-0.2475,-0.2475*
%
%ADD87OVALD87*%

G04:AMPARAMS|DCode=88|XSize=1.1mm|YSize=1.8mm|CornerRadius=0mm|HoleSize=0mm|Usage=FLASHONLY|Rotation=135.000|XOffset=0mm|YOffset=0mm|HoleType=Round|Shape=Rectangle|*
%AMROTATEDRECTD88*
4,1,4,1.0253,0.2475,-0.2475,-1.0253,-1.0253,-0.2475,0.2475,1.0253,1.0253,0.2475,0.0*
%
%ADD88ROTATEDRECTD88*%

%ADD89C,2.7032*%
%ADD90C,0.7032*%
D54*
X203500Y646000D02*
D03*
X186500D02*
D03*
X251000Y356500D02*
D03*
X234000D02*
D03*
X397500Y935500D02*
D03*
X380500D02*
D03*
X380500Y977000D02*
D03*
X397500D02*
D03*
X397500Y956250D02*
D03*
X380500D02*
D03*
X292000Y772250D02*
D03*
X275000D02*
D03*
X364000Y506500D02*
D03*
X381000D02*
D03*
X102750Y431750D02*
D03*
X85750D02*
D03*
X31000Y206250D02*
D03*
X48000D02*
D03*
X48000Y285250D02*
D03*
X31000D02*
D03*
X91000Y285250D02*
D03*
X74000D02*
D03*
X571000Y798500D02*
D03*
X588000D02*
D03*
X244250Y763750D02*
D03*
X227250D02*
D03*
X227250Y787500D02*
D03*
X244250D02*
D03*
X127250Y530500D02*
D03*
X110250D02*
D03*
X138000Y431500D02*
D03*
X121000D02*
D03*
X73830Y162370D02*
D03*
X90830D02*
D03*
X73830Y181420D02*
D03*
X90830D02*
D03*
X48000Y260250D02*
D03*
X31000D02*
D03*
X91250Y329750D02*
D03*
X108250D02*
D03*
X91000Y307500D02*
D03*
X108000D02*
D03*
D55*
X49500Y799500D02*
D03*
X60500D02*
D03*
X71500D02*
D03*
X82500D02*
D03*
X93500D02*
D03*
X104500D02*
D03*
X115500D02*
D03*
D56*
X126500D02*
D03*
X136000D02*
D03*
D57*
X34000D02*
D03*
X145500Y842500D02*
D03*
D58*
Y904500D02*
D03*
D59*
Y946000D02*
D03*
D60*
X10500Y950500D02*
D03*
D61*
X426395Y782000D02*
D03*
X455605D02*
D03*
D62*
X357500Y736000D02*
D03*
X352500D02*
D03*
X347500D02*
D03*
X342500D02*
D03*
X337500D02*
D03*
X332500D02*
D03*
X327500D02*
D03*
X322500D02*
D03*
X317500D02*
D03*
X312500D02*
D03*
X307500D02*
D03*
X302500D02*
D03*
X297500D02*
D03*
X292500D02*
D03*
X287500D02*
D03*
X282500D02*
D03*
X277500D02*
D03*
X272500D02*
D03*
X267500D02*
D03*
X262500D02*
D03*
X257500D02*
D03*
X252500D02*
D03*
X247500D02*
D03*
X242500D02*
D03*
D63*
X376500Y703500D02*
D03*
X223500D02*
D03*
D64*
X175000Y438550D02*
D03*
Y461450D02*
D03*
D65*
X140250Y306000D02*
D03*
X200750D02*
D03*
D66*
X271750Y815500D02*
D03*
X297750D02*
D03*
D67*
X67100Y104500D02*
D03*
X99900D02*
D03*
D68*
X358500Y792750D02*
D03*
X340500D02*
D03*
Y763000D02*
D03*
X358500D02*
D03*
D69*
X188500Y831250D02*
D03*
Y814250D02*
D03*
X400000Y322500D02*
D03*
Y305500D02*
D03*
X380500D02*
D03*
Y288500D02*
D03*
X91250Y513500D02*
D03*
Y530500D02*
D03*
Y463250D02*
D03*
Y480250D02*
D03*
X34070Y179750D02*
D03*
Y162750D02*
D03*
X53500Y162750D02*
D03*
Y179750D02*
D03*
X425767Y720500D02*
D03*
Y737500D02*
D03*
X253500Y423000D02*
D03*
Y440000D02*
D03*
X229500Y322000D02*
D03*
Y339000D02*
D03*
X250500Y322000D02*
D03*
Y339000D02*
D03*
X415000Y476500D02*
D03*
Y459500D02*
D03*
X399500Y476500D02*
D03*
Y459500D02*
D03*
X477000Y532000D02*
D03*
Y515000D02*
D03*
X477000Y327000D02*
D03*
Y344000D02*
D03*
X419500Y294000D02*
D03*
Y311000D02*
D03*
X73250Y530500D02*
D03*
Y513500D02*
D03*
X131500Y178500D02*
D03*
Y161500D02*
D03*
D70*
X554250Y822000D02*
D03*
X534250D02*
D03*
X514250D02*
D03*
X494250D02*
D03*
X474250D02*
D03*
X454250D02*
D03*
D71*
X428000Y837000D02*
D03*
Y857000D02*
D03*
Y877000D02*
D03*
Y897000D02*
D03*
Y917000D02*
D03*
Y937000D02*
D03*
Y957000D02*
D03*
Y977000D02*
D03*
X580500D02*
D03*
Y957000D02*
D03*
Y937000D02*
D03*
Y917000D02*
D03*
Y897000D02*
D03*
Y877000D02*
D03*
Y857000D02*
D03*
Y837000D02*
D03*
D72*
X109750Y454250D02*
D03*
X128750Y480250D02*
D03*
X119250D02*
D03*
X109750D02*
D03*
X128750Y454250D02*
D03*
D73*
X245000Y823000D02*
D03*
X222000Y813500D02*
D03*
Y832500D02*
D03*
D74*
X167750Y787500D02*
D03*
X177250Y764500D02*
D03*
X158250D02*
D03*
D75*
X280500Y489050D02*
D03*
Y476350D02*
D03*
Y463650D02*
D03*
Y450950D02*
D03*
Y438250D02*
D03*
Y425550D02*
D03*
Y412850D02*
D03*
Y400150D02*
D03*
Y387450D02*
D03*
Y374750D02*
D03*
Y362050D02*
D03*
Y349350D02*
D03*
Y336650D02*
D03*
Y323950D02*
D03*
X372500Y489050D02*
D03*
Y476350D02*
D03*
Y463650D02*
D03*
Y450950D02*
D03*
Y438250D02*
D03*
Y425550D02*
D03*
Y412850D02*
D03*
Y400150D02*
D03*
Y387450D02*
D03*
Y374750D02*
D03*
Y362050D02*
D03*
Y349350D02*
D03*
Y336650D02*
D03*
Y323950D02*
D03*
D76*
X140450Y680000D02*
D03*
X127750D02*
D03*
X115050D02*
D03*
X102350D02*
D03*
X89650D02*
D03*
X76950D02*
D03*
X64250D02*
D03*
X140450Y632000D02*
D03*
X127750D02*
D03*
X115050D02*
D03*
X102350D02*
D03*
X89650D02*
D03*
X76950D02*
D03*
X64250D02*
D03*
X51550Y680000D02*
D03*
Y632000D02*
D03*
D77*
X65510Y206280D02*
D03*
X78210D02*
D03*
X90910D02*
D03*
X103610D02*
D03*
X65510Y260280D02*
D03*
X78210D02*
D03*
X90910D02*
D03*
X103610D02*
D03*
D78*
X148750Y530000D02*
D03*
Y493000D02*
D03*
X131500Y206500D02*
D03*
Y243500D02*
D03*
D79*
X477000Y382000D02*
D03*
Y477000D02*
D03*
D80*
X569000Y139500D02*
D03*
Y152000D02*
D03*
Y164500D02*
D03*
Y177000D02*
D03*
Y189500D02*
D03*
Y202000D02*
D03*
D81*
X275000Y59000D02*
D03*
X300000D02*
D03*
X325000D02*
D03*
Y204000D02*
D03*
X275000D02*
D03*
X272500Y956200D02*
D03*
Y930800D02*
D03*
X327500D02*
D03*
Y956200D02*
D03*
D82*
X355000Y134000D02*
D03*
D83*
X245000D02*
D03*
X300000Y962500D02*
D03*
Y924500D02*
D03*
X253500Y919000D02*
D03*
X300000Y288000D02*
D03*
Y862000D02*
D03*
D84*
X492000Y78000D02*
D03*
Y48000D02*
D03*
D85*
X187769Y219270D02*
D03*
X205730Y237230D02*
D03*
X214710Y246210D02*
D03*
X412211Y48941D02*
D03*
X394250Y30980D02*
D03*
X385270Y22000D02*
D03*
D86*
X196749Y228250D02*
D03*
X403231Y39960D02*
D03*
D87*
X187769Y48941D02*
D03*
X205730Y30980D02*
D03*
X214710Y22000D02*
D03*
X412211Y219269D02*
D03*
X394250Y237230D02*
D03*
X385270Y246210D02*
D03*
D88*
X196749Y39960D02*
D03*
X403231Y228249D02*
D03*
D89*
X35800Y351500D02*
D03*
Y478500D02*
D03*
D90*
X124000Y652000D02*
D03*
X229000Y630000D02*
D03*
X268000Y647000D02*
D03*
X114000Y601000D02*
D03*
X96000Y736000D02*
D03*
X392500Y922500D02*
D03*
X365000Y900000D02*
D03*
X371500Y921000D02*
D03*
X334999Y719999D02*
D03*
X60000Y834500D02*
D03*
X140000Y550000D02*
D03*
X100000D02*
D03*
X350000Y450950D02*
D03*
X349000Y463000D02*
D03*
X550500Y837000D02*
D03*
X298000Y719500D02*
D03*
X477500Y932000D02*
D03*
X355000Y694500D02*
D03*
X346500Y706500D02*
D03*
X160000Y729000D02*
D03*
Y717750D02*
D03*
Y706500D02*
D03*
X93500Y783000D02*
D03*
X115500D02*
D03*
X71500D02*
D03*
X95000Y717000D02*
D03*
X236500Y211500D02*
D03*
X237000Y201000D02*
D03*
X395850Y400150D02*
D03*
X530500Y310500D02*
D03*
X569000Y279000D02*
D03*
X297850Y412850D02*
D03*
X223500Y440000D02*
D03*
X193000Y949500D02*
D03*
X102000Y971500D02*
D03*
X68500Y970000D02*
D03*
X145500Y448500D02*
D03*
X350650Y349350D02*
D03*
X350650Y336650D02*
D03*
X497750Y425000D02*
D03*
X371500Y816250D02*
D03*
X358750Y830500D02*
D03*
X117250Y192750D02*
D03*
X93750Y448500D02*
D03*
X449000Y867000D02*
D03*
X250000Y452500D02*
D03*
X83500Y834000D02*
D03*
X47500Y834250D02*
D03*
X128000Y834000D02*
D03*
X104500Y815000D02*
D03*
X136500Y815500D02*
D03*
X214000Y338500D02*
D03*
X350000Y387500D02*
D03*
X302500Y374500D02*
D03*
X301000Y399500D02*
D03*
X257500Y463000D02*
D03*
X265000Y720000D02*
D03*
X100500Y240499D02*
D03*
X409000Y985500D02*
D03*
X408500Y945500D02*
D03*
X539000Y906000D02*
D03*
X448000Y916000D02*
D03*
X548000Y982500D02*
D03*
X556000Y977000D02*
D03*
X316000Y714000D02*
D03*
X316500Y703000D02*
D03*
X52000Y700000D02*
D03*
X299000Y709500D02*
D03*
X308000Y385500D02*
D03*
X89650Y614150D02*
D03*
X76750Y614000D02*
D03*
M02*
