G04 Layer_Color=2752767*
%FSLAX44Y44*%
%MOMM*%
G71*
G01*
G75*
%ADD53C,0.2540*%
%ADD98C,0.0508*%
%ADD99C,0.3810*%
%ADD100C,0.4064*%
%ADD101C,0.3556*%
D53*
X688085Y370867D02*
G03*
X688085Y370867I-5080J0D01*
G01*
X691472D02*
G03*
X691472Y370867I-8467J0D01*
G01*
Y218467D02*
G03*
X691472Y218467I-8467J0D01*
G01*
X683005Y324300D02*
X691472Y341233D01*
X674539D02*
X691472D01*
X674539D02*
X683005Y324300D01*
X678772Y290433D02*
X683005Y286200D01*
X674539Y290433D02*
X678772D01*
X674539D02*
X678772Y294667D01*
X674539Y298900D02*
X678772Y294667D01*
X674539Y298900D02*
X678772D01*
X683005Y303133D01*
X687239Y298900D01*
X691472D01*
X687239Y294667D02*
X691472Y298900D01*
X687239Y294667D02*
X691472Y290433D01*
X687239D02*
X691472D01*
X683005Y286200D02*
X687239Y290433D01*
X674539Y256567D02*
X683005Y248100D01*
X691472Y256567D01*
X683005Y265033D02*
X691472Y256567D01*
X674539D02*
X683005Y265033D01*
X674539Y176133D02*
X678772D01*
X674539D02*
Y184600D01*
X678772D01*
Y188833D01*
X687239D01*
Y184600D02*
Y188833D01*
Y184600D02*
X691472D01*
Y176133D02*
Y184600D01*
X687239Y176133D02*
X691472D01*
X687239Y171900D02*
Y176133D01*
X678772Y171900D02*
X687239D01*
X678772D02*
Y176133D01*
X674539Y133800D02*
X691472D01*
Y150733D01*
X674539D02*
X691472D01*
X674539Y133800D02*
Y150733D01*
Y95700D02*
Y99933D01*
X678772Y104167D01*
X674539Y108400D02*
X678772Y104167D01*
X674539Y108400D02*
Y112633D01*
X678772D01*
X683005Y108400D01*
X687239Y112633D01*
X691472D01*
Y108400D02*
Y112633D01*
X687239Y104167D02*
X691472Y108400D01*
X687239Y104167D02*
X691472Y99933D01*
Y95700D02*
Y99933D01*
X687239Y95700D02*
X691472D01*
X683005Y99933D02*
X687239Y95700D01*
X678772D02*
X683005Y99933D01*
X674539Y95700D02*
X678772D01*
X674539Y57600D02*
X683005Y61833D01*
X691472Y57600D01*
X687239Y66067D02*
X691472Y57600D01*
X687239Y66067D02*
X691472Y74533D01*
X683005Y70300D02*
X691472Y74533D01*
X674539D02*
X683005Y70300D01*
X674539Y74533D02*
X678772Y66067D01*
X674539Y57600D02*
X678772Y66067D01*
X1338882Y362400D02*
Y377635D01*
X1346500D01*
X1349039Y375096D01*
Y370018D01*
X1346500Y367478D01*
X1338882D01*
X1343961D02*
X1349039Y362400D01*
X1356656D02*
X1361735D01*
X1364274Y364939D01*
Y370018D01*
X1361735Y372557D01*
X1356656D01*
X1354117Y370018D01*
Y364939D01*
X1356656Y362400D01*
X1369352Y372557D02*
Y364939D01*
X1371892Y362400D01*
X1379509D01*
Y372557D01*
X1384588Y362400D02*
Y372557D01*
X1392205D01*
X1394744Y370018D01*
Y362400D01*
X1409979Y377635D02*
Y362400D01*
X1402362D01*
X1399823Y364939D01*
Y370018D01*
X1402362Y372557D01*
X1409979D01*
X1338882Y324300D02*
Y339535D01*
X1346500D01*
X1349039Y336996D01*
Y331917D01*
X1346500Y329378D01*
X1338882D01*
X1343961D02*
X1349039Y324300D01*
X1356656D02*
X1361735D01*
X1364274Y326839D01*
Y331917D01*
X1361735Y334457D01*
X1356656D01*
X1354117Y331917D01*
Y326839D01*
X1356656Y324300D01*
X1369352Y334457D02*
Y326839D01*
X1371892Y324300D01*
X1379509D01*
Y334457D01*
X1384588Y324300D02*
Y334457D01*
X1392205D01*
X1394744Y331917D01*
Y324300D01*
X1409979Y339535D02*
Y324300D01*
X1402362D01*
X1399823Y326839D01*
Y331917D01*
X1402362Y334457D01*
X1409979D01*
X1338882Y286200D02*
Y301435D01*
X1346500D01*
X1349039Y298896D01*
Y293818D01*
X1346500Y291278D01*
X1338882D01*
X1343961D02*
X1349039Y286200D01*
X1356656D02*
X1361735D01*
X1364274Y288739D01*
Y293818D01*
X1361735Y296357D01*
X1356656D01*
X1354117Y293818D01*
Y288739D01*
X1356656Y286200D01*
X1369352Y296357D02*
Y288739D01*
X1371892Y286200D01*
X1379509D01*
Y296357D01*
X1384588Y286200D02*
Y296357D01*
X1392205D01*
X1394744Y293818D01*
Y286200D01*
X1409979Y301435D02*
Y286200D01*
X1402362D01*
X1399823Y288739D01*
Y293818D01*
X1402362Y296357D01*
X1409979D01*
X1338882Y248100D02*
Y263335D01*
X1346500D01*
X1349039Y260796D01*
Y255718D01*
X1346500Y253178D01*
X1338882D01*
X1343961D02*
X1349039Y248100D01*
X1356656D02*
X1361735D01*
X1364274Y250639D01*
Y255718D01*
X1361735Y258257D01*
X1356656D01*
X1354117Y255718D01*
Y250639D01*
X1356656Y248100D01*
X1369352Y258257D02*
Y250639D01*
X1371892Y248100D01*
X1379509D01*
Y258257D01*
X1384588Y248100D02*
Y258257D01*
X1392205D01*
X1394744Y255718D01*
Y248100D01*
X1409979Y263335D02*
Y248100D01*
X1402362D01*
X1399823Y250639D01*
Y255718D01*
X1402362Y258257D01*
X1409979D01*
X1338882Y210000D02*
Y225235D01*
X1346500D01*
X1349039Y222696D01*
Y217617D01*
X1346500Y215078D01*
X1338882D01*
X1343961D02*
X1349039Y210000D01*
X1356656D02*
X1361735D01*
X1364274Y212539D01*
Y217617D01*
X1361735Y220157D01*
X1356656D01*
X1354117Y217617D01*
Y212539D01*
X1356656Y210000D01*
X1369352Y220157D02*
Y212539D01*
X1371892Y210000D01*
X1379509D01*
Y220157D01*
X1384588Y210000D02*
Y220157D01*
X1392205D01*
X1394744Y217617D01*
Y210000D01*
X1409979Y225235D02*
Y210000D01*
X1402362D01*
X1399823Y212539D01*
Y217617D01*
X1402362Y220157D01*
X1409979D01*
X1338882Y171900D02*
Y187135D01*
X1346500D01*
X1349039Y184596D01*
Y179517D01*
X1346500Y176978D01*
X1338882D01*
X1343961D02*
X1349039Y171900D01*
X1356656D02*
X1361735D01*
X1364274Y174439D01*
Y179517D01*
X1361735Y182057D01*
X1356656D01*
X1354117Y179517D01*
Y174439D01*
X1356656Y171900D01*
X1369352Y182057D02*
Y174439D01*
X1371892Y171900D01*
X1379509D01*
Y182057D01*
X1384588Y171900D02*
Y182057D01*
X1392205D01*
X1394744Y179517D01*
Y171900D01*
X1409979Y187135D02*
Y171900D01*
X1402362D01*
X1399823Y174439D01*
Y179517D01*
X1402362Y182057D01*
X1409979D01*
X1349039Y146496D02*
X1346500Y149035D01*
X1341421D01*
X1338882Y146496D01*
Y143957D01*
X1341421Y141418D01*
X1346500D01*
X1349039Y138878D01*
Y136339D01*
X1346500Y133800D01*
X1341421D01*
X1338882Y136339D01*
X1354117Y133800D02*
X1359196D01*
X1356656D01*
Y149035D01*
X1354117D01*
X1369352Y133800D02*
X1374431D01*
X1376970Y136339D01*
Y141418D01*
X1374431Y143957D01*
X1369352D01*
X1366813Y141418D01*
Y136339D01*
X1369352Y133800D01*
X1384588Y146496D02*
Y143957D01*
X1382048D01*
X1387127D01*
X1384588D01*
Y136339D01*
X1387127Y133800D01*
X1338882Y95700D02*
Y110935D01*
X1346500D01*
X1349039Y108396D01*
Y103317D01*
X1346500Y100778D01*
X1338882D01*
X1343961D02*
X1349039Y95700D01*
X1356656D02*
X1361735D01*
X1364274Y98239D01*
Y103317D01*
X1361735Y105857D01*
X1356656D01*
X1354117Y103317D01*
Y98239D01*
X1356656Y95700D01*
X1369352Y105857D02*
Y98239D01*
X1371892Y95700D01*
X1379509D01*
Y105857D01*
X1384588Y95700D02*
Y105857D01*
X1392205D01*
X1394744Y103317D01*
Y95700D01*
X1409979Y110935D02*
Y95700D01*
X1402362D01*
X1399823Y98239D01*
Y103317D01*
X1402362Y105857D01*
X1409979D01*
X1338882Y57600D02*
Y72835D01*
X1346500D01*
X1349039Y70296D01*
Y65217D01*
X1346500Y62678D01*
X1338882D01*
X1343961D02*
X1349039Y57600D01*
X1356656D02*
X1361735D01*
X1364274Y60139D01*
Y65217D01*
X1361735Y67757D01*
X1356656D01*
X1354117Y65217D01*
Y60139D01*
X1356656Y57600D01*
X1369352Y67757D02*
Y60139D01*
X1371892Y57600D01*
X1379509D01*
Y67757D01*
X1384588Y57600D02*
Y67757D01*
X1392205D01*
X1394744Y65217D01*
Y57600D01*
X1409979Y72835D02*
Y57600D01*
X1402362D01*
X1399823Y60139D01*
Y65217D01*
X1402362Y67757D01*
X1409979D01*
X1210390Y362400D02*
Y377635D01*
X1218007D01*
X1220546Y375096D01*
Y370018D01*
X1218007Y367478D01*
X1210390D01*
X1225625Y377635D02*
X1235782D01*
X1230703D01*
Y362400D01*
X1240860Y377635D02*
Y362400D01*
Y370018D01*
X1251017D01*
Y377635D01*
Y362400D01*
X1210390Y324300D02*
Y339535D01*
X1218007D01*
X1220546Y336996D01*
Y331917D01*
X1218007Y329378D01*
X1210390D01*
X1225625Y339535D02*
X1235782D01*
X1230703D01*
Y324300D01*
X1240860Y339535D02*
Y324300D01*
Y331917D01*
X1251017D01*
Y339535D01*
Y324300D01*
X1210390Y286200D02*
Y301435D01*
X1218007D01*
X1220546Y298896D01*
Y293818D01*
X1218007Y291278D01*
X1210390D01*
X1225625Y301435D02*
X1235782D01*
X1230703D01*
Y286200D01*
X1240860Y301435D02*
Y286200D01*
Y293818D01*
X1251017D01*
Y301435D01*
Y286200D01*
X1210390Y248100D02*
Y263335D01*
X1218007D01*
X1220546Y260796D01*
Y255718D01*
X1218007Y253178D01*
X1210390D01*
X1225625Y263335D02*
X1235782D01*
X1230703D01*
Y248100D01*
X1240860Y263335D02*
Y248100D01*
Y255718D01*
X1251017D01*
Y263335D01*
Y248100D01*
X1210390Y210000D02*
Y225235D01*
X1218007D01*
X1220546Y222696D01*
Y217617D01*
X1218007Y215078D01*
X1210390D01*
X1225625Y225235D02*
X1235782D01*
X1230703D01*
Y210000D01*
X1240860Y225235D02*
Y210000D01*
Y217617D01*
X1251017D01*
Y225235D01*
Y210000D01*
X1210390Y171900D02*
Y187135D01*
X1218007D01*
X1220546Y184596D01*
Y179517D01*
X1218007Y176978D01*
X1210390D01*
X1225625Y187135D02*
X1235782D01*
X1230703D01*
Y171900D01*
X1240860Y187135D02*
Y171900D01*
Y179517D01*
X1251017D01*
Y187135D01*
Y171900D01*
X1210390Y133800D02*
Y149035D01*
X1218007D01*
X1220546Y146496D01*
Y141418D01*
X1218007Y138878D01*
X1210390D01*
X1225625Y149035D02*
X1235782D01*
X1230703D01*
Y133800D01*
X1240860Y149035D02*
Y133800D01*
Y141418D01*
X1251017D01*
Y149035D01*
Y133800D01*
X1210390Y95700D02*
Y110935D01*
X1218007D01*
X1220546Y108396D01*
Y103317D01*
X1218007Y100778D01*
X1210390D01*
X1225625Y110935D02*
X1235782D01*
X1230703D01*
Y95700D01*
X1240860Y110935D02*
Y95700D01*
Y103317D01*
X1251017D01*
Y110935D01*
Y95700D01*
X1210390Y57600D02*
Y72835D01*
X1218007D01*
X1220546Y70296D01*
Y65217D01*
X1218007Y62678D01*
X1210390D01*
X1225625Y72835D02*
X1235782D01*
X1230703D01*
Y57600D01*
X1240860Y72835D02*
Y57600D01*
Y65217D01*
X1251017D01*
Y72835D01*
Y57600D01*
X920914Y375096D02*
X923454Y377635D01*
X928532D01*
X931071Y375096D01*
Y364939D01*
X928532Y362400D01*
X923454D01*
X920914Y364939D01*
Y375096D01*
X936150Y362400D02*
Y364939D01*
X938689D01*
Y362400D01*
X936150D01*
X948845Y375096D02*
X951385Y377635D01*
X956463D01*
X959002Y375096D01*
Y372557D01*
X956463Y370018D01*
X953924D01*
X956463D01*
X959002Y367478D01*
Y364939D01*
X956463Y362400D01*
X951385D01*
X948845Y364939D01*
X964081Y375096D02*
X966620Y377635D01*
X971698D01*
X974237Y375096D01*
Y364939D01*
X971698Y362400D01*
X966620D01*
X964081Y364939D01*
Y375096D01*
X979315D02*
X981855Y377635D01*
X986933D01*
X989472Y375096D01*
Y364939D01*
X986933Y362400D01*
X981855D01*
X979315Y364939D01*
Y375096D01*
X994551Y362400D02*
Y372557D01*
X997090D01*
X999629Y370018D01*
Y362400D01*
Y370018D01*
X1002168Y372557D01*
X1004707Y370018D01*
Y362400D01*
X1009786D02*
Y372557D01*
X1012325D01*
X1014864Y370018D01*
Y362400D01*
Y370018D01*
X1017403Y372557D01*
X1019942Y370018D01*
Y362400D01*
X1045334D02*
X1040256Y367478D01*
Y372557D01*
X1045334Y377635D01*
X1052952Y362400D02*
X1058030D01*
X1055491D01*
Y377635D01*
X1052952Y375096D01*
X1065648Y362400D02*
X1070726D01*
X1068187D01*
Y377635D01*
X1065648Y375096D01*
X1078344Y362400D02*
Y364939D01*
X1080883D01*
Y362400D01*
X1078344D01*
X1091039Y375096D02*
X1093579Y377635D01*
X1098657D01*
X1101196Y375096D01*
Y372557D01*
X1098657Y370018D01*
X1101196Y367478D01*
Y364939D01*
X1098657Y362400D01*
X1093579D01*
X1091039Y364939D01*
Y367478D01*
X1093579Y370018D01*
X1091039Y372557D01*
Y375096D01*
X1093579Y370018D02*
X1098657D01*
X1106274Y362400D02*
X1111353D01*
X1108814D01*
Y377635D01*
X1106274Y375096D01*
X1118970Y362400D02*
Y372557D01*
X1121509D01*
X1124049Y370018D01*
Y362400D01*
Y370018D01*
X1126588Y372557D01*
X1129127Y370018D01*
Y362400D01*
X1134205D02*
X1139284D01*
X1136745D01*
Y372557D01*
X1134205D01*
X1146901Y362400D02*
X1151980D01*
X1149441D01*
Y377635D01*
X1146901D01*
X1159597Y362400D02*
X1164676Y367478D01*
Y372557D01*
X1159597Y377635D01*
X920914Y336996D02*
X923454Y339535D01*
X928532D01*
X931071Y336996D01*
Y326839D01*
X928532Y324300D01*
X923454D01*
X920914Y326839D01*
Y336996D01*
X936150Y324300D02*
Y326839D01*
X938689D01*
Y324300D01*
X936150D01*
X959002Y339535D02*
X948845D01*
Y331917D01*
X953924Y334457D01*
X956463D01*
X959002Y331917D01*
Y326839D01*
X956463Y324300D01*
X951385D01*
X948845Y326839D01*
X964081Y336996D02*
X966620Y339535D01*
X971698D01*
X974237Y336996D01*
Y326839D01*
X971698Y324300D01*
X966620D01*
X964081Y326839D01*
Y336996D01*
X979315D02*
X981855Y339535D01*
X986933D01*
X989472Y336996D01*
Y326839D01*
X986933Y324300D01*
X981855D01*
X979315Y326839D01*
Y336996D01*
X994551Y324300D02*
Y334457D01*
X997090D01*
X999629Y331917D01*
Y324300D01*
Y331917D01*
X1002168Y334457D01*
X1004707Y331917D01*
Y324300D01*
X1009786D02*
Y334457D01*
X1012325D01*
X1014864Y331917D01*
Y324300D01*
Y331917D01*
X1017403Y334457D01*
X1019942Y331917D01*
Y324300D01*
X1045334D02*
X1040256Y329378D01*
Y334457D01*
X1045334Y339535D01*
X1052952Y324300D02*
X1058030D01*
X1055491D01*
Y339535D01*
X1052952Y336996D01*
X1065648Y326839D02*
X1068187Y324300D01*
X1073265D01*
X1075804Y326839D01*
Y336996D01*
X1073265Y339535D01*
X1068187D01*
X1065648Y336996D01*
Y334457D01*
X1068187Y331917D01*
X1075804D01*
X1080883Y324300D02*
Y326839D01*
X1083422D01*
Y324300D01*
X1080883D01*
X1103735Y339535D02*
X1098657Y336996D01*
X1093579Y331917D01*
Y326839D01*
X1096118Y324300D01*
X1101196D01*
X1103735Y326839D01*
Y329378D01*
X1101196Y331917D01*
X1093579D01*
X1108814Y326839D02*
X1111353Y324300D01*
X1116431D01*
X1118970Y326839D01*
Y336996D01*
X1116431Y339535D01*
X1111353D01*
X1108814Y336996D01*
Y334457D01*
X1111353Y331917D01*
X1118970D01*
X1124049Y324300D02*
Y334457D01*
X1126588D01*
X1129127Y331917D01*
Y324300D01*
Y331917D01*
X1131666Y334457D01*
X1134205Y331917D01*
Y324300D01*
X1139284D02*
X1144362D01*
X1141823D01*
Y334457D01*
X1139284D01*
X1151980Y324300D02*
X1157058D01*
X1154519D01*
Y339535D01*
X1151980D01*
X1164676Y324300D02*
X1169754Y329378D01*
Y334457D01*
X1164676Y339535D01*
X920914Y298896D02*
X923454Y301435D01*
X928532D01*
X931071Y298896D01*
Y288739D01*
X928532Y286200D01*
X923454D01*
X920914Y288739D01*
Y298896D01*
X936150Y286200D02*
Y288739D01*
X938689D01*
Y286200D01*
X936150D01*
X959002Y301435D02*
X953924Y298896D01*
X948845Y293818D01*
Y288739D01*
X951385Y286200D01*
X956463D01*
X959002Y288739D01*
Y291278D01*
X956463Y293818D01*
X948845D01*
X964081Y298896D02*
X966620Y301435D01*
X971698D01*
X974237Y298896D01*
Y288739D01*
X971698Y286200D01*
X966620D01*
X964081Y288739D01*
Y298896D01*
X979315D02*
X981855Y301435D01*
X986933D01*
X989472Y298896D01*
Y288739D01*
X986933Y286200D01*
X981855D01*
X979315Y288739D01*
Y298896D01*
X994551Y286200D02*
Y296357D01*
X997090D01*
X999629Y293818D01*
Y286200D01*
Y293818D01*
X1002168Y296357D01*
X1004707Y293818D01*
Y286200D01*
X1009786D02*
Y296357D01*
X1012325D01*
X1014864Y293818D01*
Y286200D01*
Y293818D01*
X1017403Y296357D01*
X1019942Y293818D01*
Y286200D01*
X1045334D02*
X1040256Y291278D01*
Y296357D01*
X1045334Y301435D01*
X1063108Y286200D02*
X1052952D01*
X1063108Y296357D01*
Y298896D01*
X1060569Y301435D01*
X1055491D01*
X1052952Y298896D01*
X1068187D02*
X1070726Y301435D01*
X1075804D01*
X1078344Y298896D01*
Y296357D01*
X1075804Y293818D01*
X1073265D01*
X1075804D01*
X1078344Y291278D01*
Y288739D01*
X1075804Y286200D01*
X1070726D01*
X1068187Y288739D01*
X1083422Y286200D02*
Y288739D01*
X1085961D01*
Y286200D01*
X1083422D01*
X1106274Y301435D02*
X1101196Y298896D01*
X1096118Y293818D01*
Y288739D01*
X1098657Y286200D01*
X1103735D01*
X1106274Y288739D01*
Y291278D01*
X1103735Y293818D01*
X1096118D01*
X1121509Y286200D02*
X1111353D01*
X1121509Y296357D01*
Y298896D01*
X1118970Y301435D01*
X1113892D01*
X1111353Y298896D01*
X1126588Y286200D02*
Y296357D01*
X1129127D01*
X1131666Y293818D01*
Y286200D01*
Y293818D01*
X1134205Y296357D01*
X1136745Y293818D01*
Y286200D01*
X1141823D02*
X1146901D01*
X1144362D01*
Y296357D01*
X1141823D01*
X1154519Y286200D02*
X1159597D01*
X1157058D01*
Y301435D01*
X1154519D01*
X1167215Y286200D02*
X1172293Y291278D01*
Y296357D01*
X1167215Y301435D01*
X920914Y260796D02*
X923454Y263335D01*
X928532D01*
X931071Y260796D01*
Y250639D01*
X928532Y248100D01*
X923454D01*
X920914Y250639D01*
Y260796D01*
X936150Y248100D02*
Y250639D01*
X938689D01*
Y248100D01*
X936150D01*
X948845Y263335D02*
X959002D01*
Y260796D01*
X948845Y250639D01*
Y248100D01*
X974237D02*
X964081D01*
X974237Y258257D01*
Y260796D01*
X971698Y263335D01*
X966620D01*
X964081Y260796D01*
X986933Y248100D02*
Y263335D01*
X979315Y255718D01*
X989472D01*
X994551Y248100D02*
Y258257D01*
X997090D01*
X999629Y255718D01*
Y248100D01*
Y255718D01*
X1002168Y258257D01*
X1004707Y255718D01*
Y248100D01*
X1009786D02*
Y258257D01*
X1012325D01*
X1014864Y255718D01*
Y248100D01*
Y255718D01*
X1017403Y258257D01*
X1019942Y255718D01*
Y248100D01*
X1045334D02*
X1040256Y253178D01*
Y258257D01*
X1045334Y263335D01*
X1063108Y248100D02*
X1052952D01*
X1063108Y258257D01*
Y260796D01*
X1060569Y263335D01*
X1055491D01*
X1052952Y260796D01*
X1068187D02*
X1070726Y263335D01*
X1075804D01*
X1078344Y260796D01*
Y258257D01*
X1075804Y255718D01*
X1078344Y253178D01*
Y250639D01*
X1075804Y248100D01*
X1070726D01*
X1068187Y250639D01*
Y253178D01*
X1070726Y255718D01*
X1068187Y258257D01*
Y260796D01*
X1070726Y255718D02*
X1075804D01*
X1083422Y248100D02*
Y250639D01*
X1085961D01*
Y248100D01*
X1083422D01*
X1106274Y263335D02*
X1096118D01*
Y255718D01*
X1101196Y258257D01*
X1103735D01*
X1106274Y255718D01*
Y250639D01*
X1103735Y248100D01*
X1098657D01*
X1096118Y250639D01*
X1111353Y260796D02*
X1113892Y263335D01*
X1118970D01*
X1121509Y260796D01*
Y250639D01*
X1118970Y248100D01*
X1113892D01*
X1111353Y250639D01*
Y260796D01*
X1126588Y248100D02*
Y258257D01*
X1129127D01*
X1131666Y255718D01*
Y248100D01*
Y255718D01*
X1134205Y258257D01*
X1136745Y255718D01*
Y248100D01*
X1141823D02*
X1146901D01*
X1144362D01*
Y258257D01*
X1141823D01*
X1154519Y248100D02*
X1159597D01*
X1157058D01*
Y263335D01*
X1154519D01*
X1167215Y248100D02*
X1172293Y253178D01*
Y258257D01*
X1167215Y263335D01*
X920914Y210000D02*
X925993D01*
X923454D01*
Y225235D01*
X920914Y222696D01*
X933610Y210000D02*
Y212539D01*
X936150D01*
Y210000D01*
X933610D01*
X946306Y222696D02*
X948845Y225235D01*
X953924D01*
X956463Y222696D01*
Y212539D01*
X953924Y210000D01*
X948845D01*
X946306Y212539D01*
Y222696D01*
X961541D02*
X964081Y225235D01*
X969159D01*
X971698Y222696D01*
Y212539D01*
X969159Y210000D01*
X964081D01*
X961541Y212539D01*
Y222696D01*
X976776D02*
X979315Y225235D01*
X984394D01*
X986933Y222696D01*
Y212539D01*
X984394Y210000D01*
X979315D01*
X976776Y212539D01*
Y222696D01*
X992011Y210000D02*
Y220157D01*
X994551D01*
X997090Y217617D01*
Y210000D01*
Y217617D01*
X999629Y220157D01*
X1002168Y217617D01*
Y210000D01*
X1007246D02*
Y220157D01*
X1009786D01*
X1012325Y217617D01*
Y210000D01*
Y217617D01*
X1014864Y220157D01*
X1017403Y217617D01*
Y210000D01*
X1042795D02*
X1037717Y215078D01*
Y220157D01*
X1042795Y225235D01*
X1050413Y222696D02*
X1052952Y225235D01*
X1058030D01*
X1060569Y222696D01*
Y220157D01*
X1058030Y217617D01*
X1055491D01*
X1058030D01*
X1060569Y215078D01*
Y212539D01*
X1058030Y210000D01*
X1052952D01*
X1050413Y212539D01*
X1065648D02*
X1068187Y210000D01*
X1073265D01*
X1075804Y212539D01*
Y222696D01*
X1073265Y225235D01*
X1068187D01*
X1065648Y222696D01*
Y220157D01*
X1068187Y217617D01*
X1075804D01*
X1080883Y210000D02*
Y212539D01*
X1083422D01*
Y210000D01*
X1080883D01*
X1093579Y222696D02*
X1096118Y225235D01*
X1101196D01*
X1103735Y222696D01*
Y220157D01*
X1101196Y217617D01*
X1098657D01*
X1101196D01*
X1103735Y215078D01*
Y212539D01*
X1101196Y210000D01*
X1096118D01*
X1093579Y212539D01*
X1108814Y225235D02*
X1118970D01*
Y222696D01*
X1108814Y212539D01*
Y210000D01*
X1124049D02*
Y220157D01*
X1126588D01*
X1129127Y217617D01*
Y210000D01*
Y217617D01*
X1131666Y220157D01*
X1134205Y217617D01*
Y210000D01*
X1139284D02*
X1144362D01*
X1141823D01*
Y220157D01*
X1139284D01*
X1151980Y210000D02*
X1157058D01*
X1154519D01*
Y225235D01*
X1151980D01*
X1164676Y210000D02*
X1169754Y215078D01*
Y220157D01*
X1164676Y225235D01*
X920914Y171900D02*
X925993D01*
X923454D01*
Y187135D01*
X920914Y184596D01*
X933610Y171900D02*
Y174439D01*
X936150D01*
Y171900D01*
X933610D01*
X956463D02*
X946306D01*
X956463Y182057D01*
Y184596D01*
X953924Y187135D01*
X948845D01*
X946306Y184596D01*
X961541D02*
X964081Y187135D01*
X969159D01*
X971698Y184596D01*
Y174439D01*
X969159Y171900D01*
X964081D01*
X961541Y174439D01*
Y184596D01*
X976776D02*
X979315Y187135D01*
X984394D01*
X986933Y184596D01*
Y174439D01*
X984394Y171900D01*
X979315D01*
X976776Y174439D01*
Y184596D01*
X992011Y171900D02*
Y182057D01*
X994551D01*
X997090Y179517D01*
Y171900D01*
Y179517D01*
X999629Y182057D01*
X1002168Y179517D01*
Y171900D01*
X1007246D02*
Y182057D01*
X1009786D01*
X1012325Y179517D01*
Y171900D01*
Y179517D01*
X1014864Y182057D01*
X1017403Y179517D01*
Y171900D01*
X1042795D02*
X1037717Y176978D01*
Y182057D01*
X1042795Y187135D01*
X1058030Y171900D02*
Y187135D01*
X1050413Y179517D01*
X1060569D01*
X1065648Y187135D02*
X1075804D01*
Y184596D01*
X1065648Y174439D01*
Y171900D01*
X1080883D02*
Y174439D01*
X1083422D01*
Y171900D01*
X1080883D01*
X1103735D02*
X1093579D01*
X1103735Y182057D01*
Y184596D01*
X1101196Y187135D01*
X1096118D01*
X1093579Y184596D01*
X1116431Y171900D02*
Y187135D01*
X1108814Y179517D01*
X1118970D01*
X1124049Y171900D02*
Y182057D01*
X1126588D01*
X1129127Y179517D01*
Y171900D01*
Y179517D01*
X1131666Y182057D01*
X1134205Y179517D01*
Y171900D01*
X1139284D02*
X1144362D01*
X1141823D01*
Y182057D01*
X1139284D01*
X1151980Y171900D02*
X1157058D01*
X1154519D01*
Y187135D01*
X1151980D01*
X1164676Y171900D02*
X1169754Y176978D01*
Y182057D01*
X1164676Y187135D01*
X920914Y133800D02*
X925993D01*
X923454D01*
Y149035D01*
X920914Y146496D01*
X933610Y133800D02*
Y136339D01*
X936150D01*
Y133800D01*
X933610D01*
X956463Y149035D02*
X946306D01*
Y141418D01*
X951385Y143957D01*
X953924D01*
X956463Y141418D01*
Y136339D01*
X953924Y133800D01*
X948845D01*
X946306Y136339D01*
X961541Y146496D02*
X964081Y149035D01*
X969159D01*
X971698Y146496D01*
Y136339D01*
X969159Y133800D01*
X964081D01*
X961541Y136339D01*
Y146496D01*
X976776D02*
X979315Y149035D01*
X984394D01*
X986933Y146496D01*
Y136339D01*
X984394Y133800D01*
X979315D01*
X976776Y136339D01*
Y146496D01*
X992011Y133800D02*
Y143957D01*
X994551D01*
X997090Y141418D01*
Y133800D01*
Y141418D01*
X999629Y143957D01*
X1002168Y141418D01*
Y133800D01*
X1007246D02*
Y143957D01*
X1009786D01*
X1012325Y141418D01*
Y133800D01*
Y141418D01*
X1014864Y143957D01*
X1017403Y141418D01*
Y133800D01*
X1042795D02*
X1037717Y138878D01*
Y143957D01*
X1042795Y149035D01*
X1060569D02*
X1050413D01*
Y141418D01*
X1055491Y143957D01*
X1058030D01*
X1060569Y141418D01*
Y136339D01*
X1058030Y133800D01*
X1052952D01*
X1050413Y136339D01*
X1065648D02*
X1068187Y133800D01*
X1073265D01*
X1075804Y136339D01*
Y146496D01*
X1073265Y149035D01*
X1068187D01*
X1065648Y146496D01*
Y143957D01*
X1068187Y141418D01*
X1075804D01*
X1080883Y133800D02*
Y136339D01*
X1083422D01*
Y133800D01*
X1080883D01*
X1093579Y146496D02*
X1096118Y149035D01*
X1101196D01*
X1103735Y146496D01*
Y136339D01*
X1101196Y133800D01*
X1096118D01*
X1093579Y136339D01*
Y146496D01*
X1118970Y149035D02*
X1113892Y146496D01*
X1108814Y141418D01*
Y136339D01*
X1111353Y133800D01*
X1116431D01*
X1118970Y136339D01*
Y138878D01*
X1116431Y141418D01*
X1108814D01*
X1124049Y133800D02*
Y143957D01*
X1126588D01*
X1129127Y141418D01*
Y133800D01*
Y141418D01*
X1131666Y143957D01*
X1134205Y141418D01*
Y133800D01*
X1139284D02*
X1144362D01*
X1141823D01*
Y143957D01*
X1139284D01*
X1151980Y133800D02*
X1157058D01*
X1154519D01*
Y149035D01*
X1151980D01*
X1164676Y133800D02*
X1169754Y138878D01*
Y143957D01*
X1164676Y149035D01*
X931071Y95700D02*
X920914D01*
X931071Y105857D01*
Y108396D01*
X928532Y110935D01*
X923454D01*
X920914Y108396D01*
X936150Y95700D02*
Y98239D01*
X938689D01*
Y95700D01*
X936150D01*
X959002Y110935D02*
X948845D01*
Y103317D01*
X953924Y105857D01*
X956463D01*
X959002Y103317D01*
Y98239D01*
X956463Y95700D01*
X951385D01*
X948845Y98239D01*
X964081Y108396D02*
X966620Y110935D01*
X971698D01*
X974237Y108396D01*
Y98239D01*
X971698Y95700D01*
X966620D01*
X964081Y98239D01*
Y108396D01*
X979315D02*
X981855Y110935D01*
X986933D01*
X989472Y108396D01*
Y98239D01*
X986933Y95700D01*
X981855D01*
X979315Y98239D01*
Y108396D01*
X994551Y95700D02*
Y105857D01*
X997090D01*
X999629Y103317D01*
Y95700D01*
Y103317D01*
X1002168Y105857D01*
X1004707Y103317D01*
Y95700D01*
X1009786D02*
Y105857D01*
X1012325D01*
X1014864Y103317D01*
Y95700D01*
Y103317D01*
X1017403Y105857D01*
X1019942Y103317D01*
Y95700D01*
X1045334D02*
X1040256Y100778D01*
Y105857D01*
X1045334Y110935D01*
X1052952Y98239D02*
X1055491Y95700D01*
X1060569D01*
X1063108Y98239D01*
Y108396D01*
X1060569Y110935D01*
X1055491D01*
X1052952Y108396D01*
Y105857D01*
X1055491Y103317D01*
X1063108D01*
X1068187Y108396D02*
X1070726Y110935D01*
X1075804D01*
X1078344Y108396D01*
Y105857D01*
X1075804Y103317D01*
X1078344Y100778D01*
Y98239D01*
X1075804Y95700D01*
X1070726D01*
X1068187Y98239D01*
Y100778D01*
X1070726Y103317D01*
X1068187Y105857D01*
Y108396D01*
X1070726Y103317D02*
X1075804D01*
X1083422Y95700D02*
Y98239D01*
X1085961D01*
Y95700D01*
X1083422D01*
X1103735D02*
Y110935D01*
X1096118Y103317D01*
X1106274D01*
X1111353Y108396D02*
X1113892Y110935D01*
X1118970D01*
X1121509Y108396D01*
Y105857D01*
X1118970Y103317D01*
X1116431D01*
X1118970D01*
X1121509Y100778D01*
Y98239D01*
X1118970Y95700D01*
X1113892D01*
X1111353Y98239D01*
X1126588Y95700D02*
Y105857D01*
X1129127D01*
X1131666Y103317D01*
Y95700D01*
Y103317D01*
X1134205Y105857D01*
X1136745Y103317D01*
Y95700D01*
X1141823D02*
X1146901D01*
X1144362D01*
Y105857D01*
X1141823D01*
X1154519Y95700D02*
X1159597D01*
X1157058D01*
Y110935D01*
X1154519D01*
X1167215Y95700D02*
X1172293Y100778D01*
Y105857D01*
X1167215Y110935D01*
X920914Y70296D02*
X923454Y72835D01*
X928532D01*
X931071Y70296D01*
Y67757D01*
X928532Y65217D01*
X925993D01*
X928532D01*
X931071Y62678D01*
Y60139D01*
X928532Y57600D01*
X923454D01*
X920914Y60139D01*
X936150Y57600D02*
Y60139D01*
X938689D01*
Y57600D01*
X936150D01*
X948845D02*
X953924D01*
X951385D01*
Y72835D01*
X948845Y70296D01*
X961541D02*
X964081Y72835D01*
X969159D01*
X971698Y70296D01*
Y67757D01*
X969159Y65217D01*
X971698Y62678D01*
Y60139D01*
X969159Y57600D01*
X964081D01*
X961541Y60139D01*
Y62678D01*
X964081Y65217D01*
X961541Y67757D01*
Y70296D01*
X964081Y65217D02*
X969159D01*
X976776Y70296D02*
X979315Y72835D01*
X984394D01*
X986933Y70296D01*
Y60139D01*
X984394Y57600D01*
X979315D01*
X976776Y60139D01*
Y70296D01*
X992011Y57600D02*
Y67757D01*
X994551D01*
X997090Y65217D01*
Y57600D01*
Y65217D01*
X999629Y67757D01*
X1002168Y65217D01*
Y57600D01*
X1007246D02*
Y67757D01*
X1009786D01*
X1012325Y65217D01*
Y57600D01*
Y65217D01*
X1014864Y67757D01*
X1017403Y65217D01*
Y57600D01*
X1042795D02*
X1037717Y62678D01*
Y67757D01*
X1042795Y72835D01*
X1050413Y57600D02*
X1055491D01*
X1052952D01*
Y72835D01*
X1050413Y70296D01*
X1073265Y57600D02*
X1063108D01*
X1073265Y67757D01*
Y70296D01*
X1070726Y72835D01*
X1065648D01*
X1063108Y70296D01*
X1088500Y72835D02*
X1078344D01*
Y65217D01*
X1083422Y67757D01*
X1085961D01*
X1088500Y65217D01*
Y60139D01*
X1085961Y57600D01*
X1080883D01*
X1078344Y60139D01*
X1093579Y57600D02*
Y60139D01*
X1096118D01*
Y57600D01*
X1093579D01*
X1116431D02*
X1106274D01*
X1116431Y67757D01*
Y70296D01*
X1113892Y72835D01*
X1108814D01*
X1106274Y70296D01*
X1121509D02*
X1124049Y72835D01*
X1129127D01*
X1131666Y70296D01*
Y60139D01*
X1129127Y57600D01*
X1124049D01*
X1121509Y60139D01*
Y70296D01*
X1136745Y57600D02*
Y67757D01*
X1139284D01*
X1141823Y65217D01*
Y57600D01*
Y65217D01*
X1144362Y67757D01*
X1146901Y65217D01*
Y57600D01*
X1151980D02*
X1157058D01*
X1154519D01*
Y67757D01*
X1151980D01*
X1164676Y57600D02*
X1169754D01*
X1167215D01*
Y72835D01*
X1164676D01*
X1177371Y57600D02*
X1182450Y62678D01*
Y67757D01*
X1177371Y72835D01*
X810704Y377635D02*
X820861D01*
Y375096D01*
X810704Y364939D01*
Y362400D01*
X825939D02*
X831018D01*
X828478D01*
Y377635D01*
X825939Y375096D01*
X820861Y339535D02*
X815782Y336996D01*
X810704Y331917D01*
Y326839D01*
X813243Y324300D01*
X818322D01*
X820861Y326839D01*
Y329378D01*
X818322Y331917D01*
X810704D01*
X820861Y286200D02*
X810704D01*
X820861Y296357D01*
Y298896D01*
X818322Y301435D01*
X813243D01*
X810704Y298896D01*
Y248100D02*
X815782D01*
X813243D01*
Y263335D01*
X810704Y260796D01*
X833557Y263335D02*
X828478Y260796D01*
X823400Y255718D01*
Y250639D01*
X825939Y248100D01*
X831018D01*
X833557Y250639D01*
Y253178D01*
X831018Y255718D01*
X823400D01*
X810704Y210000D02*
X815782D01*
X813243D01*
Y225235D01*
X810704Y222696D01*
X823400D02*
X825939Y225235D01*
X831018D01*
X833557Y222696D01*
Y212539D01*
X831018Y210000D01*
X825939D01*
X823400Y212539D01*
Y222696D01*
X820861Y171900D02*
X810704D01*
X820861Y182057D01*
Y184596D01*
X818322Y187135D01*
X813243D01*
X810704Y184596D01*
X820861Y133800D02*
X810704D01*
X820861Y143957D01*
Y146496D01*
X818322Y149035D01*
X813243D01*
X810704Y146496D01*
X820861Y95700D02*
X810704D01*
X820861Y105857D01*
Y108396D01*
X818322Y110935D01*
X813243D01*
X810704Y108396D01*
X820861Y57600D02*
X810704D01*
X820861Y67757D01*
Y70296D01*
X818322Y72835D01*
X813243D01*
X810704Y70296D01*
X1135721Y461D02*
X1145878D01*
X1135721Y5540D02*
X1145878D01*
X1166191Y-4617D02*
Y10618D01*
X1173809D01*
X1176348Y8079D01*
Y3001D01*
X1173809Y461D01*
X1166191D01*
X1171269D02*
X1176348Y-4617D01*
X1183965D02*
X1189044D01*
X1191583Y-2078D01*
Y3001D01*
X1189044Y5540D01*
X1183965D01*
X1181426Y3001D01*
Y-2078D01*
X1183965Y-4617D01*
X1196661Y5540D02*
Y-2078D01*
X1199200Y-4617D01*
X1206818D01*
Y5540D01*
X1214436Y8079D02*
Y5540D01*
X1211896D01*
X1216975D01*
X1214436D01*
Y-2078D01*
X1216975Y-4617D01*
X1232210D02*
X1227131D01*
X1224592Y-2078D01*
Y3001D01*
X1227131Y5540D01*
X1232210D01*
X1234749Y3001D01*
Y461D01*
X1224592D01*
X1249984Y10618D02*
Y-4617D01*
X1242366D01*
X1239827Y-2078D01*
Y3001D01*
X1242366Y5540D01*
X1249984D01*
X1270297Y-4617D02*
Y10618D01*
X1277915D01*
X1280454Y8079D01*
Y3001D01*
X1277915Y461D01*
X1270297D01*
X1288072Y5540D02*
X1293150D01*
X1295689Y3001D01*
Y-4617D01*
X1288072D01*
X1285533Y-2078D01*
X1288072Y461D01*
X1295689D01*
X1303307Y8079D02*
Y5540D01*
X1300768D01*
X1305846D01*
X1303307D01*
Y-2078D01*
X1305846Y-4617D01*
X1313463Y10618D02*
Y-4617D01*
Y3001D01*
X1316003Y5540D01*
X1321081D01*
X1323620Y3001D01*
Y-4617D01*
X1343934Y10618D02*
Y-4617D01*
X1354090D01*
X1366786D02*
X1361708D01*
X1359169Y-2078D01*
Y3001D01*
X1361708Y5540D01*
X1366786D01*
X1369325Y3001D01*
Y461D01*
X1359169D01*
X1374404Y-4617D02*
Y5540D01*
X1382021D01*
X1384560Y3001D01*
Y-4617D01*
X1394717Y-9695D02*
X1397256D01*
X1399796Y-7156D01*
Y5540D01*
X1392178D01*
X1389639Y3001D01*
Y-2078D01*
X1392178Y-4617D01*
X1399796D01*
X1407413Y8079D02*
Y5540D01*
X1404874D01*
X1409952D01*
X1407413D01*
Y-2078D01*
X1409952Y-4617D01*
X1417570Y10618D02*
Y-4617D01*
Y3001D01*
X1420109Y5540D01*
X1425187D01*
X1427726Y3001D01*
Y-4617D01*
X1448040Y3001D02*
X1458197D01*
X1453118Y8079D02*
Y-2078D01*
X1478510Y10618D02*
X1488667D01*
X1483588D01*
Y-4617D01*
X1496284D02*
X1501363D01*
X1503902Y-2078D01*
Y3001D01*
X1501363Y5540D01*
X1496284D01*
X1493745Y3001D01*
Y-2078D01*
X1496284Y-4617D01*
X1511519D02*
X1516598D01*
X1519137Y-2078D01*
Y3001D01*
X1516598Y5540D01*
X1511519D01*
X1508980Y3001D01*
Y-2078D01*
X1511519Y-4617D01*
X1524215D02*
X1529294D01*
X1526754D01*
Y10618D01*
X1524215D01*
X1562303Y8079D02*
X1559764Y10618D01*
X1554685D01*
X1552146Y8079D01*
Y5540D01*
X1554685Y3001D01*
X1559764D01*
X1562303Y461D01*
Y-2078D01*
X1559764Y-4617D01*
X1554685D01*
X1552146Y-2078D01*
X1567381Y-4617D02*
X1572460D01*
X1569921D01*
Y5540D01*
X1567381D01*
X1580077D02*
X1590234D01*
X1580077Y-4617D01*
X1590234D01*
X1602930D02*
X1597851D01*
X1595312Y-2078D01*
Y3001D01*
X1597851Y5540D01*
X1602930D01*
X1605469Y3001D01*
Y461D01*
X1595312D01*
X1625782D02*
X1635939D01*
X1625782Y5540D02*
X1635939D01*
X1666409Y8079D02*
X1663870Y10618D01*
X1658792D01*
X1656252Y8079D01*
Y5540D01*
X1658792Y3001D01*
X1663870D01*
X1666409Y461D01*
Y-2078D01*
X1663870Y-4617D01*
X1658792D01*
X1656252Y-2078D01*
X1671488Y-4617D02*
X1676566D01*
X1674027D01*
Y10618D01*
X1671488D01*
X1686723Y-4617D02*
X1691801D01*
X1694340Y-2078D01*
Y3001D01*
X1691801Y5540D01*
X1686723D01*
X1684184Y3001D01*
Y-2078D01*
X1686723Y-4617D01*
X1701958Y8079D02*
Y5540D01*
X1699418D01*
X1704497D01*
X1701958D01*
Y-2078D01*
X1704497Y-4617D01*
X1727350D02*
X1732428D01*
X1729889D01*
Y10618D01*
X1727350D01*
X1747663Y-4617D02*
X1742585D01*
X1740045Y-2078D01*
Y3001D01*
X1742585Y5540D01*
X1747663D01*
X1750202Y3001D01*
Y461D01*
X1740045D01*
X1755280Y-4617D02*
Y5540D01*
X1762898D01*
X1765437Y3001D01*
Y-4617D01*
X1775594Y-9695D02*
X1778133D01*
X1780672Y-7156D01*
Y5540D01*
X1773055D01*
X1770515Y3001D01*
Y-2078D01*
X1773055Y-4617D01*
X1780672D01*
X1788290Y8079D02*
Y5540D01*
X1785751D01*
X1790829D01*
X1788290D01*
Y-2078D01*
X1790829Y-4617D01*
X1798447Y10618D02*
Y-4617D01*
Y3001D01*
X1800986Y5540D01*
X1806064D01*
X1808603Y3001D01*
Y-4617D01*
X1831456Y5540D02*
X1836534D01*
X1839073Y3001D01*
Y-4617D01*
X1831456D01*
X1828917Y-2078D01*
X1831456Y461D01*
X1839073D01*
X1844152Y-4617D02*
X1851769D01*
X1854308Y-2078D01*
X1851769Y461D01*
X1846691D01*
X1844152Y3001D01*
X1846691Y5540D01*
X1854308D01*
X1884779Y10618D02*
Y-4617D01*
X1877161D01*
X1874622Y-2078D01*
Y3001D01*
X1877161Y5540D01*
X1884779D01*
X1897475Y-4617D02*
X1892396D01*
X1889857Y-2078D01*
Y3001D01*
X1892396Y5540D01*
X1897475D01*
X1900014Y3001D01*
Y461D01*
X1889857D01*
X1907631Y-4617D02*
Y8079D01*
Y3001D01*
X1905092D01*
X1910170D01*
X1907631D01*
Y8079D01*
X1910170Y10618D01*
X1917788Y-4617D02*
X1922866D01*
X1920327D01*
Y5540D01*
X1917788D01*
X1930484Y-4617D02*
Y5540D01*
X1938101D01*
X1940641Y3001D01*
Y-4617D01*
X1953336D02*
X1948258D01*
X1945719Y-2078D01*
Y3001D01*
X1948258Y5540D01*
X1953336D01*
X1955876Y3001D01*
Y461D01*
X1945719D01*
X1971111Y10618D02*
Y-4617D01*
X1963493D01*
X1960954Y-2078D01*
Y3001D01*
X1963493Y5540D01*
X1971111D01*
X1991424Y-4617D02*
X1996502D01*
X1993963D01*
Y5540D01*
X1991424D01*
X2004120Y-4617D02*
Y5540D01*
X2011738D01*
X2014277Y3001D01*
Y-4617D01*
X2037129Y8079D02*
Y5540D01*
X2034590D01*
X2039668D01*
X2037129D01*
Y-2078D01*
X2039668Y-4617D01*
X2047286Y10618D02*
Y-4617D01*
Y3001D01*
X2049825Y5540D01*
X2054904D01*
X2057443Y3001D01*
Y-4617D01*
X2070139D02*
X2065060D01*
X2062521Y-2078D01*
Y3001D01*
X2065060Y5540D01*
X2070139D01*
X2072678Y3001D01*
Y461D01*
X2062521D01*
X2092991Y-4617D02*
Y10618D01*
X2100609D01*
X2103148Y8079D01*
Y3001D01*
X2100609Y461D01*
X2092991D01*
X2118383Y8079D02*
X2115844Y10618D01*
X2110766D01*
X2108226Y8079D01*
Y-2078D01*
X2110766Y-4617D01*
X2115844D01*
X2118383Y-2078D01*
X2123461Y10618D02*
Y-4617D01*
X2131079D01*
X2133618Y-2078D01*
Y461D01*
X2131079Y3001D01*
X2123461D01*
X2131079D01*
X2133618Y5540D01*
Y8079D01*
X2131079Y10618D01*
X2123461D01*
X2153931Y-4617D02*
X2159010D01*
X2156471D01*
Y10618D01*
X2153931D01*
X2169167Y5540D02*
X2174245D01*
X2176784Y3001D01*
Y-4617D01*
X2169167D01*
X2166627Y-2078D01*
X2169167Y461D01*
X2176784D01*
X2181862Y5540D02*
Y-2078D01*
X2184402Y-4617D01*
X2192019D01*
Y-7156D01*
X2189480Y-9695D01*
X2186941D01*
X2192019Y-4617D02*
Y5540D01*
X2199637Y-4617D02*
X2204715D01*
X2207254Y-2078D01*
Y3001D01*
X2204715Y5540D01*
X2199637D01*
X2197097Y3001D01*
Y-2078D01*
X2199637Y-4617D01*
X2212333Y5540D02*
Y-2078D01*
X2214872Y-4617D01*
X2222489D01*
Y5540D01*
X2230107Y8079D02*
Y5540D01*
X2227568D01*
X2232646D01*
X2230107D01*
Y-2078D01*
X2232646Y-4617D01*
X1224592Y25855D02*
X1234749D01*
X1224592Y30933D02*
X1234749D01*
X1265219Y33472D02*
X1262680Y36012D01*
X1257601D01*
X1255062Y33472D01*
Y23316D01*
X1257601Y20777D01*
X1262680D01*
X1265219Y23316D01*
X1272837Y30933D02*
X1277915D01*
X1280454Y28394D01*
Y20777D01*
X1272837D01*
X1270297Y23316D01*
X1272837Y25855D01*
X1280454D01*
X1285533Y20777D02*
X1290611D01*
X1288072D01*
Y36012D01*
X1285533D01*
X1308385Y30933D02*
X1300768D01*
X1298228Y28394D01*
Y23316D01*
X1300768Y20777D01*
X1308385D01*
X1313463Y30933D02*
Y23316D01*
X1316003Y20777D01*
X1323620D01*
Y30933D01*
X1328698Y20777D02*
X1333777D01*
X1331238D01*
Y36012D01*
X1328698D01*
X1343934Y30933D02*
X1349012D01*
X1351551Y28394D01*
Y20777D01*
X1343934D01*
X1341394Y23316D01*
X1343934Y25855D01*
X1351551D01*
X1359169Y33472D02*
Y30933D01*
X1356629D01*
X1361708D01*
X1359169D01*
Y23316D01*
X1361708Y20777D01*
X1376943D02*
X1371864D01*
X1369325Y23316D01*
Y28394D01*
X1371864Y30933D01*
X1376943D01*
X1379482Y28394D01*
Y25855D01*
X1369325D01*
X1394717Y36012D02*
Y20777D01*
X1387100D01*
X1384560Y23316D01*
Y28394D01*
X1387100Y30933D01*
X1394717D01*
X1417570Y20777D02*
Y33472D01*
Y28394D01*
X1415031D01*
X1420109D01*
X1417570D01*
Y33472D01*
X1420109Y36012D01*
X1427726Y30933D02*
Y20777D01*
Y25855D01*
X1430266Y28394D01*
X1432805Y30933D01*
X1435344D01*
X1445501Y20777D02*
X1450579D01*
X1453118Y23316D01*
Y28394D01*
X1450579Y30933D01*
X1445501D01*
X1442961Y28394D01*
Y23316D01*
X1445501Y20777D01*
X1458197D02*
Y30933D01*
X1460736D01*
X1463275Y28394D01*
Y20777D01*
Y28394D01*
X1465814Y30933D01*
X1468353Y28394D01*
Y20777D01*
X1491206Y33472D02*
Y30933D01*
X1488667D01*
X1493745D01*
X1491206D01*
Y23316D01*
X1493745Y20777D01*
X1503902D02*
X1508980D01*
X1511519Y23316D01*
Y28394D01*
X1508980Y30933D01*
X1503902D01*
X1501363Y28394D01*
Y23316D01*
X1503902Y20777D01*
X1519137D02*
X1524215D01*
X1526754Y23316D01*
Y28394D01*
X1524215Y30933D01*
X1519137D01*
X1516598Y28394D01*
Y23316D01*
X1519137Y20777D01*
X1531833D02*
X1536911D01*
X1534372D01*
Y36012D01*
X1531833D01*
X1559764Y20777D02*
X1567381D01*
X1569920Y23316D01*
X1567381Y25855D01*
X1562303D01*
X1559764Y28394D01*
X1562303Y30933D01*
X1569920D01*
X1577538Y33472D02*
Y30933D01*
X1574999D01*
X1580077D01*
X1577538D01*
Y23316D01*
X1580077Y20777D01*
X1590234Y30933D02*
X1595312D01*
X1597851Y28394D01*
Y20777D01*
X1590234D01*
X1587695Y23316D01*
X1590234Y25855D01*
X1597851D01*
X1602930Y30933D02*
Y20777D01*
Y25855D01*
X1605469Y28394D01*
X1608008Y30933D01*
X1610547D01*
X1620704Y33472D02*
Y30933D01*
X1618165D01*
X1623243D01*
X1620704D01*
Y23316D01*
X1623243Y20777D01*
X1656252Y30933D02*
X1648635D01*
X1646096Y28394D01*
Y23316D01*
X1648635Y20777D01*
X1656252D01*
X1668948D02*
X1663870D01*
X1661331Y23316D01*
Y28394D01*
X1663870Y30933D01*
X1668948D01*
X1671488Y28394D01*
Y25855D01*
X1661331D01*
X1676566Y20777D02*
Y30933D01*
X1684183D01*
X1686723Y28394D01*
Y20777D01*
X1694340Y33472D02*
Y30933D01*
X1691801D01*
X1696879D01*
X1694340D01*
Y23316D01*
X1696879Y20777D01*
X1704497Y30933D02*
Y20777D01*
Y25855D01*
X1707036Y28394D01*
X1709575Y30933D01*
X1712114D01*
X1727350Y20777D02*
X1722271D01*
X1719732Y23316D01*
Y28394D01*
X1722271Y30933D01*
X1727350D01*
X1729889Y28394D01*
Y25855D01*
X1719732D01*
X1750202Y15698D02*
Y30933D01*
X1757820D01*
X1760359Y28394D01*
Y23316D01*
X1757820Y20777D01*
X1750202D01*
X1767976D02*
X1773055D01*
X1775594Y23316D01*
Y28394D01*
X1773055Y30933D01*
X1767976D01*
X1765437Y28394D01*
Y23316D01*
X1767976Y20777D01*
X1780672D02*
X1788290D01*
X1790829Y23316D01*
X1788290Y25855D01*
X1783211D01*
X1780672Y28394D01*
X1783211Y30933D01*
X1790829D01*
X1795907Y20777D02*
X1800986D01*
X1798447D01*
Y30933D01*
X1795907D01*
X1811142Y33472D02*
Y30933D01*
X1808603D01*
X1813681D01*
X1811142D01*
Y23316D01*
X1813681Y20777D01*
X1821299D02*
X1826377D01*
X1823838D01*
Y30933D01*
X1821299D01*
X1836534Y20777D02*
X1841613D01*
X1844152Y23316D01*
Y28394D01*
X1841613Y30933D01*
X1836534D01*
X1833995Y28394D01*
Y23316D01*
X1836534Y20777D01*
X1849230D02*
Y30933D01*
X1856848D01*
X1859387Y28394D01*
Y20777D01*
X1882239Y33472D02*
Y30933D01*
X1879700D01*
X1884778D01*
X1882239D01*
Y23316D01*
X1884778Y20777D01*
X1894935D02*
X1900014D01*
X1902553Y23316D01*
Y28394D01*
X1900014Y30933D01*
X1894935D01*
X1892396Y28394D01*
Y23316D01*
X1894935Y20777D01*
X1925405Y33472D02*
Y30933D01*
X1922866D01*
X1927945D01*
X1925405D01*
Y23316D01*
X1927945Y20777D01*
X1938101D02*
X1943180D01*
X1945719Y23316D01*
Y28394D01*
X1943180Y30933D01*
X1938101D01*
X1935562Y28394D01*
Y23316D01*
X1938101Y20777D01*
X1953336D02*
X1958415D01*
X1960954Y23316D01*
Y28394D01*
X1958415Y30933D01*
X1953336D01*
X1950797Y28394D01*
Y23316D01*
X1953336Y20777D01*
X1966032D02*
X1971111D01*
X1968571D01*
Y36012D01*
X1966032D01*
X2001581Y20777D02*
X1996502D01*
X1993963Y23316D01*
Y28394D01*
X1996502Y30933D01*
X2001581D01*
X2004120Y28394D01*
Y25855D01*
X1993963D01*
X2009198Y20777D02*
Y30933D01*
X2016816D01*
X2019355Y28394D01*
Y20777D01*
X2034590Y36012D02*
Y20777D01*
X2026973D01*
X2024433Y23316D01*
Y28394D01*
X2026973Y30933D01*
X2034590D01*
X2065060D02*
X2057443D01*
X2054904Y28394D01*
Y23316D01*
X2057443Y20777D01*
X2065060D01*
X2077756D02*
X2072678D01*
X2070139Y23316D01*
Y28394D01*
X2072678Y30933D01*
X2077756D01*
X2080295Y28394D01*
Y25855D01*
X2070139D01*
X2085374Y20777D02*
Y30933D01*
X2092991D01*
X2095530Y28394D01*
Y20777D01*
X2103148Y33472D02*
Y30933D01*
X2100609D01*
X2105687D01*
X2103148D01*
Y23316D01*
X2105687Y20777D01*
X2113305Y30933D02*
Y20777D01*
Y25855D01*
X2115844Y28394D01*
X2118383Y30933D01*
X2120922D01*
X2136157Y20777D02*
X2131079D01*
X2128540Y23316D01*
Y28394D01*
X2131079Y30933D01*
X2136157D01*
X2138696Y28394D01*
Y25855D01*
X2128540D01*
X2159010Y15698D02*
Y30933D01*
X2166627D01*
X2169167Y28394D01*
Y23316D01*
X2166627Y20777D01*
X2159010D01*
X2176784D02*
X2181862D01*
X2184402Y23316D01*
Y28394D01*
X2181862Y30933D01*
X2176784D01*
X2174245Y28394D01*
Y23316D01*
X2176784Y20777D01*
X2189480D02*
X2197097D01*
X2199637Y23316D01*
X2197097Y25855D01*
X2192019D01*
X2189480Y28394D01*
X2192019Y30933D01*
X2199637D01*
X2204715Y20777D02*
X2209793D01*
X2207254D01*
Y30933D01*
X2204715D01*
X2219950Y33472D02*
Y30933D01*
X2217411D01*
X2222489D01*
X2219950D01*
Y23316D01*
X2222489Y20777D01*
X2230107D02*
X2235185D01*
X2232646D01*
Y30933D01*
X2230107D01*
X2245342Y20777D02*
X2250420D01*
X2252959Y23316D01*
Y28394D01*
X2250420Y30933D01*
X2245342D01*
X2242803Y28394D01*
Y23316D01*
X2245342Y20777D01*
X2258038D02*
Y30933D01*
X2265655D01*
X2268194Y28394D01*
Y20777D01*
X2273273D02*
Y23316D01*
X2275812D01*
Y20777D01*
X2273273D01*
D98*
X78274Y614000D02*
G03*
X78274Y614000I-1524J0D01*
G01*
X79290D02*
G03*
X79290Y614000I-2540J0D01*
G01*
X91174Y614150D02*
G03*
X91174Y614150I-1524J0D01*
G01*
X92190D02*
G03*
X92190Y614150I-2540J0D01*
G01*
X309524Y385500D02*
G03*
X309524Y385500I-1524J0D01*
G01*
X310540D02*
G03*
X310540Y385500I-2540J0D01*
G01*
X300524Y709500D02*
G03*
X300524Y709500I-1524J0D01*
G01*
X301540D02*
G03*
X301540Y709500I-2540J0D01*
G01*
X53524Y700000D02*
G03*
X53524Y700000I-1524J0D01*
G01*
X54540D02*
G03*
X54540Y700000I-2540J0D01*
G01*
X318024Y703000D02*
G03*
X318024Y703000I-1524J0D01*
G01*
X319040D02*
G03*
X319040Y703000I-2540J0D01*
G01*
X317524Y714000D02*
G03*
X317524Y714000I-1524J0D01*
G01*
X318540D02*
G03*
X318540Y714000I-2540J0D01*
G01*
X557524Y977000D02*
G03*
X557524Y977000I-1524J0D01*
G01*
X558540D02*
G03*
X558540Y977000I-2540J0D01*
G01*
X549524Y982500D02*
G03*
X549524Y982500I-1524J0D01*
G01*
X550540D02*
G03*
X550540Y982500I-2540J0D01*
G01*
X449524Y916000D02*
G03*
X449524Y916000I-1524J0D01*
G01*
X450540D02*
G03*
X450540Y916000I-2540J0D01*
G01*
X540524Y906000D02*
G03*
X540524Y906000I-1524J0D01*
G01*
X541540D02*
G03*
X541540Y906000I-2540J0D01*
G01*
X410024Y945500D02*
G03*
X410024Y945500I-1524J0D01*
G01*
X411040D02*
G03*
X411040Y945500I-2540J0D01*
G01*
X410524Y985500D02*
G03*
X410524Y985500I-1524J0D01*
G01*
X411540D02*
G03*
X411540Y985500I-2540J0D01*
G01*
X102024Y240499D02*
G03*
X102024Y240499I-1524J0D01*
G01*
X103040D02*
G03*
X103040Y240499I-2540J0D01*
G01*
X266524Y720000D02*
G03*
X266524Y720000I-1524J0D01*
G01*
X267540D02*
G03*
X267540Y720000I-2540J0D01*
G01*
X259024Y463000D02*
G03*
X259024Y463000I-1524J0D01*
G01*
X260040D02*
G03*
X260040Y463000I-2540J0D01*
G01*
X302524Y399500D02*
G03*
X302524Y399500I-1524J0D01*
G01*
X303540D02*
G03*
X303540Y399500I-2540J0D01*
G01*
X304024Y374500D02*
G03*
X304024Y374500I-1524J0D01*
G01*
X305040D02*
G03*
X305040Y374500I-2540J0D01*
G01*
X351524Y387500D02*
G03*
X351524Y387500I-1524J0D01*
G01*
X352540D02*
G03*
X352540Y387500I-2540J0D01*
G01*
X215524Y338500D02*
G03*
X215524Y338500I-1524J0D01*
G01*
X216540D02*
G03*
X216540Y338500I-2540J0D01*
G01*
X138024Y815500D02*
G03*
X138024Y815500I-1524J0D01*
G01*
X139040D02*
G03*
X139040Y815500I-2540J0D01*
G01*
X106024Y815000D02*
G03*
X106024Y815000I-1524J0D01*
G01*
X107040D02*
G03*
X107040Y815000I-2540J0D01*
G01*
X129524Y834000D02*
G03*
X129524Y834000I-1524J0D01*
G01*
X130540D02*
G03*
X130540Y834000I-2540J0D01*
G01*
X49024Y834250D02*
G03*
X49024Y834250I-1524J0D01*
G01*
X50040D02*
G03*
X50040Y834250I-2540J0D01*
G01*
X85024Y834000D02*
G03*
X85024Y834000I-1524J0D01*
G01*
X86040D02*
G03*
X86040Y834000I-2540J0D01*
G01*
X251524Y452500D02*
G03*
X251524Y452500I-1524J0D01*
G01*
X252540D02*
G03*
X252540Y452500I-2540J0D01*
G01*
X450524Y867000D02*
G03*
X450524Y867000I-1524J0D01*
G01*
X451540D02*
G03*
X451540Y867000I-2540J0D01*
G01*
X95274Y448500D02*
G03*
X95274Y448500I-1524J0D01*
G01*
X96290D02*
G03*
X96290Y448500I-2540J0D01*
G01*
X118774Y192750D02*
G03*
X118774Y192750I-1524J0D01*
G01*
X119790D02*
G03*
X119790Y192750I-2540J0D01*
G01*
X360274Y830500D02*
G03*
X360274Y830500I-1524J0D01*
G01*
X361290D02*
G03*
X361290Y830500I-2540J0D01*
G01*
X373024Y816250D02*
G03*
X373024Y816250I-1524J0D01*
G01*
X374040D02*
G03*
X374040Y816250I-2540J0D01*
G01*
X499274Y425000D02*
G03*
X499274Y425000I-1524J0D01*
G01*
X500290D02*
G03*
X500290Y425000I-2540J0D01*
G01*
X352174Y336650D02*
G03*
X352174Y336650I-1524J0D01*
G01*
X353190D02*
G03*
X353190Y336650I-2540J0D01*
G01*
X352174Y349350D02*
G03*
X352174Y349350I-1524J0D01*
G01*
X353190D02*
G03*
X353190Y349350I-2540J0D01*
G01*
X147024Y448500D02*
G03*
X147024Y448500I-1524J0D01*
G01*
X148040D02*
G03*
X148040Y448500I-2540J0D01*
G01*
X70024Y970000D02*
G03*
X70024Y970000I-1524J0D01*
G01*
X71040D02*
G03*
X71040Y970000I-2540J0D01*
G01*
X103524Y971500D02*
G03*
X103524Y971500I-1524J0D01*
G01*
X104540D02*
G03*
X104540Y971500I-2540J0D01*
G01*
X194524Y949500D02*
G03*
X194524Y949500I-1524J0D01*
G01*
X195540D02*
G03*
X195540Y949500I-2540J0D01*
G01*
X225024Y440000D02*
G03*
X225024Y440000I-1524J0D01*
G01*
X226040D02*
G03*
X226040Y440000I-2540J0D01*
G01*
X299374Y412850D02*
G03*
X299374Y412850I-1524J0D01*
G01*
X300390D02*
G03*
X300390Y412850I-2540J0D01*
G01*
X570524Y279000D02*
G03*
X570524Y279000I-1524J0D01*
G01*
X571540D02*
G03*
X571540Y279000I-2540J0D01*
G01*
X532024Y310500D02*
G03*
X532024Y310500I-1524J0D01*
G01*
X533040D02*
G03*
X533040Y310500I-2540J0D01*
G01*
X397374Y400150D02*
G03*
X397374Y400150I-1524J0D01*
G01*
X398390D02*
G03*
X398390Y400150I-2540J0D01*
G01*
X238524Y201000D02*
G03*
X238524Y201000I-1524J0D01*
G01*
X239540D02*
G03*
X239540Y201000I-2540J0D01*
G01*
X238024Y211500D02*
G03*
X238024Y211500I-1524J0D01*
G01*
X239040D02*
G03*
X239040Y211500I-2540J0D01*
G01*
X96524Y717000D02*
G03*
X96524Y717000I-1524J0D01*
G01*
X97540D02*
G03*
X97540Y717000I-2540J0D01*
G01*
X73024Y783000D02*
G03*
X73024Y783000I-1524J0D01*
G01*
X74040D02*
G03*
X74040Y783000I-2540J0D01*
G01*
X117024D02*
G03*
X117024Y783000I-1524J0D01*
G01*
X118040D02*
G03*
X118040Y783000I-2540J0D01*
G01*
X95024D02*
G03*
X95024Y783000I-1524J0D01*
G01*
X96040D02*
G03*
X96040Y783000I-2540J0D01*
G01*
X161524Y706500D02*
G03*
X161524Y706500I-1524J0D01*
G01*
X162540D02*
G03*
X162540Y706500I-2540J0D01*
G01*
X161524Y717750D02*
G03*
X161524Y717750I-1524J0D01*
G01*
X162540D02*
G03*
X162540Y717750I-2540J0D01*
G01*
X161524Y729000D02*
G03*
X161524Y729000I-1524J0D01*
G01*
X162540D02*
G03*
X162540Y729000I-2540J0D01*
G01*
X348024Y706500D02*
G03*
X348024Y706500I-1524J0D01*
G01*
X349040D02*
G03*
X349040Y706500I-2540J0D01*
G01*
X356524Y694500D02*
G03*
X356524Y694500I-1524J0D01*
G01*
X357540D02*
G03*
X357540Y694500I-2540J0D01*
G01*
X479024Y932000D02*
G03*
X479024Y932000I-1524J0D01*
G01*
X480040D02*
G03*
X480040Y932000I-2540J0D01*
G01*
X299524Y719500D02*
G03*
X299524Y719500I-1524J0D01*
G01*
X300540D02*
G03*
X300540Y719500I-2540J0D01*
G01*
X552024Y837000D02*
G03*
X552024Y837000I-1524J0D01*
G01*
X553040D02*
G03*
X553040Y837000I-2540J0D01*
G01*
X350524Y463000D02*
G03*
X350524Y463000I-1524J0D01*
G01*
X351540D02*
G03*
X351540Y463000I-2540J0D01*
G01*
X351524Y450950D02*
G03*
X351524Y450950I-1524J0D01*
G01*
X352540D02*
G03*
X352540Y450950I-2540J0D01*
G01*
X101524Y550000D02*
G03*
X101524Y550000I-1524J0D01*
G01*
X102540D02*
G03*
X102540Y550000I-2540J0D01*
G01*
X141524D02*
G03*
X141524Y550000I-1524J0D01*
G01*
X142540D02*
G03*
X142540Y550000I-2540J0D01*
G01*
X61524Y834500D02*
G03*
X61524Y834500I-1524J0D01*
G01*
X62540D02*
G03*
X62540Y834500I-2540J0D01*
G01*
X336523Y719999D02*
G03*
X336523Y719999I-1524J0D01*
G01*
X337539D02*
G03*
X337539Y719999I-2540J0D01*
G01*
X373024Y921000D02*
G03*
X373024Y921000I-1524J0D01*
G01*
X374040D02*
G03*
X374040Y921000I-2540J0D01*
G01*
X366524Y900000D02*
G03*
X366524Y900000I-1524J0D01*
G01*
X367540D02*
G03*
X367540Y900000I-2540J0D01*
G01*
X394024Y922500D02*
G03*
X394024Y922500I-1524J0D01*
G01*
X395040D02*
G03*
X395040Y922500I-2540J0D01*
G01*
X97524Y736000D02*
G03*
X97524Y736000I-1524J0D01*
G01*
X98540D02*
G03*
X98540Y736000I-2540J0D01*
G01*
X115524Y601000D02*
G03*
X115524Y601000I-1524J0D01*
G01*
X116540D02*
G03*
X116540Y601000I-2540J0D01*
G01*
X269524Y647000D02*
G03*
X269524Y647000I-1524J0D01*
G01*
X270540D02*
G03*
X270540Y647000I-2540J0D01*
G01*
X230524Y630000D02*
G03*
X230524Y630000I-1524J0D01*
G01*
X231540D02*
G03*
X231540Y630000I-2540J0D01*
G01*
X125524Y652000D02*
G03*
X125524Y652000I-1524J0D01*
G01*
X126540D02*
G03*
X126540Y652000I-2540J0D01*
G01*
X256040Y919000D02*
G03*
X256040Y919000I-2540J0D01*
G01*
X330040Y956200D02*
G03*
X330040Y956200I-2540J0D01*
G01*
Y930800D02*
G03*
X330040Y930800I-2540J0D01*
G01*
X275040D02*
G03*
X275040Y930800I-2540J0D01*
G01*
Y956200D02*
G03*
X275040Y956200I-2540J0D01*
G01*
X277540Y204000D02*
G03*
X277540Y204000I-2540J0D01*
G01*
X327540D02*
G03*
X327540Y204000I-2540J0D01*
G01*
Y59000D02*
G03*
X327540Y59000I-2540J0D01*
G01*
X302540D02*
G03*
X302540Y59000I-2540J0D01*
G01*
X277540D02*
G03*
X277540Y59000I-2540J0D01*
G01*
X297460Y859460D02*
X300000Y860730D01*
X302540Y859460D01*
X301270Y862000D02*
X302540Y859460D01*
X301270Y862000D02*
X302540Y864540D01*
X300000Y863270D02*
X302540Y864540D01*
X297460D02*
X300000Y863270D01*
X297460Y864540D02*
X298730Y862000D01*
X297460Y859460D02*
X298730Y862000D01*
X297460Y285460D02*
X300000Y286730D01*
X302540Y285460D01*
X301270Y288000D02*
X302540Y285460D01*
X301270Y288000D02*
X302540Y290540D01*
X300000Y289270D02*
X302540Y290540D01*
X297460D02*
X300000Y289270D01*
X297460Y290540D02*
X298730Y288000D01*
X297460Y285460D02*
X298730Y288000D01*
X33260Y477230D02*
X34530D01*
X33260D02*
Y479770D01*
X34530D01*
Y481040D01*
X37070D01*
Y479770D02*
Y481040D01*
Y479770D02*
X38340D01*
Y477230D02*
Y479770D01*
X37070Y477230D02*
X38340D01*
X37070Y475960D02*
Y477230D01*
X34530Y475960D02*
X37070D01*
X34530D02*
Y477230D01*
X33260Y350230D02*
X34530D01*
X33260D02*
Y352770D01*
X34530D01*
Y354040D01*
X37070D01*
Y352770D02*
Y354040D01*
Y352770D02*
X38340D01*
Y350230D02*
Y352770D01*
X37070Y350230D02*
X38340D01*
X37070Y348960D02*
Y350230D01*
X34530Y348960D02*
X37070D01*
X34530D02*
Y350230D01*
X382730Y246210D02*
X385270Y243670D01*
X387810Y246210D01*
X385270Y248750D02*
X387810Y246210D01*
X382730D02*
X385270Y248750D01*
X391710Y237230D02*
X394250Y234690D01*
X396790Y237230D01*
X394250Y239770D02*
X396790Y237230D01*
X391710D02*
X394250Y239770D01*
X400690Y228249D02*
X403231Y225709D01*
X405770Y228249D01*
X403231Y230790D02*
X405770Y228249D01*
X400690D02*
X403231Y230790D01*
X409671Y219269D02*
X412211Y216729D01*
X414751Y219269D01*
X412211Y221809D02*
X414751Y219269D01*
X409671D02*
X412211Y221809D01*
X382730Y22000D02*
X385270Y19460D01*
X387810Y22000D01*
X385270Y24540D02*
X387810Y22000D01*
X382730D02*
X385270Y24540D01*
X391710Y30980D02*
X394250Y28440D01*
X396790Y30980D01*
X394250Y33520D02*
X396790Y30980D01*
X391710D02*
X394250Y33520D01*
X400690Y39960D02*
X403231Y37420D01*
X405770Y39960D01*
X403231Y42501D02*
X405770Y39960D01*
X400690D02*
X403231Y42501D01*
X409671Y48941D02*
X412211Y46401D01*
X414751Y48941D01*
X412211Y51481D02*
X414751Y48941D01*
X409671D02*
X412211Y51481D01*
X212170Y22000D02*
X214710Y19460D01*
X217250Y22000D01*
X214710Y24540D02*
X217250Y22000D01*
X212170D02*
X214710Y24540D01*
X203190Y30980D02*
X205730Y28440D01*
X208270Y30980D01*
X205730Y33520D02*
X208270Y30980D01*
X203190D02*
X205730Y33520D01*
X194209Y39960D02*
X196749Y37420D01*
X199289Y39960D01*
X196749Y42501D02*
X199289Y39960D01*
X194209D02*
X196749Y42501D01*
X185229Y48941D02*
X187769Y46401D01*
X190309Y48941D01*
X187769Y51481D02*
X190309Y48941D01*
X185229D02*
X187769Y51481D01*
X212170Y246210D02*
X214710Y243671D01*
X217250Y246210D01*
X214710Y248750D02*
X217250Y246210D01*
X212170D02*
X214710Y248750D01*
X203190Y237230D02*
X205730Y234690D01*
X208270Y237230D01*
X205730Y239770D02*
X208270Y237230D01*
X203190D02*
X205730Y239770D01*
X194209Y228250D02*
X196749Y225710D01*
X199289Y228250D01*
X196749Y230790D02*
X199289Y228250D01*
X194209D02*
X196749Y230790D01*
X185229Y219270D02*
X187769Y216730D01*
X190309Y219270D01*
X187769Y221810D02*
X190309Y219270D01*
X185229D02*
X187769Y221810D01*
X297460Y921960D02*
Y923230D01*
X298730Y924500D01*
X297460Y925770D02*
X298730Y924500D01*
X297460Y925770D02*
Y927040D01*
X298730D01*
X300000Y925770D01*
X301270Y927040D01*
X302540D01*
Y925770D02*
Y927040D01*
X301270Y924500D02*
X302540Y925770D01*
X301270Y924500D02*
X302540Y923230D01*
Y921960D02*
Y923230D01*
X301270Y921960D02*
X302540D01*
X300000Y923230D02*
X301270Y921960D01*
X298730D02*
X300000Y923230D01*
X297460Y921960D02*
X298730D01*
X297460Y959960D02*
Y961230D01*
X298730Y962500D01*
X297460Y963770D02*
X298730Y962500D01*
X297460Y963770D02*
Y965040D01*
X298730D01*
X300000Y963770D01*
X301270Y965040D01*
X302540D01*
Y963770D02*
Y965040D01*
X301270Y962500D02*
X302540Y963770D01*
X301270Y962500D02*
X302540Y961230D01*
Y959960D02*
Y961230D01*
X301270Y959960D02*
X302540D01*
X300000Y961230D02*
X301270Y959960D01*
X298730D02*
X300000Y961230D01*
X297460Y959960D02*
X298730D01*
X490730Y46730D02*
X492000Y45460D01*
X489460Y46730D02*
X490730D01*
X489460D02*
X490730Y48000D01*
X489460Y49270D02*
X490730Y48000D01*
X489460Y49270D02*
X490730D01*
X492000Y50540D01*
X493270Y49270D01*
X494540D01*
X493270Y48000D02*
X494540Y49270D01*
X493270Y48000D02*
X494540Y46730D01*
X493270D02*
X494540D01*
X492000Y45460D02*
X493270Y46730D01*
X490730Y76730D02*
X492000Y75460D01*
X489460Y76730D02*
X490730D01*
X489460D02*
X490730Y78000D01*
X489460Y79270D02*
X490730Y78000D01*
X489460Y79270D02*
X490730D01*
X492000Y80540D01*
X493270Y79270D01*
X494540D01*
X493270Y78000D02*
X494540Y79270D01*
X493270Y78000D02*
X494540Y76730D01*
X493270D02*
X494540D01*
X492000Y75460D02*
X493270Y76730D01*
X242460Y131460D02*
X247540D01*
Y136540D01*
X242460D02*
X247540D01*
X242460Y131460D02*
Y136540D01*
X352460Y131460D02*
X357540D01*
Y136540D01*
X352460D02*
X357540D01*
X352460Y131460D02*
Y136540D01*
X569000Y199460D02*
X571540Y204540D01*
X566460D02*
X571540D01*
X566460D02*
X569000Y199460D01*
Y186960D02*
X571540Y192040D01*
X566460D02*
X571540D01*
X566460D02*
X569000Y186960D01*
Y174460D02*
X571540Y179540D01*
X566460D02*
X571540D01*
X566460D02*
X569000Y174460D01*
Y161960D02*
X571540Y167040D01*
X566460D02*
X571540D01*
X566460D02*
X569000Y161960D01*
Y149460D02*
X571540Y154540D01*
X566460D02*
X571540D01*
X566460D02*
X569000Y149460D01*
Y136960D02*
X571540Y142040D01*
X566460D02*
X571540D01*
X566460D02*
X569000Y136960D01*
D99*
X659352Y389070D02*
X1525268D01*
X659352Y46170D02*
X1525268D01*
Y427170D01*
X659352D02*
X1525268D01*
X659352Y46170D02*
Y427170D01*
X1327452Y46170D02*
Y427170D01*
X1198960Y46170D02*
Y427170D01*
X909484Y46170D02*
Y427170D01*
X799274Y46170D02*
Y427170D01*
D100*
X1338882Y418782D02*
Y400500D01*
Y409641D01*
X1351070D01*
Y418782D01*
Y400500D01*
X1360211D02*
X1366305D01*
X1369352Y403547D01*
Y409641D01*
X1366305Y412688D01*
X1360211D01*
X1357164Y409641D01*
Y403547D01*
X1360211Y400500D01*
X1375446D02*
X1381540D01*
X1378493D01*
Y418782D01*
X1375446D01*
X1399823Y400500D02*
X1393728D01*
X1390681Y403547D01*
Y409641D01*
X1393728Y412688D01*
X1399823D01*
X1402870Y409641D01*
Y406594D01*
X1390681D01*
X1427246Y418782D02*
X1439434D01*
X1433340D01*
Y400500D01*
X1445528Y412688D02*
Y403547D01*
X1448575Y400500D01*
X1457716D01*
Y397453D01*
X1454669Y394406D01*
X1451622D01*
X1457716Y400500D02*
Y412688D01*
X1463810Y394406D02*
Y412688D01*
X1472951D01*
X1475998Y409641D01*
Y403547D01*
X1472951Y400500D01*
X1463810D01*
X1491233D02*
X1485139D01*
X1482092Y403547D01*
Y409641D01*
X1485139Y412688D01*
X1491233D01*
X1494280Y409641D01*
Y406594D01*
X1482092D01*
X1210390Y400500D02*
Y418782D01*
X1219531D01*
X1222578Y415735D01*
Y409641D01*
X1219531Y406594D01*
X1210390D01*
X1228672Y400500D02*
X1234766D01*
X1231719D01*
Y418782D01*
X1228672D01*
X1246954Y412688D02*
X1253048D01*
X1256095Y409641D01*
Y400500D01*
X1246954D01*
X1243907Y403547D01*
X1246954Y406594D01*
X1256095D01*
X1265236Y415735D02*
Y412688D01*
X1262189D01*
X1268283D01*
X1265236D01*
Y403547D01*
X1268283Y400500D01*
X1286565D02*
X1280471D01*
X1277424Y403547D01*
Y409641D01*
X1280471Y412688D01*
X1286565D01*
X1289612Y409641D01*
Y406594D01*
X1277424D01*
X1307894Y418782D02*
Y400500D01*
X1298753D01*
X1295706Y403547D01*
Y409641D01*
X1298753Y412688D01*
X1307894D01*
X920914Y418782D02*
Y400500D01*
Y409641D01*
X933102D01*
Y418782D01*
Y400500D01*
X942243D02*
X948338D01*
X951385Y403547D01*
Y409641D01*
X948338Y412688D01*
X942243D01*
X939196Y409641D01*
Y403547D01*
X942243Y400500D01*
X957479D02*
X963573D01*
X960526D01*
Y418782D01*
X957479D01*
X981855Y400500D02*
X975761D01*
X972714Y403547D01*
Y409641D01*
X975761Y412688D01*
X981855D01*
X984902Y409641D01*
Y406594D01*
X972714D01*
X1021466Y415735D02*
X1018419Y418782D01*
X1012325D01*
X1009278Y415735D01*
Y412688D01*
X1012325Y409641D01*
X1018419D01*
X1021466Y406594D01*
Y403547D01*
X1018419Y400500D01*
X1012325D01*
X1009278Y403547D01*
X1027560Y400500D02*
X1033654D01*
X1030607D01*
Y412688D01*
X1027560D01*
X1042795D02*
X1054983D01*
X1042795Y400500D01*
X1054983D01*
X1070218D02*
X1064124D01*
X1061077Y403547D01*
Y409641D01*
X1064124Y412688D01*
X1070218D01*
X1073265Y409641D01*
Y406594D01*
X1061077D01*
X822892Y415735D02*
X819845Y418782D01*
X813751D01*
X810704Y415735D01*
Y403547D01*
X813751Y400500D01*
X819845D01*
X822892Y403547D01*
X832033Y400500D02*
X838127D01*
X841174Y403547D01*
Y409641D01*
X838127Y412688D01*
X832033D01*
X828986Y409641D01*
Y403547D01*
X832033Y400500D01*
X847268Y412688D02*
Y403547D01*
X850315Y400500D01*
X859456D01*
Y412688D01*
X865550Y400500D02*
Y412688D01*
X874691D01*
X877738Y409641D01*
Y400500D01*
X886879Y415735D02*
Y412688D01*
X883832D01*
X889926D01*
X886879D01*
Y403547D01*
X889926Y400500D01*
X694400Y415735D02*
X691353Y418782D01*
X685259D01*
X682212Y415735D01*
Y412688D01*
X685259Y409641D01*
X691353D01*
X694400Y406594D01*
Y403547D01*
X691353Y400500D01*
X685259D01*
X682212Y403547D01*
X700494Y412688D02*
Y403547D01*
X703541Y400500D01*
X712682D01*
Y397453D01*
X709635Y394406D01*
X706588D01*
X712682Y400500D02*
Y412688D01*
X718776Y400500D02*
Y412688D01*
X721823D01*
X724870Y409641D01*
Y400500D01*
Y409641D01*
X727917Y412688D01*
X730964Y409641D01*
Y400500D01*
X737058Y418782D02*
Y400500D01*
X746199D01*
X749246Y403547D01*
Y406594D01*
Y409641D01*
X746199Y412688D01*
X737058D01*
X758387Y400500D02*
X764481D01*
X767528Y403547D01*
Y409641D01*
X764481Y412688D01*
X758387D01*
X755340Y409641D01*
Y403547D01*
X758387Y400500D01*
X773622D02*
X779716D01*
X776669D01*
Y418782D01*
X773622D01*
D101*
X944515Y10618D02*
Y-4617D01*
Y3001D01*
X954671D01*
Y10618D01*
Y-4617D01*
X962289D02*
X967367D01*
X969907Y-2078D01*
Y3001D01*
X967367Y5540D01*
X962289D01*
X959750Y3001D01*
Y-2078D01*
X962289Y-4617D01*
X974985D02*
X980063D01*
X977524D01*
Y10618D01*
X974985D01*
X995298Y-4617D02*
X990220D01*
X987681Y-2078D01*
Y3001D01*
X990220Y5540D01*
X995298D01*
X997838Y3001D01*
Y461D01*
X987681D01*
X1018151Y10618D02*
Y-4617D01*
X1028308D01*
X1041004D02*
X1035925D01*
X1033386Y-2078D01*
Y3001D01*
X1035925Y5540D01*
X1041004D01*
X1043543Y3001D01*
Y461D01*
X1033386D01*
X1048621Y-4617D02*
Y5540D01*
X1056239D01*
X1058778Y3001D01*
Y-4617D01*
X1068934Y-9695D02*
X1071474D01*
X1074013Y-7156D01*
Y5540D01*
X1066395D01*
X1063856Y3001D01*
Y-2078D01*
X1066395Y-4617D01*
X1074013D01*
X1081630Y8079D02*
Y5540D01*
X1079091D01*
X1084170D01*
X1081630D01*
Y-2078D01*
X1084170Y-4617D01*
X1091787Y10618D02*
Y-4617D01*
Y3001D01*
X1094326Y5540D01*
X1099405D01*
X1101944Y3001D01*
Y-4617D01*
X944515Y20777D02*
Y36012D01*
X952132D01*
X954671Y33472D01*
Y28394D01*
X952132Y25855D01*
X944515D01*
X949593D02*
X954671Y20777D01*
X962289D02*
X967367D01*
X969907Y23316D01*
Y28394D01*
X967367Y30933D01*
X962289D01*
X959750Y28394D01*
Y23316D01*
X962289Y20777D01*
X974985Y30933D02*
Y23316D01*
X977524Y20777D01*
X985142D01*
Y30933D01*
X992759Y33472D02*
Y30933D01*
X990220D01*
X995298D01*
X992759D01*
Y23316D01*
X995298Y20777D01*
X1010533D02*
X1005455D01*
X1002916Y23316D01*
Y28394D01*
X1005455Y30933D01*
X1010533D01*
X1013073Y28394D01*
Y25855D01*
X1002916D01*
X1028308Y36012D02*
Y20777D01*
X1020690D01*
X1018151Y23316D01*
Y28394D01*
X1020690Y30933D01*
X1028308D01*
X1048621Y20777D02*
Y36012D01*
X1056239D01*
X1058778Y33472D01*
Y28394D01*
X1056239Y25855D01*
X1048621D01*
X1066395Y30933D02*
X1071474D01*
X1074013Y28394D01*
Y20777D01*
X1066395D01*
X1063856Y23316D01*
X1066395Y25855D01*
X1074013D01*
X1081630Y33472D02*
Y30933D01*
X1079091D01*
X1084170D01*
X1081630D01*
Y23316D01*
X1084170Y20777D01*
X1091787Y36012D02*
Y20777D01*
Y28394D01*
X1094326Y30933D01*
X1099405D01*
X1101944Y28394D01*
Y20777D01*
X1122257Y36012D02*
Y20777D01*
X1132414D01*
X1145110D02*
X1140032D01*
X1137492Y23316D01*
Y28394D01*
X1140032Y30933D01*
X1145110D01*
X1147649Y28394D01*
Y25855D01*
X1137492D01*
X1152727Y20777D02*
Y30933D01*
X1160345D01*
X1162884Y28394D01*
Y20777D01*
X1173041Y15698D02*
X1175580D01*
X1178119Y18237D01*
Y30933D01*
X1170502D01*
X1167962Y28394D01*
Y23316D01*
X1170502Y20777D01*
X1178119D01*
X1185737Y33472D02*
Y30933D01*
X1183198D01*
X1188276D01*
X1185737D01*
Y23316D01*
X1188276Y20777D01*
X1195893Y36012D02*
Y20777D01*
Y28394D01*
X1198433Y30933D01*
X1203511D01*
X1206050Y28394D01*
Y20777D01*
X692368Y33472D02*
X689829Y36012D01*
X684751D01*
X682212Y33472D01*
Y30933D01*
X684751Y28394D01*
X689829D01*
X692368Y25855D01*
Y23316D01*
X689829Y20777D01*
X684751D01*
X682212Y23316D01*
X697447Y20777D02*
X702525D01*
X699986D01*
Y36012D01*
X697447D01*
X712682Y20777D02*
X717760D01*
X720299Y23316D01*
Y28394D01*
X717760Y30933D01*
X712682D01*
X710143Y28394D01*
Y23316D01*
X712682Y20777D01*
X727917Y33472D02*
Y30933D01*
X725378D01*
X730456D01*
X727917D01*
Y23316D01*
X730456Y20777D01*
X763465Y36012D02*
Y20777D01*
X755848D01*
X753309Y23316D01*
Y28394D01*
X755848Y30933D01*
X763465D01*
X776161Y20777D02*
X771083D01*
X768544Y23316D01*
Y28394D01*
X771083Y30933D01*
X776161D01*
X778700Y28394D01*
Y25855D01*
X768544D01*
X786318Y20777D02*
Y33472D01*
Y28394D01*
X783779D01*
X788857D01*
X786318D01*
Y33472D01*
X788857Y36012D01*
X796475Y20777D02*
X801553D01*
X799014D01*
Y30933D01*
X796475D01*
X809171Y20777D02*
Y30933D01*
X816788D01*
X819327Y28394D01*
Y20777D01*
X824406D02*
X829484D01*
X826945D01*
Y30933D01*
X824406D01*
X839641Y33472D02*
Y30933D01*
X837102D01*
X842180D01*
X839641D01*
Y23316D01*
X842180Y20777D01*
X849797D02*
X854876D01*
X852337D01*
Y30933D01*
X849797D01*
X865033Y20777D02*
X870111D01*
X872650Y23316D01*
Y28394D01*
X870111Y30933D01*
X865033D01*
X862493Y28394D01*
Y23316D01*
X865033Y20777D01*
X877728D02*
Y30933D01*
X885346D01*
X887885Y28394D01*
Y20777D01*
X892963D02*
X900581D01*
X903120Y23316D01*
X900581Y25855D01*
X895503D01*
X892963Y28394D01*
X895503Y30933D01*
X903120D01*
X923434D02*
X925973D01*
Y28394D01*
X923434D01*
Y30933D01*
Y23316D02*
X925973D01*
Y20777D01*
X923434D01*
Y23316D01*
M02*
