G04 Layer_Physical_Order=1*
G04 Layer_Color=255*
%FSLAX44Y44*%
%MOMM*%
G71*
G01*
G75*
G04:AMPARAMS|DCode=10|XSize=1mm|YSize=0.9mm|CornerRadius=0.1125mm|HoleSize=0mm|Usage=FLASHONLY|Rotation=270.000|XOffset=0mm|YOffset=0mm|HoleType=Round|Shape=RoundedRectangle|*
%AMROUNDEDRECTD10*
21,1,1.0000,0.6750,0,0,270.0*
21,1,0.7750,0.9000,0,0,270.0*
1,1,0.2250,-0.3375,-0.3875*
1,1,0.2250,-0.3375,0.3875*
1,1,0.2250,0.3375,0.3875*
1,1,0.2250,0.3375,-0.3875*
%
%ADD10ROUNDEDRECTD10*%
%ADD11R,0.7000X1.2000*%
%ADD12R,1.0000X1.2000*%
%ADD13R,1.0000X0.8000*%
%ADD14R,1.0000X2.8000*%
%ADD15R,1.3000X1.9000*%
%ADD16R,1.1430X2.2860*%
%ADD17R,0.3000X1.3000*%
%ADD18R,1.8000X2.2000*%
%ADD19R,3.0500X1.5200*%
G04:AMPARAMS|DCode=20|XSize=2.45mm|YSize=2.55mm|CornerRadius=0.245mm|HoleSize=0mm|Usage=FLASHONLY|Rotation=90.000|XOffset=0mm|YOffset=0mm|HoleType=Round|Shape=RoundedRectangle|*
%AMROUNDEDRECTD20*
21,1,2.4500,2.0600,0,0,90.0*
21,1,1.9600,2.5500,0,0,90.0*
1,1,0.4900,1.0300,0.9800*
1,1,0.4900,1.0300,-0.9800*
1,1,0.4900,-1.0300,-0.9800*
1,1,0.4900,-1.0300,0.9800*
%
%ADD20ROUNDEDRECTD20*%
G04:AMPARAMS|DCode=21|XSize=1.8mm|YSize=1.2mm|CornerRadius=0.15mm|HoleSize=0mm|Usage=FLASHONLY|Rotation=180.000|XOffset=0mm|YOffset=0mm|HoleType=Round|Shape=RoundedRectangle|*
%AMROUNDEDRECTD21*
21,1,1.8000,0.9000,0,0,180.0*
21,1,1.5000,1.2000,0,0,180.0*
1,1,0.3000,-0.7500,0.4500*
1,1,0.3000,0.7500,0.4500*
1,1,0.3000,0.7500,-0.4500*
1,1,0.3000,-0.7500,-0.4500*
%
%ADD21ROUNDEDRECTD21*%
%ADD22R,1.5500X2.6000*%
G04:AMPARAMS|DCode=23|XSize=1.4mm|YSize=1mm|CornerRadius=0.125mm|HoleSize=0mm|Usage=FLASHONLY|Rotation=270.000|XOffset=0mm|YOffset=0mm|HoleType=Round|Shape=RoundedRectangle|*
%AMROUNDEDRECTD23*
21,1,1.4000,0.7500,0,0,270.0*
21,1,1.1500,1.0000,0,0,270.0*
1,1,0.2500,-0.3750,-0.5750*
1,1,0.2500,-0.3750,0.5750*
1,1,0.2500,0.3750,0.5750*
1,1,0.2500,0.3750,-0.5750*
%
%ADD23ROUNDEDRECTD23*%
G04:AMPARAMS|DCode=24|XSize=1mm|YSize=0.9mm|CornerRadius=0.1125mm|HoleSize=0mm|Usage=FLASHONLY|Rotation=0.000|XOffset=0mm|YOffset=0mm|HoleType=Round|Shape=RoundedRectangle|*
%AMROUNDEDRECTD24*
21,1,1.0000,0.6750,0,0,0.0*
21,1,0.7750,0.9000,0,0,0.0*
1,1,0.2250,0.3875,-0.3375*
1,1,0.2250,-0.3875,-0.3375*
1,1,0.2250,-0.3875,0.3375*
1,1,0.2250,0.3875,0.3375*
%
%ADD24ROUNDEDRECTD24*%
%ADD25R,1.0000X1.5000*%
%ADD26R,2.2500X1.0000*%
G04:AMPARAMS|DCode=27|XSize=0.6mm|YSize=1.1mm|CornerRadius=0.075mm|HoleSize=0mm|Usage=FLASHONLY|Rotation=180.000|XOffset=0mm|YOffset=0mm|HoleType=Round|Shape=RoundedRectangle|*
%AMROUNDEDRECTD27*
21,1,0.6000,0.9500,0,0,180.0*
21,1,0.4500,1.1000,0,0,180.0*
1,1,0.1500,-0.2250,0.4750*
1,1,0.1500,0.2250,0.4750*
1,1,0.1500,0.2250,-0.4750*
1,1,0.1500,-0.2250,-0.4750*
%
%ADD27ROUNDEDRECTD27*%
G04:AMPARAMS|DCode=28|XSize=0.6mm|YSize=1mm|CornerRadius=0.075mm|HoleSize=0mm|Usage=FLASHONLY|Rotation=270.000|XOffset=0mm|YOffset=0mm|HoleType=Round|Shape=RoundedRectangle|*
%AMROUNDEDRECTD28*
21,1,0.6000,0.8500,0,0,270.0*
21,1,0.4500,1.0000,0,0,270.0*
1,1,0.1500,-0.4250,-0.2250*
1,1,0.1500,-0.4250,0.2250*
1,1,0.1500,0.4250,0.2250*
1,1,0.1500,0.4250,-0.2250*
%
%ADD28ROUNDEDRECTD28*%
G04:AMPARAMS|DCode=29|XSize=0.6mm|YSize=1mm|CornerRadius=0.075mm|HoleSize=0mm|Usage=FLASHONLY|Rotation=0.000|XOffset=0mm|YOffset=0mm|HoleType=Round|Shape=RoundedRectangle|*
%AMROUNDEDRECTD29*
21,1,0.6000,0.8500,0,0,0.0*
21,1,0.4500,1.0000,0,0,0.0*
1,1,0.1500,0.2250,-0.4250*
1,1,0.1500,-0.2250,-0.4250*
1,1,0.1500,-0.2250,0.4250*
1,1,0.1500,0.2250,0.4250*
%
%ADD29ROUNDEDRECTD29*%
%ADD30O,2.6000X0.7000*%
%ADD31O,0.6000X2.2000*%
%ADD32O,0.6000X1.6000*%
G04:AMPARAMS|DCode=33|XSize=0.8mm|YSize=1mm|CornerRadius=0.1mm|HoleSize=0mm|Usage=FLASHONLY|Rotation=180.000|XOffset=0mm|YOffset=0mm|HoleType=Round|Shape=RoundedRectangle|*
%AMROUNDEDRECTD33*
21,1,0.8000,0.8000,0,0,180.0*
21,1,0.6000,1.0000,0,0,180.0*
1,1,0.2000,-0.3000,0.4000*
1,1,0.2000,0.3000,0.4000*
1,1,0.2000,0.3000,-0.4000*
1,1,0.2000,-0.3000,-0.4000*
%
%ADD33ROUNDEDRECTD33*%
%ADD34R,2.0000X5.5000*%
%ADD35C,0.5000*%
%ADD36C,0.2000*%
%ADD37C,1.0000*%
%ADD38C,0.3000*%
%ADD39O,1.5000X0.9000*%
%ADD40C,2.0000*%
%ADD41C,1.5240*%
G04:AMPARAMS|DCode=42|XSize=1mm|YSize=1.7mm|CornerRadius=0mm|HoleSize=0mm|Usage=FLASHONLY|Rotation=225.000|XOffset=0mm|YOffset=0mm|HoleType=Round|Shape=Round|*
%AMOVALD42*
21,1,0.7000,1.0000,0.0000,0.0000,315.0*
1,1,1.0000,-0.2475,0.2475*
1,1,1.0000,0.2475,-0.2475*
%
%ADD42OVALD42*%

G04:AMPARAMS|DCode=43|XSize=1mm|YSize=1.7mm|CornerRadius=0mm|HoleSize=0mm|Usage=FLASHONLY|Rotation=225.000|XOffset=0mm|YOffset=0mm|HoleType=Round|Shape=Rectangle|*
%AMROTATEDRECTD43*
4,1,4,-0.2475,0.9546,0.9546,-0.2475,0.2475,-0.9546,-0.9546,0.2475,-0.2475,0.9546,0.0*
%
%ADD43ROTATEDRECTD43*%

G04:AMPARAMS|DCode=44|XSize=1mm|YSize=1.7mm|CornerRadius=0mm|HoleSize=0mm|Usage=FLASHONLY|Rotation=135.000|XOffset=0mm|YOffset=0mm|HoleType=Round|Shape=Round|*
%AMOVALD44*
21,1,0.7000,1.0000,0.0000,0.0000,225.0*
1,1,1.0000,0.2475,0.2475*
1,1,1.0000,-0.2475,-0.2475*
%
%ADD44OVALD44*%

G04:AMPARAMS|DCode=45|XSize=1mm|YSize=1.7mm|CornerRadius=0mm|HoleSize=0mm|Usage=FLASHONLY|Rotation=135.000|XOffset=0mm|YOffset=0mm|HoleType=Round|Shape=Rectangle|*
%AMROTATEDRECTD45*
4,1,4,0.9546,0.2475,-0.2475,-0.9546,-0.9546,-0.2475,0.2475,0.9546,0.9546,0.2475,0.0*
%
%ADD45ROTATEDRECTD45*%

%ADD46C,2.5000*%
%ADD47C,0.5000*%
D10*
X203500Y646000D02*
D03*
X186500D02*
D03*
X251000Y356500D02*
D03*
X234000D02*
D03*
X397500Y935500D02*
D03*
X380500D02*
D03*
X380500Y977000D02*
D03*
X397500D02*
D03*
X397500Y956250D02*
D03*
X380500D02*
D03*
X292000Y772250D02*
D03*
X275000D02*
D03*
X364000Y506500D02*
D03*
X381000D02*
D03*
X102750Y431750D02*
D03*
X85750D02*
D03*
X31000Y206250D02*
D03*
X48000D02*
D03*
X48000Y285250D02*
D03*
X31000D02*
D03*
X91000Y285250D02*
D03*
X74000D02*
D03*
X571000Y798500D02*
D03*
X588000D02*
D03*
X244250Y763750D02*
D03*
X227250D02*
D03*
X227250Y787500D02*
D03*
X244250D02*
D03*
X127250Y530500D02*
D03*
X110250D02*
D03*
X138000Y431500D02*
D03*
X121000D02*
D03*
X73830Y162370D02*
D03*
X90830D02*
D03*
X73830Y181420D02*
D03*
X90830D02*
D03*
X48000Y260250D02*
D03*
X31000D02*
D03*
X91250Y329750D02*
D03*
X108250D02*
D03*
X91000Y307500D02*
D03*
X108000D02*
D03*
D11*
X49500Y799500D02*
D03*
X60500D02*
D03*
X71500D02*
D03*
X82500D02*
D03*
X93500D02*
D03*
X104500D02*
D03*
X115500D02*
D03*
X126500D02*
D03*
X136000D02*
D03*
D12*
X34000D02*
D03*
X145500Y842500D02*
D03*
D13*
Y904500D02*
D03*
D14*
Y946000D02*
D03*
D15*
X10500Y950500D02*
D03*
D16*
X426395Y782000D02*
D03*
X455605D02*
D03*
D17*
X357500Y736000D02*
D03*
X352500D02*
D03*
X347500D02*
D03*
X342500D02*
D03*
X337500D02*
D03*
X332500D02*
D03*
X327500D02*
D03*
X322500D02*
D03*
X317500D02*
D03*
X312500D02*
D03*
X307500D02*
D03*
X302500D02*
D03*
X297500D02*
D03*
X292500D02*
D03*
X287500D02*
D03*
X282500D02*
D03*
X277500D02*
D03*
X272500D02*
D03*
X267500D02*
D03*
X262500D02*
D03*
X257500D02*
D03*
X252500D02*
D03*
X247500D02*
D03*
X242500D02*
D03*
D18*
X376500Y703500D02*
D03*
X223500D02*
D03*
D19*
X175000Y438550D02*
D03*
Y461450D02*
D03*
D20*
X140250Y306000D02*
D03*
X200750D02*
D03*
D21*
X271750Y815500D02*
D03*
X297750D02*
D03*
D22*
X67100Y104500D02*
D03*
X99900D02*
D03*
D23*
X358500Y792750D02*
D03*
X340500D02*
D03*
Y763000D02*
D03*
X358500D02*
D03*
D24*
X188500Y831250D02*
D03*
Y814250D02*
D03*
X400000Y322500D02*
D03*
Y305500D02*
D03*
X380500D02*
D03*
Y288500D02*
D03*
X91250Y513500D02*
D03*
Y530500D02*
D03*
Y463250D02*
D03*
Y480250D02*
D03*
X34070Y179750D02*
D03*
Y162750D02*
D03*
X53500Y162750D02*
D03*
Y179750D02*
D03*
X425767Y720500D02*
D03*
Y737500D02*
D03*
X253500Y423000D02*
D03*
Y440000D02*
D03*
X229500Y322000D02*
D03*
Y339000D02*
D03*
X250500Y322000D02*
D03*
Y339000D02*
D03*
X415000Y476500D02*
D03*
Y459500D02*
D03*
X399500Y476500D02*
D03*
Y459500D02*
D03*
X477000Y532000D02*
D03*
Y515000D02*
D03*
X477000Y327000D02*
D03*
Y344000D02*
D03*
X419500Y294000D02*
D03*
Y311000D02*
D03*
X73250Y530500D02*
D03*
Y513500D02*
D03*
X131500Y178500D02*
D03*
Y161500D02*
D03*
D25*
X554250Y822000D02*
D03*
X534250D02*
D03*
X514250D02*
D03*
X494250D02*
D03*
X474250D02*
D03*
X454250D02*
D03*
D26*
X428000Y837000D02*
D03*
Y857000D02*
D03*
Y877000D02*
D03*
Y897000D02*
D03*
Y917000D02*
D03*
Y937000D02*
D03*
Y957000D02*
D03*
Y977000D02*
D03*
X580500D02*
D03*
Y957000D02*
D03*
Y937000D02*
D03*
Y917000D02*
D03*
Y897000D02*
D03*
Y877000D02*
D03*
Y857000D02*
D03*
Y837000D02*
D03*
D27*
X109750Y454250D02*
D03*
X128750Y480250D02*
D03*
X119250D02*
D03*
X109750D02*
D03*
X128750Y454250D02*
D03*
D28*
X245000Y823000D02*
D03*
X222000Y813500D02*
D03*
Y832500D02*
D03*
D29*
X167750Y787500D02*
D03*
X177250Y764500D02*
D03*
X158250D02*
D03*
D30*
X280500Y489050D02*
D03*
Y476350D02*
D03*
Y463650D02*
D03*
Y450950D02*
D03*
Y438250D02*
D03*
Y425550D02*
D03*
Y412850D02*
D03*
Y400150D02*
D03*
Y387450D02*
D03*
Y374750D02*
D03*
Y362050D02*
D03*
Y349350D02*
D03*
Y336650D02*
D03*
Y323950D02*
D03*
X372500Y489050D02*
D03*
Y476350D02*
D03*
Y463650D02*
D03*
Y450950D02*
D03*
Y438250D02*
D03*
Y425550D02*
D03*
Y412850D02*
D03*
Y400150D02*
D03*
Y387450D02*
D03*
Y374750D02*
D03*
Y362050D02*
D03*
Y349350D02*
D03*
Y336650D02*
D03*
Y323950D02*
D03*
D31*
X140450Y680000D02*
D03*
X127750D02*
D03*
X115050D02*
D03*
X102350D02*
D03*
X89650D02*
D03*
X76950D02*
D03*
X64250D02*
D03*
X140450Y632000D02*
D03*
X127750D02*
D03*
X115050D02*
D03*
X102350D02*
D03*
X89650D02*
D03*
X76950D02*
D03*
X64250D02*
D03*
X51550Y680000D02*
D03*
Y632000D02*
D03*
D32*
X65510Y206280D02*
D03*
X78210D02*
D03*
X90910D02*
D03*
X103610D02*
D03*
X65510Y260280D02*
D03*
X78210D02*
D03*
X90910D02*
D03*
X103610D02*
D03*
D33*
X148750Y530000D02*
D03*
Y493000D02*
D03*
X131500Y206500D02*
D03*
Y243500D02*
D03*
D34*
X477000Y382000D02*
D03*
Y477000D02*
D03*
D35*
X423500Y837000D02*
X426395Y834105D01*
X29000Y659000D02*
X49000D01*
X64250Y643750D01*
X49000Y659000D02*
X127000D01*
X14000Y674000D02*
X29000Y659000D01*
X51500Y680050D02*
X52000Y680550D01*
X127000Y659000D02*
X140450Y645550D01*
X186500Y557500D02*
Y646000D01*
Y557500D02*
X200750Y543250D01*
Y341250D02*
Y543250D01*
X35800Y423200D02*
Y478500D01*
X549000Y203000D02*
X562500Y189500D01*
X569000D01*
X179000Y33000D02*
X189809D01*
X196749Y39941D01*
X160500Y51500D02*
X179000Y33000D01*
X196749Y39941D02*
Y39960D01*
X300000Y59000D02*
Y179000D01*
X380500Y880000D02*
Y935500D01*
X426395Y782000D02*
X584000Y624395D01*
X426395Y782000D02*
Y801605D01*
X292000Y772250D02*
X314000Y794250D01*
X14000Y674000D02*
Y930500D01*
X160500Y51500D02*
Y75750D01*
Y264499D02*
Y287500D01*
Y75750D02*
Y264499D01*
X196749Y228250D01*
X145250Y60500D02*
X160500Y75750D01*
X140000Y550000D02*
X148750Y541250D01*
Y530000D02*
Y541250D01*
X91250D02*
X100000Y550000D01*
X91250Y530500D02*
Y541250D01*
X127250Y530500D02*
Y594000D01*
X148250Y530500D02*
X148750Y530000D01*
X127250Y530500D02*
X148250D01*
X372500Y425550D02*
X434850D01*
X477000Y383400D01*
X372500Y412850D02*
X430650D01*
X372500Y438250D02*
X438250D01*
X167750Y773575D02*
X175250Y781075D01*
X167750Y634500D02*
Y773575D01*
X127250Y594000D02*
X167750Y634500D01*
X67100Y104500D02*
X111100Y60500D01*
X145250D01*
X413500Y267600D02*
X510000D01*
X359600D02*
X413500D01*
X492000Y189100D01*
Y78000D02*
Y189100D01*
X82500Y376500D02*
X95000D01*
X164550Y438550D02*
X175000D01*
X150250Y424250D02*
X164550Y438550D01*
X161500Y474950D02*
X175000Y461450D01*
X161500Y474950D02*
Y488250D01*
X156750Y493000D02*
X161500Y488250D01*
X561500Y837000D02*
X580500D01*
X550500D02*
X561500D01*
X450000D02*
X550500D01*
X131500Y119500D02*
Y161500D01*
X116500Y104500D02*
X131500Y119500D01*
X99900Y104500D02*
X116500D01*
X34070Y137530D02*
X67100Y104500D01*
X34070Y137530D02*
Y162750D01*
X296000Y751500D02*
Y752000D01*
X314000Y770000D01*
X64630Y162370D02*
X73830D01*
X63250Y163750D02*
X64630Y162370D01*
X54500Y163750D02*
X63250D01*
X584000Y478500D02*
Y624395D01*
X275000Y204000D02*
X300000Y179000D01*
X520000Y542500D02*
X584000Y478500D01*
X264950Y323950D02*
X280500D01*
X263000Y322000D02*
X264950Y323950D01*
X250500Y322000D02*
X263000D01*
X239150Y267600D02*
X359600D01*
X200750Y306000D02*
X239150Y267600D01*
X420000Y310500D02*
X530500D01*
X584000Y284100D02*
Y478500D01*
X510000Y267600D02*
X567499D01*
X584000Y284100D01*
X419500Y311000D02*
X420000Y310500D01*
X549000Y203000D02*
Y228600D01*
X510000Y267600D02*
X549000Y228600D01*
X223500Y440000D02*
X253500D01*
X477000Y382000D02*
Y383400D01*
X200750Y341250D02*
X216000Y356500D01*
X233000Y825000D02*
X238500Y830500D01*
X233000Y803000D02*
Y825000D01*
X231000Y801000D02*
X233000Y803000D01*
X319500Y992000D02*
X355300Y956200D01*
X109000Y992000D02*
X319500D01*
X327500Y956200D02*
X355300D01*
X394500Y833500D02*
X426395Y801605D01*
X75500Y992000D02*
X109000D01*
X102000Y971500D02*
Y985000D01*
X109000Y992000D01*
X68500Y985000D02*
X75500Y992000D01*
X14000Y930500D02*
X68500Y985000D01*
Y970000D02*
Y985000D01*
X175250Y801000D02*
X188500Y814250D01*
X175250Y781075D02*
Y801000D01*
X355300Y956200D02*
X380450D01*
X102750Y440000D02*
X109750Y447000D01*
Y454250D01*
X138000Y431500D02*
Y436250D01*
X128750Y445500D02*
X138000Y436250D01*
X128750Y445500D02*
Y454250D01*
X138000Y412000D02*
X150250Y424250D01*
X145500Y448500D02*
X150250Y443750D01*
X213500Y306000D02*
X229500Y322000D01*
X461000Y542500D02*
X520000D01*
X380500Y880000D02*
X423500Y837000D01*
X292958Y979500D02*
X308500D01*
X327500Y960500D01*
Y956200D02*
Y960500D01*
X272500Y959042D02*
X292958Y979500D01*
X272500Y956200D02*
Y959042D01*
X444000Y525500D02*
X461000Y542500D01*
X429000Y510500D02*
X444000Y525500D01*
X400000D02*
X444000D01*
X381000Y506500D02*
X400000Y525500D01*
X415000Y476500D02*
X429000Y490500D01*
Y510500D01*
X438250Y438250D02*
X477000Y477000D01*
X477000Y515000D02*
X477000Y515000D01*
Y477000D02*
Y515000D01*
Y344000D02*
Y382000D01*
X399500Y459500D02*
X415000D01*
X399500Y476500D02*
X415000D01*
X399350Y476350D02*
X399500Y476500D01*
X51500Y680050D02*
X51550Y680000D01*
X359600Y267600D02*
X380500Y288500D01*
X346500Y807750D02*
X372250Y833500D01*
X394500D01*
X358500Y803250D02*
X371500Y816250D01*
X346500Y807750D02*
X346500D01*
X380500Y935500D02*
Y956250D01*
X380450Y956200D02*
X380500Y956250D01*
X426395Y801605D02*
Y834105D01*
X200750Y325000D02*
Y341250D01*
Y306000D02*
Y325000D01*
X138000Y387750D02*
X200750Y325000D01*
X216000Y356500D02*
X234000D01*
X138000Y387750D02*
Y412000D01*
X179000Y306000D02*
X200750D01*
X160500Y287500D02*
X179000Y306000D01*
X200750D02*
X213500D01*
X116000Y281750D02*
X140250Y306000D01*
X108250Y307750D02*
Y329750D01*
X108000Y307500D02*
X108250Y307750D01*
X91250Y329750D02*
Y348750D01*
Y307750D02*
Y329750D01*
X91000Y307500D02*
X91250Y307750D01*
X91000Y285250D02*
Y307500D01*
Y260370D02*
Y285250D01*
X90910Y260280D02*
X91000Y260370D01*
X74000Y276250D02*
Y285250D01*
Y276250D02*
X78210Y272040D01*
Y260280D02*
Y272040D01*
X48000Y285250D02*
X74000D01*
X48000Y285250D02*
X48000Y285250D01*
X31000Y260250D02*
Y285250D01*
Y260250D02*
X31000Y260250D01*
X65510Y250010D02*
Y260280D01*
X62750Y247250D02*
X65510Y250010D01*
X52500Y247250D02*
X62750D01*
X48000Y251750D02*
X52500Y247250D01*
X48000Y251750D02*
Y260250D01*
Y197250D02*
Y206250D01*
X43500Y192750D02*
X48000Y197250D01*
X36750Y192750D02*
X43500D01*
X34070Y190070D02*
X36750Y192750D01*
X34070Y179750D02*
Y190070D01*
X73830Y181420D02*
Y190580D01*
X78210Y194960D01*
Y206280D01*
X65170Y181420D02*
X73830D01*
X63000Y179250D02*
X65170Y181420D01*
X54000Y179250D02*
X63000D01*
X53500Y179750D02*
X54000Y179250D01*
X53500Y162750D02*
X54500Y163750D01*
X90830Y162370D02*
Y181420D01*
Y206200D01*
X90910Y206280D01*
X108000Y283250D02*
Y307500D01*
Y283250D02*
X116000Y275250D01*
X105750Y233250D02*
X116000Y243500D01*
X31000Y244000D02*
X41750Y233250D01*
X31000Y244000D02*
Y260250D01*
Y206250D02*
Y244000D01*
X116000Y251000D02*
Y275250D01*
Y251000D02*
X123500Y243500D01*
X131500D01*
X116000Y243500D02*
Y251000D01*
X123500Y206500D02*
X131500D01*
X111000Y219000D02*
X123500Y206500D01*
X106000Y219000D02*
X111000D01*
X103610Y216610D02*
X106000Y219000D01*
X103610Y206280D02*
Y216610D01*
X117250Y192750D02*
X131500Y178500D01*
X103610Y260280D02*
X103750Y260140D01*
X131500Y206500D02*
X136250D01*
X146000Y196750D01*
Y169250D02*
Y196750D01*
X138250Y161500D02*
X146000Y169250D01*
X131500Y161500D02*
X138250D01*
X90910Y206280D02*
Y226160D01*
X98000Y233250D01*
X41750D02*
X98000D01*
X105750D01*
X102750Y431750D02*
Y440000D01*
X121000Y431500D02*
Y453250D01*
X118750Y455500D02*
X121000Y453250D01*
X118750Y479750D02*
X119250Y480250D01*
X91250D02*
X109750D01*
X121000Y384000D02*
Y431500D01*
X91250Y463250D02*
X96750D01*
X102500Y469000D01*
X111000D01*
X118750Y461250D01*
Y479750D01*
Y455500D02*
Y461250D01*
X91250Y480250D02*
Y513500D01*
X73250D02*
X91250D01*
X73250Y530500D02*
X91250D01*
X128750Y480250D02*
X141500Y493000D01*
X148750D01*
X138000Y412000D02*
Y431500D01*
X148750Y493000D02*
X156750D01*
X110250Y502750D02*
Y530500D01*
X85750Y431750D02*
Y440500D01*
X93750Y448500D01*
X150250Y424250D02*
Y443750D01*
X227250Y787500D02*
Y797250D01*
Y763750D02*
Y787500D01*
Y763750D02*
X227250Y763750D01*
X227250Y797250D02*
X231000Y801000D01*
X340500Y801750D02*
X346500Y807750D01*
X314000Y794250D02*
X350000Y830250D01*
Y830500D01*
X358750D01*
X297750Y815500D02*
X313250D01*
X328250Y830500D01*
X238500D02*
X328250D01*
X350000D01*
X340500Y792750D02*
Y801750D01*
X428000Y837000D02*
X433000D01*
X449000Y853000D01*
Y867000D01*
X455605Y782000D02*
Y784395D01*
X443750Y796250D02*
X455605Y784395D01*
X443750Y796250D02*
Y830750D01*
X450000Y837000D01*
X229500Y322000D02*
X250500D01*
X264000Y339000D02*
X266350Y336650D01*
X280500D01*
X229500Y339000D02*
X250500D01*
X253500Y440000D02*
X264000D01*
X266500Y437500D01*
X279750D01*
X280500Y438250D01*
X265550Y425550D02*
X280500D01*
X263000Y423000D02*
X265550Y425550D01*
X253500Y423000D02*
X263000D01*
X250500Y339000D02*
X264000D01*
X358500Y763000D02*
Y792750D01*
X116000Y275250D02*
Y281750D01*
X314000Y770000D02*
Y794250D01*
X358500Y792750D02*
Y803250D01*
X423500Y837000D02*
X428000D01*
X64250Y632000D02*
Y643750D01*
X140450Y632000D02*
Y645550D01*
X35800Y423200D02*
X82500Y376500D01*
X113500D02*
X121000Y384000D01*
X95000Y376500D02*
X108250Y363250D01*
Y329750D02*
Y363250D01*
X95000Y376500D02*
X113500D01*
X35800Y351500D02*
X47300Y363000D01*
X77000D01*
X91250Y348750D01*
X372500Y476350D02*
X399350D01*
X48000Y206250D02*
Y212500D01*
X53000Y217500D01*
X62500D01*
X65510Y214490D01*
Y206280D02*
Y214490D01*
X229000Y338500D02*
X229500Y339000D01*
X214000Y338500D02*
X229000D01*
X110250Y502750D02*
X119250Y493750D01*
Y480250D02*
Y493750D01*
X100500Y240499D02*
X103750Y243750D01*
Y260140D01*
X52000Y680550D02*
Y700000D01*
X102350Y609350D02*
Y632000D01*
X35800Y542800D02*
X102350Y609350D01*
X35800Y478500D02*
Y542800D01*
D36*
X196749Y44000D02*
X355000D01*
X135500Y800000D02*
X136500Y801000D01*
X124000Y652000D02*
X127750Y648250D01*
Y632000D02*
Y648250D01*
X207000Y467000D02*
X239000Y499000D01*
Y620000D01*
X263500Y720000D02*
X274000Y709500D01*
X229000Y630000D02*
X239000Y620000D01*
X203500Y646000D02*
X235500Y678000D01*
X258000D01*
X274000Y662000D02*
Y709500D01*
Y527000D02*
Y662000D01*
X258000Y678000D02*
X274000Y662000D01*
X217500Y465500D02*
X268000Y516000D01*
Y647000D01*
X217500Y422000D02*
Y465500D01*
X207000Y412843D02*
Y467000D01*
X268000Y218000D02*
X281000D01*
X251000Y201000D02*
X268000Y218000D01*
X237000Y201000D02*
X251000D01*
X325000Y59000D02*
Y174000D01*
X281000Y218000D02*
X325000Y174000D01*
X406271Y215350D02*
Y219269D01*
X376700Y222000D02*
X383350Y215350D01*
X221114Y222000D02*
X376700D01*
X212115Y213000D02*
X221114Y222000D01*
X385270Y245210D02*
X393059Y253000D01*
X215710Y245210D02*
X385270D01*
X280750Y375000D02*
X281250Y374500D01*
X317000Y734500D02*
X318000Y735500D01*
X400125Y958875D02*
X408500Y950500D01*
X387847Y37000D02*
X397786Y27061D01*
X334000Y721500D02*
X347500D01*
X214710Y22000D02*
X385270D01*
X208750Y34000D02*
X233980D01*
X187769Y48941D02*
Y219270D01*
X355000Y44000D02*
X361000Y50000D01*
X196749Y39960D02*
Y44000D01*
X233980Y34000D02*
X237000Y30980D01*
X205730D02*
X208750Y34000D01*
X237000Y30980D02*
X360980D01*
X361000Y50000D02*
X393191D01*
X422000Y20000D02*
X442000Y40000D01*
X387270Y20000D02*
X422000D01*
X385270Y22000D02*
X387270Y20000D01*
X414561Y27061D02*
X431500Y44000D01*
X397786Y27061D02*
X414561D01*
X367000Y37000D02*
X387847D01*
X360980Y30980D02*
X367000Y37000D01*
X393191Y50000D02*
X403231Y39960D01*
X391909Y235000D02*
X394250Y237230D01*
X207960Y235000D02*
X391909D01*
X205730Y237230D02*
X207960Y235000D01*
X396980Y222000D02*
X403230Y228250D01*
X388000Y222000D02*
X396980D01*
X383391Y226609D02*
X388000Y222000D01*
X211372Y226609D02*
X383391D01*
X211372Y226609D02*
X211372Y226609D01*
X395650D02*
X397291Y228250D01*
X194039Y213000D02*
X212115D01*
X187769Y219270D02*
X194039Y213000D01*
X412211Y48941D02*
Y219269D01*
X412211D01*
X406271D02*
X412211D01*
X383350Y215350D02*
X406271D01*
X414351Y241149D02*
X431500Y224000D01*
X398169Y241149D02*
X414351D01*
X394250Y237230D02*
X398169Y241149D01*
X393059Y253000D02*
X417500D01*
X442000Y228500D01*
X204330Y226609D02*
X211372D01*
X202689Y228250D02*
X204330Y226609D01*
X196749Y228250D02*
X202689D01*
X397291D02*
X403230D01*
X114000Y601000D02*
Y630950D01*
X115050Y632000D01*
X96000Y736000D02*
X160000Y800000D01*
Y827500D01*
X145500Y794500D02*
Y827257D01*
X84000Y733000D02*
X145500Y794500D01*
X84000Y720000D02*
Y733000D01*
X49500Y799500D02*
Y810500D01*
X47500Y812500D02*
X49500Y810500D01*
X47500Y812500D02*
Y834250D01*
X47005Y833677D02*
X47500Y834250D01*
X392500Y922500D02*
X395000D01*
X397500Y925000D01*
Y935500D01*
X232500Y900000D02*
X365000D01*
X160000Y827500D02*
X232500Y900000D01*
X219814Y964000D02*
X274814Y909000D01*
X425767Y781372D02*
X426395Y782000D01*
X380500Y977000D02*
Y983000D01*
X275000Y764250D02*
Y772250D01*
X359500Y909000D02*
X371500Y921000D01*
X323000Y709500D02*
Y728257D01*
Y735500D01*
Y728257D02*
X324757Y726500D01*
X348157D01*
X354157Y720500D01*
X425767D01*
X334999Y719999D02*
Y720501D01*
X334000Y721500D02*
X334999Y720501D01*
X425767Y737500D02*
Y781372D01*
X60000Y834500D02*
X60500Y834000D01*
Y799500D02*
Y834000D01*
X23500Y749500D02*
Y910000D01*
X167750Y787500D02*
Y820000D01*
X19500Y745000D02*
Y923000D01*
X60500Y721500D02*
Y799500D01*
X82500D02*
X83500Y800500D01*
Y834000D01*
X126500Y799500D02*
X128000Y801000D01*
Y834000D01*
X532004Y316774D02*
X569000Y279778D01*
X430726Y316774D02*
X532004D01*
X425000Y322500D02*
X430726Y316774D01*
X350000Y450950D02*
X372500D01*
X349000Y463000D02*
X371850D01*
X372500Y463650D01*
X561500Y837000D02*
X561500D01*
X571000Y827500D01*
Y798500D02*
Y827500D01*
X580500Y857000D02*
X593500D01*
X596000Y854500D01*
Y829500D02*
Y854500D01*
X588000Y821500D02*
X596000Y829500D01*
X588000Y798500D02*
Y821500D01*
X334000Y721500D02*
X334000Y721500D01*
X347500D02*
X361000Y708000D01*
Y509500D02*
Y708000D01*
Y509500D02*
X364000Y506500D01*
X312000Y735500D02*
X312500Y736000D01*
X289500Y719500D02*
X298000D01*
X279500Y709500D02*
X289500Y719500D01*
X279500Y709500D02*
Y717343D01*
Y666000D02*
Y709500D01*
X284657Y722500D02*
X291900D01*
X93500Y783000D02*
Y799500D01*
X353500Y694500D02*
X355000D01*
X338500Y679500D02*
X353500Y694500D01*
X329500Y689500D02*
X346500Y706500D01*
X279500Y666000D02*
X318500Y627000D01*
X279500Y717343D02*
X284657Y722500D01*
X329500Y379000D02*
Y689500D01*
X338500Y385000D02*
Y679500D01*
Y385000D02*
X348750Y374750D01*
X372500D01*
X397500Y935500D02*
X426500D01*
X428000Y937000D01*
X358500Y755000D02*
Y763000D01*
X357500Y754000D02*
X358500Y755000D01*
X329500Y379000D02*
X346450Y362050D01*
X372500D01*
X274000Y709500D02*
Y717500D01*
X291900Y722500D02*
X297000Y727600D01*
X115500Y783000D02*
Y799500D01*
X297000Y727600D02*
Y735500D01*
X297500Y736000D01*
X283000Y726500D02*
X290243D01*
X274000Y717500D02*
X283000Y726500D01*
X292000Y735500D02*
X292500Y736000D01*
X292000Y728257D02*
Y735500D01*
X290243Y726500D02*
X292000Y728257D01*
X274000Y527000D02*
X289000Y512000D01*
X318500Y382000D02*
Y627000D01*
X115050Y680000D02*
Y698050D01*
X71500Y783000D02*
Y799500D01*
X84000Y720000D02*
X87000Y717000D01*
X95000D01*
X137500Y835257D02*
X145500Y827257D01*
Y857743D02*
Y904500D01*
X137500Y849743D02*
X145500Y857743D01*
X137500Y835257D02*
Y849743D01*
X102350Y708600D02*
X158250Y764500D01*
X282500Y745000D02*
X289000Y751500D01*
X282500Y736000D02*
Y745000D01*
X357500Y736000D02*
Y754000D01*
X301150Y476350D02*
X308500Y469000D01*
X207000Y412843D02*
X260500Y359343D01*
X298550Y362050D02*
X318500Y382000D01*
X217500Y422000D02*
X252050Y387450D01*
X280500D01*
X228000Y203000D02*
X236500Y211500D01*
X228000Y199000D02*
Y203000D01*
Y199000D02*
X275000Y152000D01*
Y59000D02*
Y152000D01*
X364000Y497550D02*
Y506500D01*
Y497550D02*
X372500Y489050D01*
X302500Y744500D02*
X309500Y751500D01*
X302500Y736000D02*
Y744500D01*
X307500Y744500D02*
X314500Y751500D01*
X307500Y736000D02*
Y744500D01*
X260500Y356500D02*
Y359343D01*
Y356500D02*
X267650Y349350D01*
X251000Y356500D02*
X260500D01*
X267650Y349350D02*
X280500D01*
X569000Y279000D02*
Y279778D01*
X400000Y322500D02*
X425000D01*
X279900Y400750D02*
X280500Y400150D01*
X140450Y680000D02*
Y695450D01*
X317500Y736000D02*
X318000Y735500D01*
X127750Y680000D02*
Y697750D01*
X102350Y680000D02*
Y708600D01*
X60500Y721500D02*
X89650Y692350D01*
Y680000D02*
Y692350D01*
X170500Y927000D02*
X193000Y949500D01*
X40500Y927000D02*
X170500D01*
X23500Y910000D02*
X40500Y927000D01*
X60500Y964000D02*
X219814D01*
X19500Y745000D02*
X64250Y700250D01*
X23500Y749500D02*
X76950Y696050D01*
Y680000D02*
Y696050D01*
X274814Y909000D02*
X359500D01*
X19500Y923000D02*
X60500Y964000D01*
X64250Y680000D02*
Y700250D01*
X126500Y799500D02*
X126500Y799500D01*
X180750Y780750D02*
X201000Y801000D01*
X180750Y778797D02*
Y780750D01*
X177250Y775297D02*
X180750Y778797D01*
X177250Y764500D02*
Y775297D01*
X135500Y800000D02*
X136000Y799500D01*
X340500Y750250D02*
Y763000D01*
X337500Y747250D02*
X340500Y750250D01*
X337500Y736000D02*
Y747250D01*
X322000Y751500D02*
X327500Y746000D01*
Y736000D02*
Y746000D01*
X214710Y246210D02*
X215710Y245210D01*
X350650Y349350D02*
X372500D01*
X350650Y336650D02*
X372500D01*
X431500Y44000D02*
Y224000D01*
X398550Y323950D02*
X400000Y322500D01*
X411500Y294000D02*
X419500D01*
X400000Y305500D02*
X411500Y294000D01*
X380500Y305500D02*
X400000D01*
X167750Y820000D02*
X179000Y831250D01*
X571500Y906000D02*
X580500Y897000D01*
X397500Y977000D02*
X397500Y977000D01*
X397500Y956250D02*
Y977000D01*
X397500Y977000D02*
X428000D01*
X245000Y823000D02*
X252000D01*
X255250Y819750D01*
Y811500D02*
Y819750D01*
X244250Y800500D02*
X255250Y811500D01*
X244250Y787500D02*
Y800500D01*
X244250Y763750D02*
Y787500D01*
X244250Y787500D02*
X244250Y787500D01*
X270750Y760000D02*
X275000Y764250D01*
X265000Y760000D02*
X270750D01*
X257500Y752500D02*
X265000Y760000D01*
X257500Y736000D02*
Y752500D01*
Y736000D02*
X257500Y736000D01*
X332500D02*
Y747500D01*
X328500Y751500D02*
X332500Y747500D01*
X262500Y736000D02*
Y747000D01*
X267000Y751500D01*
X267500Y736000D02*
Y746000D01*
X273000Y751500D01*
X273250D01*
X272500Y736000D02*
Y745750D01*
X278250Y751500D01*
X277500Y736000D02*
Y745750D01*
X283250Y751500D01*
X347500Y736000D02*
Y744000D01*
X352500Y736000D02*
Y749000D01*
X347500Y744000D02*
X352500Y749000D01*
X357500Y754000D01*
X201000Y801000D02*
X231000D01*
X188500Y831250D02*
X220750D01*
X222000Y832500D01*
X188500Y814250D02*
X221250D01*
X222000Y813500D01*
X340500Y763000D02*
Y792750D01*
X267500Y769500D02*
Y811250D01*
X271750Y815500D01*
X179000Y831250D02*
X188500D01*
X289000Y497550D02*
Y512000D01*
X252500Y736000D02*
Y754500D01*
X267500Y769500D01*
X247500Y736000D02*
Y750500D01*
X244250Y753750D02*
X247500Y750500D01*
X244250Y753750D02*
Y763750D01*
X227250Y752500D02*
Y763750D01*
Y752500D02*
X232250Y747500D01*
X239750D01*
X242500Y744750D01*
Y736000D02*
Y744750D01*
X187769Y48941D02*
X187769Y48941D01*
X205730Y30597D02*
Y30980D01*
X442000Y40000D02*
Y228500D01*
X280500Y476350D02*
X301150D01*
X372500Y323950D02*
X398550D01*
X280500Y374750D02*
X280750Y375000D01*
X280500Y362050D02*
X298550D01*
X372500Y400150D02*
X395850D01*
X280500Y412850D02*
X297850D01*
X280500Y489050D02*
X289000Y497550D01*
X568500Y977500D02*
X580000D01*
X580500Y977000D01*
X278950Y452500D02*
X280500Y450950D01*
X250000Y452500D02*
X278950D01*
X104500Y799500D02*
Y815000D01*
X136500Y801000D02*
Y815500D01*
X350000Y387500D02*
X350050Y387450D01*
X372500D01*
X281250Y374500D02*
X302500D01*
X281150Y399500D02*
X301000D01*
X280500Y400150D02*
X281150Y399500D01*
X279850Y463000D02*
X280500Y463650D01*
X257500Y463000D02*
X279850D01*
X263500Y720000D02*
X265000D01*
X89650Y614150D02*
Y632000D01*
X380500Y983000D02*
X383000Y985500D01*
X409000D01*
X397500Y956250D02*
X400125Y958875D01*
X408500Y945500D02*
Y950500D01*
X571500Y906000D02*
X571500Y906000D01*
X539000Y906000D02*
X571500D01*
X448000Y916000D02*
X487000D01*
X528000Y957000D01*
X477500Y932000D02*
X533000Y987500D01*
X558500D01*
X548000Y982500D02*
X563500D01*
X558500Y987500D02*
X563500Y982500D01*
X568500Y977500D01*
X553500Y963000D02*
Y974500D01*
X556000Y977000D01*
X547500Y957000D02*
X553500Y963000D01*
X528000Y957000D02*
X547500D01*
X580500D01*
X115050Y698050D02*
X146000Y729000D01*
X160000D01*
X127750Y697750D02*
X147750Y717750D01*
X160000D01*
X140450Y695450D02*
X151500Y706500D01*
X160000D01*
X312000Y721000D02*
Y735500D01*
X316000Y714000D02*
X317000Y715000D01*
Y734500D01*
X316500Y703000D02*
X323000Y709500D01*
X300500D02*
X312000Y721000D01*
X299000Y709500D02*
X300500D01*
X308000Y468500D02*
X308500Y469000D01*
X308000Y385500D02*
Y468500D01*
X76950Y614200D02*
Y632000D01*
X76750Y614000D02*
X76950Y614200D01*
D37*
X497750Y335000D02*
X497750Y335000D01*
Y372000D01*
X497750D02*
X497750D01*
X497750D02*
Y425000D01*
X497500Y426000D02*
X497750Y425000D01*
X497500Y426000D02*
Y524500D01*
X490000Y532000D02*
X497500Y524500D01*
X430650Y412850D02*
X455500Y388000D01*
Y337500D02*
Y388000D01*
X477000Y532000D02*
X490000D01*
X455500Y337500D02*
X466000Y327000D01*
X477000D01*
X488500D01*
X465500Y532000D02*
X477000D01*
X458000Y524500D02*
X465500Y532000D01*
X488500Y327000D02*
X497750Y335000D01*
X458000Y475000D02*
Y524500D01*
X442500Y459500D02*
X458000Y475000D01*
X415000Y459500D02*
X442500D01*
D38*
X296000Y751500D02*
X309500D01*
X289000D02*
X296000D01*
X267000D02*
X273000D01*
X273250D02*
X278250D01*
X283250D01*
X289000D01*
X314500D02*
X322000D01*
X328500D01*
X309500D02*
X314500D01*
D39*
X569000Y139500D02*
D03*
Y152000D02*
D03*
Y164500D02*
D03*
Y177000D02*
D03*
Y189500D02*
D03*
Y202000D02*
D03*
D40*
X275000Y59000D02*
D03*
X300000D02*
D03*
X325000D02*
D03*
Y204000D02*
D03*
X275000D02*
D03*
X272500Y956200D02*
D03*
Y930800D02*
D03*
X327500D02*
D03*
Y956200D02*
D03*
D41*
X492000Y78000D02*
D03*
Y48000D02*
D03*
D42*
X187769Y219270D02*
D03*
X205730Y237230D02*
D03*
X214710Y246210D02*
D03*
X412211Y48941D02*
D03*
X394250Y30980D02*
D03*
X385270Y22000D02*
D03*
D43*
X196749Y228250D02*
D03*
X403231Y39960D02*
D03*
D44*
X187769Y48941D02*
D03*
X205730Y30980D02*
D03*
X214710Y22000D02*
D03*
X412211Y219269D02*
D03*
X394250Y237230D02*
D03*
X385270Y246210D02*
D03*
D45*
X196749Y39960D02*
D03*
X403231Y228249D02*
D03*
D46*
X35800Y351500D02*
D03*
Y478500D02*
D03*
D47*
X124000Y652000D02*
D03*
X229000Y630000D02*
D03*
X268000Y647000D02*
D03*
X114000Y601000D02*
D03*
X96000Y736000D02*
D03*
X392500Y922500D02*
D03*
X365000Y900000D02*
D03*
X371500Y921000D02*
D03*
X334999Y719999D02*
D03*
X60000Y834500D02*
D03*
X140000Y550000D02*
D03*
X100000D02*
D03*
X350000Y450950D02*
D03*
X349000Y463000D02*
D03*
X550500Y837000D02*
D03*
X298000Y719500D02*
D03*
X477500Y932000D02*
D03*
X355000Y694500D02*
D03*
X346500Y706500D02*
D03*
X160000Y729000D02*
D03*
Y717750D02*
D03*
Y706500D02*
D03*
X93500Y783000D02*
D03*
X115500D02*
D03*
X71500D02*
D03*
X95000Y717000D02*
D03*
X236500Y211500D02*
D03*
X237000Y201000D02*
D03*
X395850Y400150D02*
D03*
X530500Y310500D02*
D03*
X569000Y279000D02*
D03*
X297850Y412850D02*
D03*
X223500Y440000D02*
D03*
X193000Y949500D02*
D03*
X102000Y971500D02*
D03*
X68500Y970000D02*
D03*
X145500Y448500D02*
D03*
X350650Y349350D02*
D03*
X350650Y336650D02*
D03*
X497750Y425000D02*
D03*
X371500Y816250D02*
D03*
X358750Y830500D02*
D03*
X117250Y192750D02*
D03*
X93750Y448500D02*
D03*
X449000Y867000D02*
D03*
X250000Y452500D02*
D03*
X83500Y834000D02*
D03*
X47500Y834250D02*
D03*
X128000Y834000D02*
D03*
X104500Y815000D02*
D03*
X136500Y815500D02*
D03*
X214000Y338500D02*
D03*
X350000Y387500D02*
D03*
X302500Y374500D02*
D03*
X301000Y399500D02*
D03*
X257500Y463000D02*
D03*
X265000Y720000D02*
D03*
X100500Y240499D02*
D03*
X409000Y985500D02*
D03*
X408500Y945500D02*
D03*
X539000Y906000D02*
D03*
X448000Y916000D02*
D03*
X548000Y982500D02*
D03*
X556000Y977000D02*
D03*
X316000Y714000D02*
D03*
X316500Y703000D02*
D03*
X52000Y700000D02*
D03*
X299000Y709500D02*
D03*
X308000Y385500D02*
D03*
X89650Y614150D02*
D03*
X76750Y614000D02*
D03*
M02*
