G04 Layer_Color=32896*
%FSLAX44Y44*%
%MOMM*%
G71*
G01*
G75*
%ADD36C,0.5000*%
%ADD47C,0.1270*%
%ADD50C,0.2540*%
G36*
X58374Y114014D02*
X41380Y114014D01*
X41380Y131008D01*
X58374Y114014D01*
D02*
G37*
G36*
X157204Y136366D02*
Y118078D01*
X112500D01*
Y95726D01*
X94212D01*
Y132302D01*
X136884D01*
Y132366D01*
X92000Y177250D01*
Y177250D01*
X116320D01*
X157204Y136366D01*
D02*
G37*
G36*
X79988Y160012D02*
X62994Y177006D01*
X79988Y177006D01*
X79988Y160012D01*
D02*
G37*
G36*
X59668Y155670D02*
X79988Y135350D01*
Y114014D01*
X61700D01*
Y134334D01*
X39348Y156686D01*
Y177006D01*
X59668D01*
Y155670D01*
D02*
G37*
D36*
X209971Y992274D02*
X210447Y992750D01*
X210923Y992274D01*
X210447Y991798D01*
X209971Y992274D01*
X349726Y173048D02*
X349250Y173524D01*
X349726Y174000D01*
X350202Y173524D01*
X349726Y173048D01*
X207548Y106774D02*
X208024Y107250D01*
X208500Y106774D01*
X208024Y106298D01*
X207548Y106774D01*
X223952Y159726D02*
X223476Y159250D01*
X223000Y159726D01*
X223476Y160202D01*
X223952Y159726D01*
X574274Y58452D02*
X574750Y57976D01*
X574274Y57500D01*
X573798Y57976D01*
X574274Y58452D01*
D47*
X516476Y901936D02*
X519524D01*
X516476Y910064D02*
X519524D01*
X205923Y967690D02*
Y975310D01*
Y967690D02*
X234923D01*
Y975310D01*
X205923D02*
X234923D01*
X216106Y931976D02*
Y935024D01*
X207978Y931976D02*
Y935024D01*
X233649Y932053D02*
Y935100D01*
X225521Y932053D02*
Y935100D01*
X549064Y955976D02*
Y959024D01*
X540936Y955976D02*
Y959024D01*
X570564Y955976D02*
Y959024D01*
X562436Y955976D02*
Y959024D01*
X366690Y169000D02*
X374310D01*
Y198000D01*
X366690D02*
X374310D01*
X366690Y169000D02*
Y198000D01*
X404564Y190476D02*
Y193524D01*
X396436Y190476D02*
Y193524D01*
X215976Y60564D02*
X219024D01*
X215976Y52436D02*
X219024D01*
X203500Y82190D02*
Y89810D01*
Y82190D02*
X232500D01*
Y89810D01*
X203500D02*
X232500D01*
X228000Y176690D02*
Y184310D01*
X199000D02*
X228000D01*
X199000Y176690D02*
Y184310D01*
Y176690D02*
X228000D01*
X211976Y208436D02*
X215024D01*
X211976Y216564D02*
X215024D01*
X97436Y941476D02*
Y944524D01*
X105564Y941476D02*
Y944524D01*
X45436Y898476D02*
Y901524D01*
X53564Y898476D02*
Y901524D01*
X331476Y42064D02*
X334524D01*
X331476Y33936D02*
X334524D01*
X264476Y34936D02*
X267524D01*
X264476Y43064D02*
X267524D01*
X297476Y217436D02*
X300524D01*
X297476Y225564D02*
X300524D01*
X549690Y62500D02*
X557310D01*
X549690Y33500D02*
Y62500D01*
Y33500D02*
X557310D01*
Y62500D01*
X65936Y898476D02*
Y901524D01*
X74064Y898476D02*
Y901524D01*
D50*
X77206Y85168D02*
X87363D01*
X77206Y95325D01*
Y97864D01*
X79745Y100403D01*
X84824D01*
X87363Y97864D01*
X72128D02*
X69588Y100403D01*
X64510D01*
X61971Y97864D01*
Y87707D01*
X64510Y85168D01*
X69588D01*
X72128Y87707D01*
Y97864D01*
X56893Y85168D02*
X51814D01*
X54353D01*
Y100403D01*
X56893Y97864D01*
X44197D02*
X41658Y100403D01*
X36579D01*
X34040Y97864D01*
Y95325D01*
X36579Y92786D01*
X34040Y90246D01*
Y87707D01*
X36579Y85168D01*
X41658D01*
X44197Y87707D01*
Y90246D01*
X41658Y92786D01*
X44197Y95325D01*
Y97864D01*
X41658Y92786D02*
X36579D01*
X102598Y60790D02*
Y76025D01*
X94980D01*
X92441Y73486D01*
Y68408D01*
X94980Y65868D01*
X102598D01*
X84824Y70947D02*
X79745D01*
X77206Y68408D01*
Y60790D01*
X84824D01*
X87363Y63329D01*
X84824Y65868D01*
X77206D01*
X72128Y70947D02*
Y60790D01*
Y65868D01*
X69588Y68408D01*
X67049Y70947D01*
X64510D01*
X56893Y60790D02*
X51814D01*
X54353D01*
Y70947D01*
X56893D01*
X44197Y60790D02*
X36579D01*
X34040Y63329D01*
X36579Y65868D01*
X41658D01*
X44197Y68408D01*
X41658Y70947D01*
X34040D01*
X423835Y977497D02*
X430500D01*
Y972498D01*
X427168D01*
X430500D01*
Y967500D01*
X420503D02*
X417171D01*
X418837D01*
Y977497D01*
X420503D01*
X410506Y974165D02*
X407174D01*
X405508Y972498D01*
Y967500D01*
X410506D01*
X412173Y969166D01*
X410506Y970832D01*
X405508D01*
X402176Y967500D02*
X397177D01*
X395511Y969166D01*
X397177Y970832D01*
X400510D01*
X402176Y972498D01*
X400510Y974165D01*
X395511D01*
X392179Y977497D02*
Y967500D01*
Y972498D01*
X390513Y974165D01*
X387181D01*
X385514Y972498D01*
Y967500D01*
X432000Y924000D02*
Y933997D01*
X427002D01*
X425336Y932331D01*
Y928998D01*
X427002Y927332D01*
X432000D01*
X428668D02*
X425336Y924000D01*
X417005D02*
X420337D01*
X422003Y925666D01*
Y928998D01*
X420337Y930665D01*
X417005D01*
X415339Y928998D01*
Y927332D01*
X422003D01*
X412006Y924000D02*
X407008D01*
X405342Y925666D01*
X407008Y927332D01*
X410340D01*
X412006Y928998D01*
X410340Y930665D01*
X405342D01*
X397011Y924000D02*
X400344D01*
X402010Y925666D01*
Y928998D01*
X400344Y930665D01*
X397011D01*
X395345Y928998D01*
Y927332D01*
X402010D01*
X390347Y932331D02*
Y930665D01*
X392013D01*
X388681D01*
X390347D01*
Y925666D01*
X388681Y924000D01*
X250500Y905500D02*
Y915497D01*
X245502D01*
X243836Y913831D01*
Y910498D01*
X245502Y908832D01*
X250500D01*
X247168D02*
X243836Y905500D01*
X240503Y913831D02*
X238837Y915497D01*
X235505D01*
X233839Y913831D01*
Y912165D01*
X235505Y910498D01*
X237171D01*
X235505D01*
X233839Y908832D01*
Y907166D01*
X235505Y905500D01*
X238837D01*
X240503Y907166D01*
X225508Y905500D02*
Y915497D01*
X230506Y910498D01*
X223842D01*
X111500Y929500D02*
X121497D01*
Y934498D01*
X119831Y936164D01*
X116498D01*
X114832Y934498D01*
Y929500D01*
Y932832D02*
X111500Y936164D01*
X119831Y939497D02*
X121497Y941163D01*
Y944495D01*
X119831Y946161D01*
X118165D01*
X116498Y944495D01*
Y942829D01*
Y944495D01*
X114832Y946161D01*
X113166D01*
X111500Y944495D01*
Y941163D01*
X113166Y939497D01*
X119831Y949494D02*
X121497Y951160D01*
Y954492D01*
X119831Y956158D01*
X118165D01*
X116498Y954492D01*
Y952826D01*
Y954492D01*
X114832Y956158D01*
X113166D01*
X111500Y954492D01*
Y951160D01*
X113166Y949494D01*
X217000Y905500D02*
Y915497D01*
X212002D01*
X210336Y913831D01*
Y910498D01*
X212002Y908832D01*
X217000D01*
X213668D02*
X210336Y905500D01*
X207003Y913831D02*
X205337Y915497D01*
X202005D01*
X200339Y913831D01*
Y912165D01*
X202005Y910498D01*
X203671D01*
X202005D01*
X200339Y908832D01*
Y907166D01*
X202005Y905500D01*
X205337D01*
X207003Y907166D01*
X190342Y905500D02*
X197006D01*
X190342Y912165D01*
Y913831D01*
X192008Y915497D01*
X195340D01*
X197006Y913831D01*
X30000Y890000D02*
X39997D01*
Y894998D01*
X38331Y896665D01*
X34998D01*
X33332Y894998D01*
Y890000D01*
Y893332D02*
X30000Y896665D01*
X38331Y899997D02*
X39997Y901663D01*
Y904995D01*
X38331Y906661D01*
X36665D01*
X34998Y904995D01*
Y903329D01*
Y904995D01*
X33332Y906661D01*
X31666D01*
X30000Y904995D01*
Y901663D01*
X31666Y899997D01*
X30000Y909994D02*
Y913326D01*
Y911660D01*
X39997D01*
X38331Y909994D01*
X276500Y19000D02*
Y28997D01*
X271502D01*
X269835Y27331D01*
Y23998D01*
X271502Y22332D01*
X276500D01*
X273168D02*
X269835Y19000D01*
X259839D02*
X266503D01*
X259839Y25665D01*
Y27331D01*
X261505Y28997D01*
X264837D01*
X266503Y27331D01*
X256506Y20666D02*
X254840Y19000D01*
X251508D01*
X249842Y20666D01*
Y27331D01*
X251508Y28997D01*
X254840D01*
X256506Y27331D01*
Y25665D01*
X254840Y23998D01*
X249842D01*
X347500Y18500D02*
Y28497D01*
X342502D01*
X340835Y26831D01*
Y23498D01*
X342502Y21832D01*
X347500D01*
X344168D02*
X340835Y18500D01*
X330839D02*
X337503D01*
X330839Y25164D01*
Y26831D01*
X332505Y28497D01*
X335837D01*
X337503Y26831D01*
X327506D02*
X325840Y28497D01*
X322508D01*
X320842Y26831D01*
Y25164D01*
X322508Y23498D01*
X320842Y21832D01*
Y20166D01*
X322508Y18500D01*
X325840D01*
X327506Y20166D01*
Y21832D01*
X325840Y23498D01*
X327506Y25164D01*
Y26831D01*
X325840Y23498D02*
X322508D01*
X258000Y207500D02*
Y217497D01*
X253002D01*
X251336Y215831D01*
Y212498D01*
X253002Y210832D01*
X258000D01*
X254668D02*
X251336Y207500D01*
X241339D02*
X248003D01*
X241339Y214165D01*
Y215831D01*
X243005Y217497D01*
X246337D01*
X248003Y215831D01*
X238006Y217497D02*
X231342D01*
Y215831D01*
X238006Y209166D01*
Y207500D01*
X262750Y51750D02*
Y61747D01*
X257752D01*
X256085Y60081D01*
Y56748D01*
X257752Y55082D01*
X262750D01*
X259418D02*
X256085Y51750D01*
X246089D02*
X252753D01*
X246089Y58415D01*
Y60081D01*
X247755Y61747D01*
X251087D01*
X252753Y60081D01*
X236092Y61747D02*
X239424Y60081D01*
X242756Y56748D01*
Y53416D01*
X241090Y51750D01*
X237758D01*
X236092Y53416D01*
Y55082D01*
X237758Y56748D01*
X242756D01*
X437000Y186000D02*
Y195997D01*
X432002D01*
X430336Y194331D01*
Y190998D01*
X432002Y189332D01*
X437000D01*
X433668D02*
X430336Y186000D01*
X420339D02*
X427003D01*
X420339Y192665D01*
Y194331D01*
X422005Y195997D01*
X425337D01*
X427003Y194331D01*
X410342Y195997D02*
X417006D01*
Y190998D01*
X413674Y192665D01*
X412008D01*
X410342Y190998D01*
Y187666D01*
X412008Y186000D01*
X415340D01*
X417006Y187666D01*
X312000Y230500D02*
Y240497D01*
X307002D01*
X305336Y238831D01*
Y235498D01*
X307002Y233832D01*
X312000D01*
X308668D02*
X305336Y230500D01*
X295339D02*
X302003D01*
X295339Y237164D01*
Y238831D01*
X297005Y240497D01*
X300337D01*
X302003Y238831D01*
X287008Y230500D02*
Y240497D01*
X292006Y235498D01*
X285342D01*
X500000Y901000D02*
Y910997D01*
X495002D01*
X493335Y909331D01*
Y905998D01*
X495002Y904332D01*
X500000D01*
X496668D02*
X493335Y901000D01*
X483339D02*
X490003D01*
X483339Y907664D01*
Y909331D01*
X485005Y910997D01*
X488337D01*
X490003Y909331D01*
X480006D02*
X478340Y910997D01*
X475008D01*
X473342Y909331D01*
Y907664D01*
X475008Y905998D01*
X476674D01*
X475008D01*
X473342Y904332D01*
Y902666D01*
X475008Y901000D01*
X478340D01*
X480006Y902666D01*
X539500Y914500D02*
X549497D01*
Y919498D01*
X547831Y921164D01*
X544498D01*
X542832Y919498D01*
Y914500D01*
Y917832D02*
X539500Y921164D01*
Y924497D02*
Y927829D01*
Y926163D01*
X549497D01*
X547831Y924497D01*
X549497Y939492D02*
X547831Y936160D01*
X544498Y932827D01*
X541166D01*
X539500Y934494D01*
Y937826D01*
X541166Y939492D01*
X542832D01*
X544498Y937826D01*
Y932827D01*
X562000Y914000D02*
X571997D01*
Y918998D01*
X570331Y920665D01*
X566998D01*
X565332Y918998D01*
Y914000D01*
Y917332D02*
X562000Y920665D01*
Y923997D02*
Y927329D01*
Y925663D01*
X571997D01*
X570331Y923997D01*
X571997Y938992D02*
Y932327D01*
X566998D01*
X568665Y935660D01*
Y937326D01*
X566998Y938992D01*
X563666D01*
X562000Y937326D01*
Y933994D01*
X563666Y932327D01*
X192335Y967666D02*
Y974331D01*
X194002Y975997D01*
X197334D01*
X199000Y974331D01*
Y967666D01*
X197334Y966000D01*
X194002D01*
X195668Y969332D02*
X192335Y966000D01*
X194002D02*
X192335Y967666D01*
X189003Y975997D02*
X182339D01*
Y974331D01*
X189003Y967666D01*
Y966000D01*
X555835Y70166D02*
Y76831D01*
X557502Y78497D01*
X560834D01*
X562500Y76831D01*
Y70166D01*
X560834Y68500D01*
X557502D01*
X559168Y71832D02*
X555835Y68500D01*
X557502D02*
X555835Y70166D01*
X545839Y78497D02*
X549171Y76831D01*
X552503Y73498D01*
Y70166D01*
X550837Y68500D01*
X547505D01*
X545839Y70166D01*
Y71832D01*
X547505Y73498D01*
X552503D01*
X243335Y176166D02*
Y182831D01*
X245002Y184497D01*
X248334D01*
X250000Y182831D01*
Y176166D01*
X248334Y174500D01*
X245002D01*
X246668Y177832D02*
X243335Y174500D01*
X245002D02*
X243335Y176166D01*
X233339Y184497D02*
X240003D01*
Y179498D01*
X236671Y181164D01*
X235005D01*
X233339Y179498D01*
Y176166D01*
X235005Y174500D01*
X238337D01*
X240003Y176166D01*
X247836Y81166D02*
Y87831D01*
X249502Y89497D01*
X252834D01*
X254500Y87831D01*
Y81166D01*
X252834Y79500D01*
X249502D01*
X251168Y82832D02*
X247836Y79500D01*
X249502D02*
X247836Y81166D01*
X239505Y79500D02*
Y89497D01*
X244503Y84498D01*
X237839D01*
X373335Y205166D02*
Y211831D01*
X375002Y213497D01*
X378334D01*
X380000Y211831D01*
Y205166D01*
X378334Y203500D01*
X375002D01*
X376668Y206832D02*
X373335Y203500D01*
X375002D02*
X373335Y205166D01*
X370003Y211831D02*
X368337Y213497D01*
X365005D01*
X363339Y211831D01*
Y210165D01*
X365005Y208498D01*
X366671D01*
X365005D01*
X363339Y206832D01*
Y205166D01*
X365005Y203500D01*
X368337D01*
X370003Y205166D01*
X555835Y229997D02*
X559168D01*
X557502D01*
Y221666D01*
X559168Y220000D01*
X560834D01*
X562500Y221666D01*
X552503Y220000D02*
X549171D01*
X550837D01*
Y229997D01*
X552503Y228331D01*
X82500Y892500D02*
X92497D01*
Y897498D01*
X90831Y899165D01*
X87498D01*
X85832Y897498D01*
Y892500D01*
Y895832D02*
X82500Y899165D01*
X84166Y902497D02*
X82500Y904163D01*
Y907495D01*
X84166Y909161D01*
X90831D01*
X92497Y907495D01*
Y904163D01*
X90831Y902497D01*
X89164D01*
X87498Y904163D01*
Y909161D01*
M02*
