G04 Layer_Color=16711935*
%FSLAX44Y44*%
%MOMM*%
G71*
G01*
G75*
G04:AMPARAMS|DCode=52|XSize=1.2032mm|YSize=1.1032mm|CornerRadius=0.2141mm|HoleSize=0mm|Usage=FLASHONLY|Rotation=0.000|XOffset=0mm|YOffset=0mm|HoleType=Round|Shape=RoundedRectangle|*
%AMROUNDEDRECTD52*
21,1,1.2032,0.6750,0,0,0.0*
21,1,0.7750,1.1032,0,0,0.0*
1,1,0.4282,0.3875,-0.3375*
1,1,0.4282,-0.3875,-0.3375*
1,1,0.4282,-0.3875,0.3375*
1,1,0.4282,0.3875,0.3375*
%
%ADD52ROUNDEDRECTD52*%
G04:AMPARAMS|DCode=61|XSize=1.2032mm|YSize=1.1032mm|CornerRadius=0.2141mm|HoleSize=0mm|Usage=FLASHONLY|Rotation=270.000|XOffset=0mm|YOffset=0mm|HoleType=Round|Shape=RoundedRectangle|*
%AMROUNDEDRECTD61*
21,1,1.2032,0.6750,0,0,270.0*
21,1,0.7750,1.1032,0,0,270.0*
1,1,0.4282,-0.3375,-0.3875*
1,1,0.4282,-0.3375,0.3875*
1,1,0.4282,0.3375,0.3875*
1,1,0.4282,0.3375,-0.3875*
%
%ADD61ROUNDEDRECTD61*%
G04:AMPARAMS|DCode=65|XSize=0.8032mm|YSize=1.2032mm|CornerRadius=0.1766mm|HoleSize=0mm|Usage=FLASHONLY|Rotation=270.000|XOffset=0mm|YOffset=0mm|HoleType=Round|Shape=RoundedRectangle|*
%AMROUNDEDRECTD65*
21,1,0.8032,0.8500,0,0,270.0*
21,1,0.4500,1.2032,0,0,270.0*
1,1,0.3532,-0.4250,-0.2250*
1,1,0.3532,-0.4250,0.2250*
1,1,0.3532,0.4250,0.2250*
1,1,0.3532,0.4250,-0.2250*
%
%ADD65ROUNDEDRECTD65*%
G04:AMPARAMS|DCode=72|XSize=0.8032mm|YSize=1.2032mm|CornerRadius=0.1766mm|HoleSize=0mm|Usage=FLASHONLY|Rotation=0.000|XOffset=0mm|YOffset=0mm|HoleType=Round|Shape=RoundedRectangle|*
%AMROUNDEDRECTD72*
21,1,0.8032,0.8500,0,0,0.0*
21,1,0.4500,1.2032,0,0,0.0*
1,1,0.3532,0.2250,-0.4250*
1,1,0.3532,-0.2250,-0.4250*
1,1,0.3532,-0.2250,0.4250*
1,1,0.3532,0.2250,0.4250*
%
%ADD72ROUNDEDRECTD72*%
%ADD78C,1.7272*%
%ADD79C,0.2032*%
%ADD80C,2.2032*%
%ADD81C,1.0000*%
%ADD82P,1.4142X4X90.0*%
%ADD83P,1.4142X4X180.0*%
%ADD84C,0.9032*%
%ADD85R,0.2032X0.2032*%
%ADD86C,0.7032*%
G04:AMPARAMS|DCode=87|XSize=2.7032mm|YSize=1.7032mm|CornerRadius=0.4766mm|HoleSize=0mm|Usage=FLASHONLY|Rotation=180.000|XOffset=0mm|YOffset=0mm|HoleType=Round|Shape=RoundedRectangle|*
%AMROUNDEDRECTD87*
21,1,2.7032,0.7500,0,0,180.0*
21,1,1.7500,1.7032,0,0,180.0*
1,1,0.9532,-0.8750,0.3750*
1,1,0.9532,0.8750,0.3750*
1,1,0.9532,0.8750,-0.3750*
1,1,0.9532,-0.8750,-0.3750*
%
%ADD87ROUNDEDRECTD87*%
D52*
X212042Y925000D02*
D03*
Y942000D02*
D03*
X229585Y925077D02*
D03*
Y942076D02*
D03*
X545000Y949000D02*
D03*
Y966000D02*
D03*
X566500Y949000D02*
D03*
Y966000D02*
D03*
X400500Y183500D02*
D03*
Y200500D02*
D03*
X101500Y951500D02*
D03*
Y934500D02*
D03*
X49500Y908500D02*
D03*
Y891500D02*
D03*
X70000Y908500D02*
D03*
Y891500D02*
D03*
D61*
X509500Y906000D02*
D03*
X526500D02*
D03*
X226000Y56500D02*
D03*
X209000D02*
D03*
X205000Y212500D02*
D03*
X222000D02*
D03*
X341500Y38000D02*
D03*
X324500D02*
D03*
X257500Y39000D02*
D03*
X274500D02*
D03*
X290500Y221500D02*
D03*
X307500D02*
D03*
D65*
X382000Y183500D02*
D03*
X359000Y193000D02*
D03*
Y174000D02*
D03*
X542000Y48000D02*
D03*
X565000Y38500D02*
D03*
Y57500D02*
D03*
D72*
X220423Y960000D02*
D03*
X229923Y983000D02*
D03*
X210923D02*
D03*
X218000Y74500D02*
D03*
X227500Y97500D02*
D03*
X208500D02*
D03*
X213500Y192000D02*
D03*
X204000Y169000D02*
D03*
X223000D02*
D03*
D78*
X492000Y78000D02*
D03*
Y48000D02*
D03*
X275000Y59000D02*
D03*
X300000D02*
D03*
X325000D02*
D03*
Y204000D02*
D03*
X275000D02*
D03*
D79*
X300000Y862000D02*
D03*
Y288000D02*
D03*
Y962500D02*
D03*
Y924500D02*
D03*
X253500Y919000D02*
D03*
X245000Y134000D02*
D03*
D80*
X35800Y478500D02*
D03*
Y351500D02*
D03*
X272500Y956200D02*
D03*
Y930800D02*
D03*
X327500D02*
D03*
Y956200D02*
D03*
D81*
X385270Y22000D02*
D03*
X394250Y30980D02*
D03*
X412211Y48941D02*
D03*
X214710Y22000D02*
D03*
X205730Y30980D02*
D03*
X187769Y48941D02*
D03*
X385270Y246210D02*
D03*
X394250Y237230D02*
D03*
X412211Y219269D02*
D03*
X214710Y246210D02*
D03*
X205730Y237230D02*
D03*
X187769Y219270D02*
D03*
D82*
X403231Y39960D02*
D03*
X196749Y228250D02*
D03*
D83*
Y39961D02*
D03*
X403230Y228249D02*
D03*
D84*
X569000Y139500D02*
D03*
Y152000D02*
D03*
Y164500D02*
D03*
Y177000D02*
D03*
Y189500D02*
D03*
Y202000D02*
D03*
D85*
X355000Y134000D02*
D03*
D86*
X100750Y731250D02*
D03*
X76750Y614000D02*
D03*
X89650Y614150D02*
D03*
X308000Y385500D02*
D03*
X299000Y709500D02*
D03*
X52000Y700000D02*
D03*
X316500Y703000D02*
D03*
X316000Y714000D02*
D03*
X556000Y977000D02*
D03*
X548000Y982500D02*
D03*
X448000Y916000D02*
D03*
X539000Y906000D02*
D03*
X408500Y945500D02*
D03*
X409000Y985500D02*
D03*
X100500Y240499D02*
D03*
X265000Y720000D02*
D03*
X257500Y463000D02*
D03*
X301000Y399500D02*
D03*
X302500Y374500D02*
D03*
X350000Y387500D02*
D03*
X214000Y338500D02*
D03*
X136500Y815500D02*
D03*
X104500Y815000D02*
D03*
X128000Y834000D02*
D03*
X50000D02*
D03*
X83500D02*
D03*
X250000Y452500D02*
D03*
X449000Y867000D02*
D03*
X93750Y448500D02*
D03*
X117250Y192750D02*
D03*
X358750Y830500D02*
D03*
X371500Y816250D02*
D03*
X497750Y425000D02*
D03*
X350650Y336650D02*
D03*
X350650Y349350D02*
D03*
X145500Y448500D02*
D03*
X68500Y970000D02*
D03*
X102000Y971500D02*
D03*
X193000Y949500D02*
D03*
X223500Y440000D02*
D03*
X297850Y412850D02*
D03*
X569000Y279000D02*
D03*
X530500Y310500D02*
D03*
X395850Y400150D02*
D03*
X237000Y201000D02*
D03*
X236500Y211500D02*
D03*
X248500Y500500D02*
D03*
X238500Y500000D02*
D03*
X115050Y607950D02*
D03*
X95000Y717000D02*
D03*
X71500Y783000D02*
D03*
X115500D02*
D03*
X93500D02*
D03*
X160000Y706500D02*
D03*
Y717750D02*
D03*
Y729000D02*
D03*
X346500Y706500D02*
D03*
X355000Y694500D02*
D03*
X477500Y932000D02*
D03*
X298000Y719500D02*
D03*
X550500Y837000D02*
D03*
X349000Y463000D02*
D03*
X350000Y450950D02*
D03*
X458000Y475000D02*
D03*
Y524500D02*
D03*
X465500Y532000D02*
D03*
X497750Y335000D02*
D03*
X488500Y327000D02*
D03*
X466000D02*
D03*
X455500Y337500D02*
D03*
X442500Y459500D02*
D03*
X430650Y412850D02*
D03*
X100000Y550000D02*
D03*
X140000D02*
D03*
X60000Y834500D02*
D03*
X334999Y719999D02*
D03*
X371500Y921000D02*
D03*
X490000Y532000D02*
D03*
X497500Y522500D02*
D03*
X127750Y607750D02*
D03*
X365000Y900000D02*
D03*
X392500Y922500D02*
D03*
X497500Y487500D02*
D03*
X497750Y372000D02*
D03*
D87*
X522500Y972500D02*
D03*
X452500D02*
D03*
X522500Y932500D02*
D03*
X452500D02*
D03*
M02*
