G04 Layer_Color=32768*
%FSLAX44Y44*%
%MOMM*%
G71*
G01*
G75*
%ADD45C,0.5000*%
%ADD47C,0.1270*%
%ADD50C,0.2540*%
%ADD81C,1.0000*%
%ADD88C,0.2540*%
%ADD89C,0.5080*%
%ADD90C,0.1000*%
%ADD91C,0.0762*%
%ADD92C,0.1524*%
D45*
X233500Y823000D02*
D03*
X119250Y467250D02*
D03*
X220423Y971500D02*
D03*
X370500Y183500D02*
D03*
X218000Y86000D02*
D03*
X213500Y180500D02*
D03*
X553500Y48000D02*
D03*
X167750Y776000D02*
D03*
D47*
X264750Y804500D02*
X304750D01*
X308750Y808500D01*
Y822500D01*
X264750Y826500D02*
X304750D01*
X308750Y822500D01*
X260750D02*
X264750Y826500D01*
X260750Y808500D02*
Y822500D01*
Y808500D02*
X264750Y804500D01*
X125000Y283000D02*
Y329000D01*
X216000Y283000D02*
Y329000D01*
X125000D02*
X216000D01*
X125000Y283000D02*
X216000D01*
D50*
X-62540Y0D02*
X-2540D01*
X-62540Y1000000D02*
X-2540D01*
X-60000Y0D02*
Y451245D01*
Y540627D02*
Y1000000D01*
Y0D02*
X-54920Y15240D01*
X-65080D02*
X-60000Y0D01*
X-65080Y984760D02*
X-60000Y1000000D01*
X-54920Y984760D01*
X600000Y-62540D02*
Y-2540D01*
X0Y-62540D02*
Y-2540D01*
X334279Y-60000D02*
X600000D01*
X0D02*
X257593D01*
X584760Y-54920D02*
X600000Y-60000D01*
X584760Y-65080D02*
X600000Y-60000D01*
X0D02*
X15240Y-65080D01*
X0Y-60000D02*
X15240Y-54920D01*
X414500Y812000D02*
Y1060712D01*
X594000D01*
Y812000D02*
Y1060712D01*
X414500Y812000D02*
X594000D01*
D81*
X170500Y306000D02*
D03*
D88*
X253500Y431500D02*
D03*
X400000Y314000D02*
D03*
X380500Y297000D02*
D03*
X477000Y523500D02*
D03*
X477000Y335500D02*
D03*
X419500Y302500D02*
D03*
X399500Y468000D02*
D03*
X415000D02*
D03*
X229500Y330500D02*
D03*
X250500D02*
D03*
X518000Y906000D02*
D03*
X283500Y772250D02*
D03*
X235750Y787500D02*
D03*
Y763750D02*
D03*
X188500Y822750D02*
D03*
X349500Y792750D02*
D03*
Y763000D02*
D03*
X129500Y431500D02*
D03*
X91250Y471750D02*
D03*
X94250Y431750D02*
D03*
X118750Y530500D02*
D03*
X91250Y522000D02*
D03*
X73250D02*
D03*
X99500Y307500D02*
D03*
X53500Y171250D02*
D03*
X39500Y260250D02*
D03*
Y206250D02*
D03*
X82500Y285250D02*
D03*
X82330Y162370D02*
D03*
X131500Y170000D02*
D03*
X82330Y181420D02*
D03*
X280500Y505500D02*
D03*
X39500Y285250D02*
D03*
X99750Y329750D02*
D03*
X242500Y356500D02*
D03*
X34070Y171250D02*
D03*
X212042Y933500D02*
D03*
X229585Y933577D02*
D03*
X389000Y977000D02*
D03*
Y956250D02*
D03*
Y935500D02*
D03*
X545000Y957500D02*
D03*
X566500D02*
D03*
X400500Y192000D02*
D03*
X217500Y56500D02*
D03*
X213500Y212500D02*
D03*
X101500Y943000D02*
D03*
X49500Y900000D02*
D03*
X372500Y506500D02*
D03*
X333000Y38000D02*
D03*
X266000Y39000D02*
D03*
X299000Y221500D02*
D03*
X579500Y798500D02*
D03*
X70000Y900000D02*
D03*
X425767Y729000D02*
D03*
D89*
X284750Y815500D02*
D03*
X131500Y225000D02*
D03*
X148750Y511500D02*
D03*
D90*
X246500Y416500D02*
Y446500D01*
X260500Y416500D02*
Y446500D01*
X246500Y416500D02*
X260500D01*
X246500Y446500D02*
X260500D01*
X393000Y299000D02*
Y329000D01*
X407000Y299000D02*
Y329000D01*
X393000Y299000D02*
X407000D01*
X393000Y329000D02*
X407000D01*
X373500Y282000D02*
Y312000D01*
X387500Y282000D02*
Y312000D01*
X373500Y282000D02*
X387500D01*
X373500Y312000D02*
X387500D01*
X484000Y508500D02*
Y538500D01*
X470000Y508500D02*
Y538500D01*
X484000D01*
X470000Y508500D02*
X484000D01*
X470000Y320500D02*
Y350500D01*
X484000Y320500D02*
Y350500D01*
X470000Y320500D02*
X484000D01*
X470000Y350500D02*
X484000D01*
X412500Y287500D02*
Y317500D01*
X426500Y287500D02*
Y317500D01*
X412500Y287500D02*
X426500D01*
X412500Y317500D02*
X426500D01*
X406500Y453000D02*
Y483000D01*
X392500Y453000D02*
Y483000D01*
X406500D01*
X392500Y453000D02*
X406500D01*
X422000D02*
Y483000D01*
X408000Y453000D02*
Y483000D01*
X422000D01*
X408000Y453000D02*
X422000D01*
X222500Y315500D02*
Y345500D01*
X236500Y315500D02*
Y345500D01*
X222500Y315500D02*
X236500D01*
X222500Y345500D02*
X236500D01*
X243500Y315500D02*
Y345500D01*
X257500Y315500D02*
Y345500D01*
X243500Y315500D02*
X257500D01*
X243500Y345500D02*
X257500D01*
X503000Y899000D02*
X533000D01*
X503000Y913000D02*
X533000D01*
X503000Y899000D02*
Y913000D01*
X533000Y899000D02*
Y913000D01*
X268500Y779250D02*
X298500D01*
X268500Y765250D02*
X298500D01*
X268500D02*
Y779250D01*
X298500Y765250D02*
Y779250D01*
X220750Y794500D02*
X250750D01*
X220750Y780500D02*
X250750D01*
X220750D02*
Y794500D01*
X250750Y780500D02*
Y794500D01*
X220750Y756750D02*
X250750D01*
X220750Y770750D02*
X250750D01*
Y756750D02*
Y770750D01*
X220750Y756750D02*
Y770750D01*
X181500Y807750D02*
Y837750D01*
X195500Y807750D02*
Y837750D01*
X181500Y807750D02*
X195500D01*
X181500Y837750D02*
X195500D01*
X365500Y783750D02*
Y801750D01*
X333500Y783750D02*
Y801750D01*
Y783750D02*
X365500D01*
X333500Y801750D02*
X365500D01*
X333500Y754000D02*
Y772000D01*
X365500Y754000D02*
Y772000D01*
X333500D02*
X365500D01*
X333500Y754000D02*
X365500D01*
X114500Y424500D02*
X144500D01*
X114500Y438500D02*
X144500D01*
Y424500D02*
Y438500D01*
X114500Y424500D02*
Y438500D01*
X98250Y456750D02*
Y486750D01*
X84250Y456750D02*
Y486750D01*
X98250D01*
X84250Y456750D02*
X98250D01*
X79250Y438750D02*
X109250D01*
X79250Y424750D02*
X109250D01*
X79250D02*
Y438750D01*
X109250Y424750D02*
Y438750D01*
X103750Y523500D02*
X133750D01*
X103750Y537500D02*
X133750D01*
Y523500D02*
Y537500D01*
X103750Y523500D02*
Y537500D01*
X98250Y507000D02*
Y537000D01*
X84250Y507000D02*
Y537000D01*
X98250D01*
X84250Y507000D02*
X98250D01*
X80250D02*
Y537000D01*
X66250Y507000D02*
Y537000D01*
X80250D01*
X66250Y507000D02*
X80250D01*
X84500Y314500D02*
X114500D01*
X84500Y300500D02*
X114500D01*
X84500D02*
Y314500D01*
X114500Y300500D02*
Y314500D01*
X60500Y156250D02*
Y186250D01*
X46500Y156250D02*
Y186250D01*
X60500D01*
X46500Y156250D02*
X60500D01*
X24500Y253250D02*
X54500D01*
X24500Y267250D02*
X54500D01*
Y253250D02*
Y267250D01*
X24500Y253250D02*
Y267250D01*
Y199250D02*
X54500D01*
X24500Y213250D02*
X54500D01*
Y199250D02*
Y213250D01*
X24500Y199250D02*
Y213250D01*
X67500Y292250D02*
X97500D01*
X67500Y278250D02*
X97500D01*
X67500D02*
Y292250D01*
X97500Y278250D02*
Y292250D01*
X67330Y169370D02*
X97330D01*
X67330Y155370D02*
X97330D01*
X67330D02*
Y169370D01*
X97330Y155370D02*
Y169370D01*
X138500Y155000D02*
Y185000D01*
X124500Y155000D02*
Y185000D01*
X138500D01*
X124500Y155000D02*
X138500D01*
X67330Y188420D02*
X97330D01*
X67330Y174420D02*
X97330D01*
X67330D02*
Y188420D01*
X97330Y174420D02*
Y188420D01*
X265500Y512500D02*
X295500D01*
X265500Y498500D02*
X295500D01*
X265500D02*
Y512500D01*
X295500Y498500D02*
Y512500D01*
X24500Y292250D02*
X54500D01*
X24500Y278250D02*
X54500D01*
X24500D02*
Y292250D01*
X54500Y278250D02*
Y292250D01*
X84750Y336750D02*
X114750D01*
X84750Y322750D02*
X114750D01*
X84750D02*
Y336750D01*
X114750Y322750D02*
Y336750D01*
X227500Y363500D02*
X257500D01*
X227500Y349500D02*
X257500D01*
X227500D02*
Y363500D01*
X257500Y349500D02*
Y363500D01*
X27070Y156250D02*
Y186250D01*
X41070Y156250D02*
Y186250D01*
X27070Y156250D02*
X41070D01*
X27070Y186250D02*
X41070D01*
X219042Y918500D02*
Y948500D01*
X205042Y918500D02*
Y948500D01*
Y918500D02*
X219042D01*
X205042Y948500D02*
X219042D01*
X236585Y918577D02*
Y948577D01*
X222585Y918577D02*
Y948577D01*
Y918577D02*
X236585D01*
X222585Y948577D02*
X236585D01*
X374000Y970000D02*
X404000D01*
X374000Y984000D02*
X404000D01*
Y970000D02*
Y984000D01*
X374000Y970000D02*
Y984000D01*
Y963250D02*
X404000D01*
X374000Y949250D02*
X404000D01*
X374000D02*
Y963250D01*
X404000Y949250D02*
Y963250D01*
X374000Y942500D02*
X404000D01*
X374000Y928500D02*
X404000D01*
X374000D02*
Y942500D01*
X404000Y928500D02*
Y942500D01*
X552000Y942500D02*
Y972500D01*
X538000Y942500D02*
Y972500D01*
Y942500D02*
X552000D01*
X538000Y972500D02*
X552000D01*
X573500Y942500D02*
Y972500D01*
X559500Y942500D02*
Y972500D01*
Y942500D02*
X573500D01*
X559500Y972500D02*
X573500D01*
X407500Y177000D02*
Y207000D01*
X393500Y177000D02*
Y207000D01*
Y177000D02*
X407500D01*
X393500Y207000D02*
X407500D01*
X202500Y63500D02*
X232500D01*
X202500Y49500D02*
X232500D01*
Y63500D01*
X202500Y49500D02*
Y63500D01*
X198500Y205500D02*
X228500D01*
X198500Y219500D02*
X228500D01*
X198500Y205500D02*
Y219500D01*
X228500Y205500D02*
Y219500D01*
X94500Y928000D02*
Y958000D01*
X108500Y928000D02*
Y958000D01*
X94500D02*
X108500D01*
X94500Y928000D02*
X108500D01*
X42500Y885000D02*
Y915000D01*
X56500Y885000D02*
Y915000D01*
X42500D02*
X56500D01*
X42500Y885000D02*
X56500D01*
X357500Y499500D02*
X387500D01*
X357500Y513500D02*
X387500D01*
Y499500D02*
Y513500D01*
X357500Y499500D02*
Y513500D01*
X318000Y45000D02*
X348000D01*
X318000Y31000D02*
X348000D01*
Y45000D01*
X318000Y31000D02*
Y45000D01*
X251000Y32000D02*
X281000D01*
X251000Y46000D02*
X281000D01*
X251000Y32000D02*
Y46000D01*
X281000Y32000D02*
Y46000D01*
X284000Y214500D02*
X314000D01*
X284000Y228500D02*
X314000D01*
X284000Y214500D02*
Y228500D01*
X314000Y214500D02*
Y228500D01*
X564500Y791500D02*
X594500D01*
X564500Y805500D02*
X594500D01*
Y791500D02*
Y805500D01*
X564500Y791500D02*
Y805500D01*
X504250Y938475D02*
Y943555D01*
X501710Y941015D02*
X506790D01*
X63000Y885000D02*
Y915000D01*
X77000Y885000D02*
Y915000D01*
X63000D02*
X77000D01*
X63000Y885000D02*
X77000D01*
X432767Y714000D02*
Y744000D01*
X418767Y714000D02*
Y744000D01*
X432767D01*
X418767Y714000D02*
X432767D01*
D91*
X252500Y805500D02*
Y840500D01*
X214500Y805500D02*
X252500D01*
X214500D02*
Y840500D01*
X252500D01*
X135760Y446930D02*
Y487570D01*
X102740D02*
X135760D01*
X102740Y446930D02*
Y487570D01*
Y446930D02*
X135760D01*
X141500Y198750D02*
Y251250D01*
X121500Y198750D02*
X141500D01*
X121500D02*
Y251250D01*
X141500D01*
X58060Y270280D02*
X111060D01*
X58060Y196280D02*
X111060D01*
Y270280D01*
X58060Y196280D02*
Y270280D01*
X202923Y952500D02*
X237923D01*
Y990500D01*
X202923D02*
X237923D01*
X202923Y952500D02*
Y990500D01*
X389500Y166000D02*
Y201000D01*
X351500D02*
X389500D01*
X351500Y166000D02*
Y201000D01*
Y166000D02*
X389500D01*
X200500Y67000D02*
X235500D01*
Y105000D01*
X200500D02*
X235500D01*
X200500Y67000D02*
Y105000D01*
X196000Y199500D02*
X231000D01*
X196000Y161500D02*
Y199500D01*
Y161500D02*
X231000D01*
Y199500D01*
X534500Y30500D02*
Y65500D01*
Y30500D02*
X572500D01*
Y65500D01*
X534500D02*
X572500D01*
X138750Y485250D02*
Y537750D01*
X158750D01*
Y485250D02*
Y537750D01*
X138750Y485250D02*
X158750D01*
X150250Y795000D02*
X185250D01*
Y757000D02*
Y795000D01*
X150250Y757000D02*
X185250D01*
X150250D02*
Y795000D01*
D92*
X-50858Y455309D02*
Y460387D01*
Y457848D01*
X-66094D01*
X-63554Y455309D01*
Y468005D02*
X-66094Y470544D01*
Y475623D01*
X-63554Y478162D01*
X-53398D01*
X-50858Y475623D01*
Y470544D01*
X-53398Y468005D01*
X-63554D01*
Y483240D02*
X-66094Y485779D01*
Y490858D01*
X-63554Y493397D01*
X-53398D01*
X-50858Y490858D01*
Y485779D01*
X-53398Y483240D01*
X-63554D01*
X-50858Y498475D02*
X-53398D01*
Y501014D01*
X-50858D01*
Y498475D01*
X-63554Y511171D02*
X-66094Y513710D01*
Y518789D01*
X-63554Y521328D01*
X-53398D01*
X-50858Y518789D01*
Y513710D01*
X-53398Y511171D01*
X-63554D01*
Y526406D02*
X-66094Y528945D01*
Y534024D01*
X-63554Y536563D01*
X-53398D01*
X-50858Y534024D01*
Y528945D01*
X-53398Y526406D01*
X-63554D01*
X271814Y-53906D02*
X266735Y-56446D01*
X261657Y-61524D01*
Y-66602D01*
X264196Y-69142D01*
X269275D01*
X271814Y-66602D01*
Y-64063D01*
X269275Y-61524D01*
X261657D01*
X276892Y-56446D02*
X279431Y-53906D01*
X284510D01*
X287049Y-56446D01*
Y-66602D01*
X284510Y-69142D01*
X279431D01*
X276892Y-66602D01*
Y-56446D01*
X292127Y-69142D02*
Y-66602D01*
X294666D01*
Y-69142D01*
X292127D01*
X304823Y-56446D02*
X307362Y-53906D01*
X312441D01*
X314980Y-56446D01*
Y-66602D01*
X312441Y-69142D01*
X307362D01*
X304823Y-66602D01*
Y-56446D01*
X320058D02*
X322597Y-53906D01*
X327676D01*
X330215Y-56446D01*
Y-66602D01*
X327676Y-69142D01*
X322597D01*
X320058Y-66602D01*
Y-56446D01*
M02*
