G04 Layer_Physical_Order=2*
G04 Layer_Color=16711680*
%FSLAX44Y44*%
%MOMM*%
G71*
G01*
G75*
G04:AMPARAMS|DCode=10|XSize=1mm|YSize=0.9mm|CornerRadius=0.1125mm|HoleSize=0mm|Usage=FLASHONLY|Rotation=0.000|XOffset=0mm|YOffset=0mm|HoleType=Round|Shape=RoundedRectangle|*
%AMROUNDEDRECTD10*
21,1,1.0000,0.6750,0,0,0.0*
21,1,0.7750,0.9000,0,0,0.0*
1,1,0.2250,0.3875,-0.3375*
1,1,0.2250,-0.3875,-0.3375*
1,1,0.2250,-0.3875,0.3375*
1,1,0.2250,0.3875,0.3375*
%
%ADD10ROUNDEDRECTD10*%
G04:AMPARAMS|DCode=18|XSize=1mm|YSize=0.9mm|CornerRadius=0.1125mm|HoleSize=0mm|Usage=FLASHONLY|Rotation=270.000|XOffset=0mm|YOffset=0mm|HoleType=Round|Shape=RoundedRectangle|*
%AMROUNDEDRECTD18*
21,1,1.0000,0.6750,0,0,270.0*
21,1,0.7750,0.9000,0,0,270.0*
1,1,0.2250,-0.3375,-0.3875*
1,1,0.2250,-0.3375,0.3875*
1,1,0.2250,0.3375,0.3875*
1,1,0.2250,0.3375,-0.3875*
%
%ADD18ROUNDEDRECTD18*%
G04:AMPARAMS|DCode=22|XSize=0.6mm|YSize=1mm|CornerRadius=0.075mm|HoleSize=0mm|Usage=FLASHONLY|Rotation=270.000|XOffset=0mm|YOffset=0mm|HoleType=Round|Shape=RoundedRectangle|*
%AMROUNDEDRECTD22*
21,1,0.6000,0.8500,0,0,270.0*
21,1,0.4500,1.0000,0,0,270.0*
1,1,0.1500,-0.4250,-0.2250*
1,1,0.1500,-0.4250,0.2250*
1,1,0.1500,0.4250,0.2250*
1,1,0.1500,0.4250,-0.2250*
%
%ADD22ROUNDEDRECTD22*%
G04:AMPARAMS|DCode=29|XSize=0.6mm|YSize=1mm|CornerRadius=0.075mm|HoleSize=0mm|Usage=FLASHONLY|Rotation=0.000|XOffset=0mm|YOffset=0mm|HoleType=Round|Shape=RoundedRectangle|*
%AMROUNDEDRECTD29*
21,1,0.6000,0.8500,0,0,0.0*
21,1,0.4500,1.0000,0,0,0.0*
1,1,0.1500,0.2250,-0.4250*
1,1,0.1500,-0.2250,-0.4250*
1,1,0.1500,-0.2250,0.4250*
1,1,0.1500,0.2250,0.4250*
%
%ADD29ROUNDEDRECTD29*%
%ADD35C,0.2000*%
%ADD36C,0.5000*%
%ADD39C,1.5240*%
%ADD40C,2.0000*%
%ADD41C,0.9000*%
%ADD42P,1.2728X4X90.0*%
%ADD43P,1.2728X4X180.0*%
%ADD44C,0.7000*%
%ADD45C,0.5000*%
G04:AMPARAMS|DCode=46|XSize=2.5mm|YSize=1.5mm|CornerRadius=0.375mm|HoleSize=0mm|Usage=FLASHONLY|Rotation=180.000|XOffset=0mm|YOffset=0mm|HoleType=Round|Shape=RoundedRectangle|*
%AMROUNDEDRECTD46*
21,1,2.5000,0.7500,0,0,180.0*
21,1,1.7500,1.5000,0,0,180.0*
1,1,0.7500,-0.8750,0.3750*
1,1,0.7500,0.8750,0.3750*
1,1,0.7500,0.8750,-0.3750*
1,1,0.7500,-0.8750,-0.3750*
%
%ADD46ROUNDEDRECTD46*%
D10*
X212042Y925000D02*
D03*
Y942000D02*
D03*
X229585Y925077D02*
D03*
Y942076D02*
D03*
X545000Y949000D02*
D03*
Y966000D02*
D03*
X566500Y949000D02*
D03*
Y966000D02*
D03*
X400500Y183500D02*
D03*
Y200500D02*
D03*
X101500Y951500D02*
D03*
Y934500D02*
D03*
X49500Y908500D02*
D03*
Y891500D02*
D03*
X70000Y908500D02*
D03*
Y891500D02*
D03*
D18*
X509500Y906000D02*
D03*
X526500D02*
D03*
X226000Y56500D02*
D03*
X209000D02*
D03*
X205000Y212500D02*
D03*
X222000D02*
D03*
X341500Y38000D02*
D03*
X324500D02*
D03*
X257500Y39000D02*
D03*
X274500D02*
D03*
X290500Y221500D02*
D03*
X307500D02*
D03*
D22*
X382000Y183500D02*
D03*
X359000Y193000D02*
D03*
Y174000D02*
D03*
X542000Y48000D02*
D03*
X565000Y38500D02*
D03*
Y57500D02*
D03*
D29*
X220423Y960000D02*
D03*
X229923Y983000D02*
D03*
X210923D02*
D03*
X218000Y74500D02*
D03*
X227500Y97500D02*
D03*
X208500D02*
D03*
X213500Y192000D02*
D03*
X204000Y169000D02*
D03*
X223000D02*
D03*
D35*
X77500Y710250D02*
X98500Y731250D01*
X100750D01*
X77500Y658000D02*
Y710250D01*
X125000Y582250D02*
X150000Y557250D01*
Y529000D02*
Y557250D01*
Y529000D02*
X209850Y469150D01*
X106250Y582250D02*
X125000D01*
X76750Y611750D02*
X106250Y582250D01*
X77500Y658000D02*
X127750Y607750D01*
X76750Y611750D02*
Y614000D01*
X89650Y612850D02*
Y614150D01*
Y612850D02*
X114500Y588000D01*
X127685D01*
X155750Y559935D01*
X341500Y38480D02*
X397357D01*
X308000Y381500D02*
Y385500D01*
Y381500D02*
X325000Y364500D01*
X291500Y397000D02*
Y458500D01*
Y397000D02*
X297500Y391000D01*
X346500D01*
X350000Y387500D01*
X210000Y729000D02*
X229500Y709500D01*
X299000D01*
X100500Y819250D02*
X132750D01*
X22750D02*
X100500D01*
Y819000D02*
Y819250D01*
Y819000D02*
X104500Y815000D01*
X319500Y724500D02*
Y740001D01*
X315000Y703000D02*
X316500D01*
X308000Y696000D02*
X315000Y703000D01*
X306000Y704000D02*
X316000Y714000D01*
X222500Y704000D02*
X306000D01*
X208750Y717750D02*
X222500Y704000D01*
X219500Y696000D02*
X308000D01*
X209000Y706500D02*
X219500Y696000D01*
X160000Y729000D02*
X210000D01*
X160000Y717750D02*
X208750D01*
X160000Y706500D02*
X209000D01*
X566500Y966000D02*
Y971500D01*
X561000Y977000D02*
X566500Y971500D01*
X556000Y977000D02*
X561000D01*
X545000Y979500D02*
X548000Y982500D01*
X526500Y906000D02*
X539000D01*
X526500Y906000D02*
X526500Y906000D01*
X230500Y447000D02*
X246500Y463000D01*
X257500D01*
X209850Y469150D02*
X280850D01*
X291500Y458500D01*
X307500Y312500D02*
Y369500D01*
X302500Y374500D02*
X307500Y369500D01*
X8000Y804500D02*
X22750Y819250D01*
X132750D02*
X136500Y815500D01*
X101500Y934500D02*
X128000Y908000D01*
X307500Y312500D02*
X318900Y301100D01*
X325000Y204000D02*
Y364500D01*
X196749Y39961D02*
X197710Y39000D01*
X401270Y38000D02*
X403231Y39960D01*
X341500Y38000D02*
Y38480D01*
X324500Y38000D02*
X325000Y38500D01*
Y59000D01*
X274500Y39000D02*
X275000Y39500D01*
Y59000D01*
X472000Y906000D02*
X509500D01*
X212042Y951619D02*
X220423Y960000D01*
X212042Y942000D02*
Y951619D01*
X229585Y942076D02*
X229923Y942415D01*
X229585Y925077D02*
X235308Y930800D01*
X327500Y930080D02*
Y930800D01*
X449000Y874000D02*
X468500Y893500D01*
X543500D02*
X566500Y916500D01*
Y949000D01*
X449000Y867000D02*
Y874000D01*
X545000Y904000D02*
Y949000D01*
X534500Y893500D02*
X545000Y904000D01*
X468500Y893500D02*
X534500D01*
X543500D01*
X492000Y48000D02*
X542000D01*
X343500Y329500D02*
X350650Y336650D01*
X343500Y229500D02*
Y329500D01*
Y229500D02*
X369500Y203500D01*
Y184500D02*
Y203500D01*
X359000Y174000D02*
X369500Y184500D01*
X382000Y183500D02*
X400500D01*
Y200500D02*
Y207559D01*
X412211Y219269D01*
X336500Y335200D02*
X350650Y349350D01*
X397357Y38480D02*
X397837Y38000D01*
X401270D01*
X208500Y97500D02*
Y103500D01*
X222000Y117000D01*
X218000Y64500D02*
Y74500D01*
Y64500D02*
X226000Y56500D01*
X197710Y39000D02*
X257500D01*
X180000Y56500D02*
X209000D01*
X177000Y53500D02*
X180000Y56500D01*
X177000Y43000D02*
Y53500D01*
Y43000D02*
X189403Y30597D01*
X205346D01*
X205730Y30980D01*
X204000Y157500D02*
Y169000D01*
X205000Y200500D02*
X213500Y192000D01*
X214710Y246210D02*
X222000Y238920D01*
Y212500D02*
Y238920D01*
X205000Y200500D02*
Y212500D01*
X449000Y874000D02*
Y883000D01*
X472000Y906000D01*
X193000Y949500D02*
Y965077D01*
X210923Y983000D01*
X569000Y202000D02*
Y279000D01*
X237000Y201000D02*
Y201500D01*
X230500Y208000D02*
X237000Y201500D01*
X307500Y221500D02*
X325000Y204000D01*
X325000D01*
X222000Y117000D02*
X281000D01*
X336500Y172500D01*
Y335200D01*
X290500Y202500D02*
Y221500D01*
X235000Y147000D02*
X290500Y202500D01*
X197500Y147000D02*
X235000D01*
X177000Y167500D02*
X197500Y147000D01*
X177000Y167500D02*
Y224500D01*
X180750Y228250D01*
X196749D01*
X261500Y97500D02*
X300000Y59000D01*
X227500Y97500D02*
X261500D01*
X226000Y155000D02*
X275000Y204000D01*
X204000Y157500D02*
X206500Y155000D01*
X226000D01*
X223000Y169000D02*
X318900Y264900D01*
Y301100D01*
X235308Y930800D02*
X272500D01*
X230500Y208000D02*
Y447000D01*
X212042Y925000D02*
X228042Y909000D01*
X255000Y968000D02*
X266000Y979000D01*
X255000Y948300D02*
Y968000D01*
Y948300D02*
X272500Y930800D01*
X266000Y979000D02*
X328500D01*
X226500Y476000D02*
X283500D01*
X238500Y500000D02*
Y619500D01*
X248500Y500500D02*
Y626000D01*
X239000Y484000D02*
X285500D01*
X115050Y607950D02*
X239000Y484000D01*
X141000Y717000D02*
X238500Y619500D01*
X95000Y717000D02*
X141000D01*
X328500Y979000D02*
X340500Y967000D01*
X306420Y909000D02*
X327500Y930080D01*
X228042Y909000D02*
X306420D01*
X229923Y942415D02*
Y983000D01*
X71500Y783000D02*
X120000Y734500D01*
X343500Y177500D02*
X359000Y193000D01*
X343500Y124500D02*
Y177500D01*
Y124500D02*
X388500Y79500D01*
X405500D01*
X472000Y13000D01*
X452500Y972500D02*
X506500Y918500D01*
X353250Y696250D02*
X355000Y694500D01*
X353250Y696250D02*
Y859250D01*
X506500Y918500D02*
X514000D01*
X526500Y906000D01*
X115500Y783000D02*
X155000Y743500D01*
X298000Y719500D02*
X302500D01*
X305250Y722250D02*
Y724750D01*
X302500Y719500D02*
X305250Y722250D01*
X316001Y743500D02*
X319500Y740001D01*
X242500Y445000D02*
X250000Y452500D01*
X236500Y211500D02*
X242500Y217500D01*
Y445000D01*
X565000Y57500D02*
Y120500D01*
X524000Y209500D02*
X569000Y164500D01*
X511500Y209500D02*
X569000Y152000D01*
X291000Y739000D02*
X305250Y724750D01*
X93500Y783000D02*
X137500Y739000D01*
X285500Y484000D02*
X306500Y463000D01*
X349000D01*
X283500Y476000D02*
X308550Y450950D01*
X350000D01*
X297850Y412850D02*
X312500Y427500D01*
X301000Y399500D02*
X319500Y418000D01*
X446602Y238898D02*
X565000Y120500D01*
X446602Y238898D02*
Y349398D01*
X395850Y400150D02*
X446602Y349398D01*
X511500Y209500D02*
Y292292D01*
X319500Y418000D02*
X385792D01*
X511500Y292292D01*
X312500Y427500D02*
X395778D01*
X524000Y299278D01*
Y209500D02*
Y299278D01*
X128000Y834000D02*
Y908000D01*
X155750Y546750D02*
Y559935D01*
Y546750D02*
X226500Y476000D01*
X70000Y870000D02*
Y891500D01*
X60000Y860000D02*
X70000Y870000D01*
X60000Y834500D02*
Y860000D01*
X324001Y719999D02*
X334999D01*
X248500Y626000D02*
X336999Y714499D01*
X337277D01*
X340500Y717721D01*
X319500Y724500D02*
X324001Y719999D01*
X401000Y938000D02*
X408500Y945500D01*
X455500Y910000D02*
X477500Y932000D01*
X353250Y859250D02*
X404000Y910000D01*
X455500D01*
X401500Y916000D02*
X448000D01*
X263500Y720000D02*
X265000D01*
X120000Y734500D02*
X249000D01*
X263500Y720000D01*
X137500Y739000D02*
X291000D01*
X155000Y743500D02*
X316001D01*
X346500Y706500D02*
Y861000D01*
X401500Y916000D01*
X340500Y717721D02*
Y967000D01*
X409000Y985500D02*
X452500Y942000D01*
Y932500D02*
Y942000D01*
X545000Y966000D02*
Y979500D01*
X50000Y834000D02*
Y891000D01*
X49500Y891500D02*
X50000Y891000D01*
X365000Y900000D02*
X387500Y922500D01*
X392500D01*
X371500Y921000D02*
X388500Y938000D01*
X401000D01*
D36*
X45000Y707000D02*
X52000Y700000D01*
X117250Y192750D02*
Y218250D01*
X100500Y235000D02*
X117250Y218250D01*
X100500Y235000D02*
Y240499D01*
X149500Y403000D02*
X214000Y338500D01*
X123000Y403000D02*
X149500D01*
X522500Y932500D02*
Y972500D01*
X8000Y506300D02*
X35800Y478500D01*
X220423Y992500D02*
X229923Y983000D01*
X502500Y992500D02*
X522500Y972500D01*
X8000Y506300D02*
Y685000D01*
X30000Y707000D01*
X45000D01*
X300000Y28500D02*
Y59000D01*
Y28500D02*
X315500Y13000D01*
X93750Y448500D02*
X145500D01*
X102000Y952000D02*
Y971500D01*
X101500Y951500D02*
X102000Y952000D01*
X8000Y969000D02*
X31500Y992500D01*
X220423D01*
X68500Y951500D02*
Y970000D01*
X35800Y478500D02*
X57800Y456500D01*
X69500D01*
X536500Y209500D02*
Y272000D01*
X530500Y310500D02*
X542500D01*
X315500Y13000D02*
X472000D01*
X571000D01*
X220423Y992500D02*
X502500D01*
X573500D01*
X580500Y867000D02*
Y985500D01*
X573500Y992500D02*
X580500Y985500D01*
X550500Y837000D02*
X580500Y867000D01*
X544000Y830500D02*
X550500Y837000D01*
X358750Y830500D02*
X544000D01*
X371500Y816250D02*
X529750D01*
Y367750D02*
Y461539D01*
Y816250D01*
X497750Y425000D02*
X529750Y461539D01*
X542500Y310500D02*
X555000Y323000D01*
Y342500D01*
X529750Y367750D02*
X555000Y342500D01*
X536500Y272000D02*
X571000Y306500D01*
Y326500D01*
X555000Y342500D02*
X571000Y326500D01*
X590500Y307000D01*
X571000Y13000D02*
X590500Y32500D01*
X207000Y456500D02*
X223500Y440000D01*
X69500Y456500D02*
X207000D01*
X69500D02*
X123000Y403000D01*
X565000Y38500D02*
X583000D01*
X590500Y46000D01*
Y32500D02*
Y46000D01*
Y307000D01*
X536500Y209500D02*
X569000Y177000D01*
X100000Y550000D02*
X140000D01*
X8000Y804500D02*
Y969000D01*
Y685000D02*
Y804500D01*
X49500Y908500D02*
Y932500D01*
X68500Y951500D01*
Y910000D02*
X70000Y908500D01*
X68500Y949500D02*
Y951500D01*
Y910000D02*
Y949500D01*
X83500Y934500D01*
Y834000D02*
Y934500D01*
X529750Y816250D02*
X544000Y830500D01*
D39*
X492000Y78000D02*
D03*
Y48000D02*
D03*
X275000Y59000D02*
D03*
X300000D02*
D03*
X325000D02*
D03*
Y204000D02*
D03*
X275000D02*
D03*
D40*
X35800Y478500D02*
D03*
Y351500D02*
D03*
X272500Y956200D02*
D03*
Y930800D02*
D03*
X327500D02*
D03*
Y956200D02*
D03*
D41*
X385270Y22000D02*
D03*
X394250Y30980D02*
D03*
X412211Y48941D02*
D03*
X214710Y22000D02*
D03*
X205730Y30980D02*
D03*
X187769Y48941D02*
D03*
X385270Y246210D02*
D03*
X394250Y237230D02*
D03*
X412211Y219269D02*
D03*
X214710Y246210D02*
D03*
X205730Y237230D02*
D03*
X187769Y219270D02*
D03*
D42*
X403231Y39960D02*
D03*
X196749Y228250D02*
D03*
D43*
Y39961D02*
D03*
X403230Y228249D02*
D03*
D44*
X569000Y139500D02*
D03*
Y152000D02*
D03*
Y164500D02*
D03*
Y177000D02*
D03*
Y189500D02*
D03*
Y202000D02*
D03*
D45*
X100750Y731250D02*
D03*
X76750Y614000D02*
D03*
X89650Y614150D02*
D03*
X308000Y385500D02*
D03*
X299000Y709500D02*
D03*
X52000Y700000D02*
D03*
X316500Y703000D02*
D03*
X316000Y714000D02*
D03*
X556000Y977000D02*
D03*
X548000Y982500D02*
D03*
X448000Y916000D02*
D03*
X539000Y906000D02*
D03*
X408500Y945500D02*
D03*
X409000Y985500D02*
D03*
X100500Y240499D02*
D03*
X265000Y720000D02*
D03*
X257500Y463000D02*
D03*
X301000Y399500D02*
D03*
X302500Y374500D02*
D03*
X350000Y387500D02*
D03*
X214000Y338500D02*
D03*
X136500Y815500D02*
D03*
X104500Y815000D02*
D03*
X128000Y834000D02*
D03*
X50000D02*
D03*
X83500D02*
D03*
X250000Y452500D02*
D03*
X449000Y867000D02*
D03*
X93750Y448500D02*
D03*
X117250Y192750D02*
D03*
X358750Y830500D02*
D03*
X371500Y816250D02*
D03*
X497750Y425000D02*
D03*
X350650Y336650D02*
D03*
X350650Y349350D02*
D03*
X145500Y448500D02*
D03*
X68500Y970000D02*
D03*
X102000Y971500D02*
D03*
X193000Y949500D02*
D03*
X223500Y440000D02*
D03*
X297850Y412850D02*
D03*
X569000Y279000D02*
D03*
X530500Y310500D02*
D03*
X395850Y400150D02*
D03*
X237000Y201000D02*
D03*
X236500Y211500D02*
D03*
X248500Y500500D02*
D03*
X238500Y500000D02*
D03*
X115050Y607950D02*
D03*
X95000Y717000D02*
D03*
X71500Y783000D02*
D03*
X115500D02*
D03*
X93500D02*
D03*
X160000Y706500D02*
D03*
Y717750D02*
D03*
Y729000D02*
D03*
X346500Y706500D02*
D03*
X355000Y694500D02*
D03*
X477500Y932000D02*
D03*
X298000Y719500D02*
D03*
X550500Y837000D02*
D03*
X349000Y463000D02*
D03*
X350000Y450950D02*
D03*
X458000Y475000D02*
D03*
Y524500D02*
D03*
X465500Y532000D02*
D03*
X497750Y335000D02*
D03*
X488500Y327000D02*
D03*
X466000D02*
D03*
X455500Y337500D02*
D03*
X442500Y459500D02*
D03*
X430650Y412850D02*
D03*
X100000Y550000D02*
D03*
X140000D02*
D03*
X60000Y834500D02*
D03*
X334999Y719999D02*
D03*
X371500Y921000D02*
D03*
X490000Y532000D02*
D03*
X497500Y522500D02*
D03*
X127750Y607750D02*
D03*
X365000Y900000D02*
D03*
X392500Y922500D02*
D03*
X497500Y487500D02*
D03*
X497750Y372000D02*
D03*
D46*
X522500Y972500D02*
D03*
X452500D02*
D03*
X522500Y932500D02*
D03*
X452500D02*
D03*
M02*
